<svg id="Layer_1" data-name="Layer 1" xmlns="http://www.w3.org/2000/svg" viewBox="0 0 170 100"><path d="M85.64,52.63l-1.28,3.55a.14.14,0,0,1-.14.14h-2c-.14,0-.14,0-.14-.14,1.13-3,2.84-8.1,4.12-11.51a5.33,5.33,0,0,0,.14-1.13c0-.14,0-.14.14-.14h2.7c.14-.15.14,0,.14,0,1.42,4.11,3.13,8.52,4.55,12.64,0,.14,0,.14-.15.14H91.46c-.14,0-.14,0-.14-.14L90,52.49h-4.4v.14Zm4-2c-.42-1.28-1.42-4-1.7-5.4h0c-.28,1.28-1.14,3.55-1.7,5.4Zm5.54.85c0-2.84,2.13-5.11,5.54-5.11a2.83,2.83,0,0,1,1.14.14V42.26c0-.14,0-.14.14-.14h2.13c.14,0,.14,0,.14.14V55.18c0,.15,0,.15-.14.15a10.41,10.41,0,0,1-4,1c-3,.14-5-1.42-5-4.83Zm6.54-3a2.83,2.83,0,0,0-1.14-.14,2.8,2.8,0,0,0-3,3.12c0,2.27,1.28,3.13,2.84,3.13.42,0,1-.15,1.42-.15v-6Zm14.48,2.84c0,3.12-2,5.11-4.83,5.11-3.4,0-4.82-2.55-4.82-5a4.69,4.69,0,0,1,5-5c3-.14,4.68,2.13,4.68,4.83Zm-7.24,0c0,2,.85,3.27,2.41,3.27,1.28,0,2.28-.86,2.28-3.27,0-1.85-.71-3.27-2.42-3.27-1.28.14-2.27,1.28-2.27,3.27Zm11.5-9.09c.15,0,.15,0,.15.14V47a5.59,5.59,0,0,1,2.13-.43,4.29,4.29,0,0,1,4.4,4.55,5.52,5.52,0,0,1-5.82,5.53,11,11,0,0,1-3-.42.14.14,0,0,1-.14-.14V42.4c0-.14,0-.14.14-.14Zm1.85,6.11a5.11,5.11,0,0,0-1.56.28v5.82a2.61,2.61,0,0,0,1.13.15A3.23,3.23,0,0,0,125,51.21a2.72,2.72,0,0,0-2.7-2.84Zm9.37,3.55c0,1.56,1,2.55,3,2.55a7.94,7.94,0,0,0,2.41-.42.14.14,0,0,1,.14.14v1.56c0,.14,0,.14-.14.29a5.93,5.93,0,0,1-3,.56c-3.55,0-5-2.41-5-5,0-2.84,1.7-5.11,4.68-5.11a3.92,3.92,0,0,1,4.12,4.12,4.56,4.56,0,0,1-.14,1.28h-6.11Zm3.13-1.56c.71,0,.85-.15.85-.15v-.28a1.89,1.89,0,0,0-2-1.85c-1.28,0-2,1-2.13,2.28Z"/><path d="M55.67,38.14l9.94,23.72V38.14Zm-16.9,0V61.86l9.94-23.72ZM47.86,57H52.4l2,4.83h4.12L52.12,46.8,47.86,57Z"/></svg>