<svg id="Layer_1" data-name="Layer 1" xmlns="http://www.w3.org/2000/svg" viewBox="0 0 170 100"><defs><style>.cls-1{fill:#107890;}</style></defs><path d="M23.37,59.38V43a1.14,1.14,0,0,1,.32-.07c2.61,0,5.22,0,7.82.09a4.24,4.24,0,0,1,3.9,2.15c1,1.94.54,4.62-1.9,5.39a1.79,1.79,0,0,0-.29.18c.44.19.85.33,1.22.53,2.56,1.4,2.66,5.43.19,7.12a6.4,6.4,0,0,1-3.6,1c-2.23,0-4.47,0-6.7,0Zm3.26-2.55c1.43,0,2.8,0,4.16,0a2.13,2.13,0,0,0,2.36-2c.09-1.59-.48-2.41-2.06-2.59-1.29-.15-2.6-.08-3.9-.11l-.59,0V56.5C26.6,56.59,26.62,56.68,26.63,56.83Zm0-11.37c0,1.3,0,2.52,0,3.74,0,.13.19.38.29.38,1.4,0,2.8,0,4.19-.09a2,2,0,0,0-.12-4C29.54,45.41,28.1,45.46,26.6,45.46Z"/><path d="M106.41,59.34V42.94l.31,0c2.63,0,5.26,0,7.88.1a4.17,4.17,0,0,1,3.87,2.19c1,1.94.49,4.57-1.92,5.34a2.24,2.24,0,0,0-.33.19l.72.26a3.88,3.88,0,0,1,2.51,3.78,4,4,0,0,1-2.56,4,10.61,10.61,0,0,1-3.06.57c-2.36.08-4.74,0-7.11,0C106.63,59.38,106.53,59.35,106.41,59.34Zm3.25-2.51c1.47,0,2.87.05,4.27,0a2.09,2.09,0,0,0,2.26-2.07c.07-1.57-.5-2.35-2-2.55a33.08,33.08,0,0,0-3.31-.11h-1.17Zm0-11.37c0,1.31,0,2.55,0,3.79,0,.12.18.33.28.33,1.4,0,2.8,0,4.19-.09a1.85,1.85,0,0,0,1.59-2.13A1.83,1.83,0,0,0,114,45.48C112.58,45.41,111.15,45.46,109.64,45.46Z"/><path d="M85.42,59.35H82.58v-13l-.18-.1a3.41,3.41,0,0,0-.6.6c-1,1.79-2,3.58-3,5.38l-1.17,2.16L76,51.32c-.81-1.49-1.61-3-2.45-4.45a3.5,3.5,0,0,0-.63-.65l-.17.11v13H69.88V42.9c1.58.06,3.25-.29,4.53,1a8.27,8.27,0,0,1,1.37,2c.56,1,1,2,1.55,3.06l.36.6c.3-.6.53-1.1.79-1.58.64-1.17,1.25-2.36,2-3.5A3,3,0,0,1,83,43c.81-.05,1.61,0,2.47,0Z"/><path d="M103.73,59.37c-1,0-2,0-3,0-.11,0-.25-.25-.3-.42-.29-.94-.57-1.88-.82-2.83-.11-.43-.28-.61-.76-.6-1.82,0-3.63,0-5.45,0a.65.65,0,0,0-.76.6c-.24.93-.54,1.85-.78,2.78-.1.37-.24.52-.64.51-.88,0-1.76,0-2.72,0,.51-1.65,1-3.21,1.46-4.77.87-2.84,1.72-5.68,2.64-8.51a8.56,8.56,0,0,1,1.09-2.33,3.11,3.11,0,0,1,5.06.29,24.25,24.25,0,0,1,1.51,4c1.15,3.62,2.25,7.25,3.36,10.88C103.66,59.07,103.68,59.18,103.73,59.37ZM93.55,53.12h5.11c0-.19,0-.34-.08-.49L96.9,46.91a6.21,6.21,0,0,0-.34-1,.46.46,0,0,0-.87,0,2.1,2.1,0,0,0-.2.49c-.47,1.63-.95,3.25-1.42,4.87Z"/><path d="M50.31,56.86v2.42c-.05,0-.08.07-.11.07-2.29,0-4.59.07-6.87-.1-2.85-.21-4.31-2-4.36-5q-.06-3.13,0-6.27A5.29,5.29,0,0,1,40,44.59a4.16,4.16,0,0,1,3.15-1.54c2.34-.09,4.69,0,7.09,0v2.39H44.85c-1.83,0-2.5.61-2.64,2.43-.05.64,0,1.29,0,2h7v2.52h-7a7.57,7.57,0,0,0,.26,3.29,1.9,1.9,0,0,0,1.85,1.15c1.7,0,3.4,0,5.1,0Z"/><path d="M138.45,52.4a27.79,27.79,0,0,0,.19,2.83,1.86,1.86,0,0,0,2,1.59c1.75.06,3.51,0,5.27,0h.72v2.45a1.57,1.57,0,0,1-.28.06c-2.18,0-4.35,0-6.52-.1a4.49,4.49,0,0,1-3.57-1.7,5.36,5.36,0,0,1-1-3.28c0-2.09,0-4.18,0-6.27a5.29,5.29,0,0,1,1.1-3.47A4.4,4.4,0,0,1,139.62,43c2.27-.11,4.55-.08,6.82-.11a.54.54,0,0,1,.18.06v2.44h-5.44c-1.84,0-2.51.61-2.65,2.43-.05.64,0,1.29,0,2h7V52.4Z"/><path d="M133.22,56.86v2.52h-1.44c-1.64,0-3.28,0-4.91-.09a4.38,4.38,0,0,1-3.62-1.82,5.79,5.79,0,0,1-.85-3.33c0-3.65,0-7.3,0-10.94a1.51,1.51,0,0,1,0-.26h3.22V54.16a5.26,5.26,0,0,0,.09,1.05,1.76,1.76,0,0,0,1.82,1.61c1.64.06,3.28,0,4.92,0Z"/><path class="cls-1" d="M52.35,59.32,53,56.91c1.06-3.65,2.11-7.3,3.19-10.94a5,5,0,0,1,1.46-2.65,3.19,3.19,0,0,1,4.8,1A24.55,24.55,0,0,1,63.78,48c1.06,3.54,2.07,7.1,3.1,10.66.06.18.1.37.18.66-1,0-2,0-2.9,0-.12,0-.29-.24-.34-.4-1-3.62-2-7.24-3-10.87-.17-.62-.32-1.26-.54-1.87-.09-.23-.37-.54-.57-.55s-.5.31-.57.54c-.44,1.47-.84,3-1.24,4.43-.77,2.77-1.53,5.54-2.3,8.31-.05.16-.21.41-.33.41C54.33,59.33,53.39,59.32,52.35,59.32Z"/></svg>