<svg id="Layer_1" xmlns="http://www.w3.org/2000/svg" viewBox="0 0 300 150" height="80" width="160"><defs><style>.cls-1{fill:#fff;}</style></defs><path d="m105.86,75c-.22-.16-.36-.24-.47-.35-1.73-1.72-3.46-3.44-5.17-5.18-.14-.14-.25-.38-.25-.58-.01-14.51-.01-29.01-.01-43.52v-.37h100.06v.47c0,14.45,0,28.9,0,43.35,0,.29-.09.5-.29.7-1.72,1.71-3.43,3.43-5.15,5.14-.11.11-.25.19-.48.35.23.16.37.24.48.35,1.73,1.72,3.46,3.44,5.17,5.18.15.15.26.41.26.62.01,14.48.01,28.96.01,43.44,0,.13,0,.25,0,.41h-100.06c0-.16,0-.31,0-.47,0-14.44,0-28.87,0-43.31,0-.31.08-.52.3-.74,1.71-1.7,3.41-3.4,5.12-5.11.11-.11.24-.2.47-.38Zm87.9,43.76v-.48c0-11.36,0-22.72,0-34.08,0-.29-.09-.5-.29-.7-2.14-2.13-4.28-4.27-6.41-6.4-1.36-1.36-1.36-2.82.01-4.19,2.13-2.13,4.25-4.25,6.38-6.37.22-.22.31-.43.31-.74,0-11.34,0-22.69,0-34.03v-.49h-87.53v.46c0,11.36,0,22.72,0,34.08,0,.29.08.5.29.71,2.16,2.15,4.32,4.31,6.47,6.47,1.27,1.28,1.27,2.79-.01,4.08-2.15,2.16-4.31,4.31-6.46,6.48-.16.16-.27.43-.27.66-.01,11.37-.01,22.75-.01,34.12,0,.15.02.3.03.45h87.5Z"></path><path class="cls-1" d="m193.76,118.76h-87.5c0-.15-.03-.3-.03-.45,0-11.37,0-22.75.01-34.12,0-.22.12-.5.27-.66,2.14-2.17,4.3-4.32,6.46-6.48,1.28-1.28,1.29-2.8.01-4.08-2.15-2.16-4.31-4.32-6.47-6.47-.21-.21-.29-.42-.29-.71,0-11.36,0-22.72,0-34.08v-.46h87.53v.49c0,11.34,0,22.69,0,34.03,0,.31-.09.52-.31.74-2.13,2.12-4.26,4.25-6.38,6.37-1.37,1.37-1.37,2.83-.01,4.19,2.14,2.14,4.27,4.27,6.41,6.4.21.21.29.41.29.7,0,11.36,0,22.72,0,34.08v.48Zm-24.71-22.96s-.06.02-.09.03c-.08-.14-.16-.28-.24-.42-2.27-4.34-4.54-8.68-6.82-13.02-.4-.76-.81-1.52-1.24-2.27-.25-.43-.63-.72-1.13-.73-1.42-.03-2.83-.07-4.25-.02-.68.02-.89.32-.97,1.01-.03.27-.04.54-.04.81,0,8.29,0,16.59,0,24.88,0,.25,0,.51.03.76.08.77.33,1.03,1.11,1.07.81.04,1.62.03,2.42.03.51,0,1.02,0,1.53-.04.69-.06.96-.34,1.02-1.02.03-.3.04-.59.04-.89,0-4.69,0-9.39,0-14.08v-.48c.16.11.24.24.31.37,1.7,3.25,3.4,6.5,5.09,9.75.91,1.73,1.82,3.46,2.71,5.2.4.79,1.01,1.19,1.9,1.18,1.02,0,2.04.03,3.06,0,1.46-.03,1.68-.27,1.68-1.75,0-4.93,0-9.87,0-14.8,0-3.54,0-7.09,0-10.63,0-1.07-.34-1.4-1.4-1.42-.99-.02-1.99-.02-2.98-.01-1.51.01-1.75.26-1.75,1.76,0,4.76,0,9.53,0,14.29,0,.15,0,.3,0,.45Zm-44.06-39.42c0,4.18,0,8.37,0,12.55,0,1.52.26,1.79,1.78,1.79,2.04,0,4.08.01,6.13,0,1.54-.01,3.1.03,4.63-.1,2.27-.19,4.25-1.07,5.76-2.83,1.7-1.98,2.55-4.33,2.59-6.91.06-3.24.05-6.49-.07-9.74-.09-2.63-1.27-4.82-3.2-6.6-1.79-1.64-3.99-2.32-6.35-2.4-3.19-.1-6.38-.07-9.57-.06-1.47,0-1.7.29-1.7,1.78,0,4.17,0,8.34,0,12.51Zm40.04-14.29h0c-.77,0-1.53-.01-2.3,0-1.17.02-1.48.25-1.85,1.36-1.19,3.56-2.37,7.11-3.56,10.67-1.68,5.02-3.38,10.03-5.03,15.06-.33,1.02.07,1.55,1.07,1.54,1.18-.01,2.35,0,3.53,0,1.16,0,1.34-.12,1.7-1.25.44-1.4.87-2.81,1.26-4.23.12-.42.27-.58.74-.57,2.81.03,5.62.03,8.42,0,.51,0,.69.15.83.62.44,1.51.93,3,1.42,4.49.21.64.65.95,1.35.94,1.35-.02,2.69,0,4.04,0,.91,0,1.29-.52,1.06-1.4-.03-.1-.06-.19-.09-.28-2.35-7.1-4.69-14.19-7.04-21.29-.48-1.46-.96-2.93-1.46-4.39-.35-1.03-.66-1.24-1.75-1.27-.78-.02-1.56,0-2.34,0Zm-27.86,43.16c-.2.29-.34.5-.49.7-3.74,5.33-7.47,10.65-11.21,15.97-.34.48-.51.99-.5,1.58.03.92,0,1.84.01,2.76,0,.28.03.57.08.84.07.38.29.66.69.71.43.06.87.1,1.31.1,5.67,0,11.34,0,17.01,0,.2,0,.4,0,.6-.02.92-.05,1.21-.3,1.23-1.21.03-1.16.03-2.33,0-3.49-.02-.89-.31-1.15-1.19-1.21-.21-.01-.42-.02-.64-.02-3.45,0-6.89,0-10.34,0h-.59c.15-.22.24-.36.33-.49,1.98-2.78,3.96-5.57,5.94-8.35,1.83-2.58,3.66-5.16,5.5-7.72.39-.54.6-1.1.57-1.77-.04-.92,0-1.84-.01-2.76,0-.24-.03-.48-.06-.72-.06-.45-.32-.73-.77-.78-.41-.05-.82-.08-1.23-.08-5.5,0-11,0-16.5,0-.27,0-.54,0-.81.02-.63.06-.92.3-.96.93-.06,1.09-.08,2.18-.07,3.27,0,1.48.27,1.73,1.75,1.73,3.26,0,6.52,0,9.78,0,.15,0,.31,0,.57,0Z"></path><path d="m169.05,95.8c0-.15,0-.3,0-.45,0-4.76,0-9.53,0-14.29,0-1.5.24-1.75,1.75-1.76.99,0,1.99,0,2.98.01,1.06.02,1.4.35,1.4,1.42,0,3.54,0,7.09,0,10.63,0,4.93,0,9.87,0,14.8,0,1.47-.22,1.71-1.68,1.75-1.02.02-2.04-.02-3.06,0-.89,0-1.49-.4-1.9-1.18-.89-1.74-1.81-3.46-2.71-5.2-1.7-3.25-3.4-6.5-5.09-9.75-.07-.13-.14-.26-.31-.37v.48c0,4.69,0,9.39,0,14.08,0,.3-.01.6-.04.89-.06.68-.33.96-1.02,1.02-.51.05-1.02.04-1.53.04-.81,0-1.62,0-2.42-.03-.77-.04-1.02-.3-1.11-1.07-.03-.25-.03-.51-.03-.76,0-8.29,0-16.59,0-24.88,0-.27.01-.54.04-.81.08-.69.29-.99.97-1.01,1.41-.05,2.83-.01,4.25.02.5.01.89.3,1.13.73.43.75.84,1.51,1.24,2.27,2.28,4.34,4.55,8.68,6.82,13.02.07.14.16.28.24.42.03,0,.06-.02.09-.03Z"></path><path d="m125,56.38c0-4.17,0-8.34,0-12.51,0-1.49.23-1.77,1.7-1.78,3.19-.01,6.38-.04,9.57.06,2.36.07,4.56.75,6.35,2.4,1.93,1.77,3.1,3.97,3.2,6.6.12,3.24.13,6.49.07,9.74-.05,2.58-.89,4.92-2.59,6.91-1.51,1.76-3.5,2.64-5.76,2.83-1.54.13-3.09.09-4.63.1-2.04.01-4.08,0-6.13,0-1.52,0-1.78-.27-1.78-1.79,0-4.18,0-8.37,0-12.55Zm6.62,8.77c1.57-.05,3.1-.04,4.61-.17,1.33-.12,2.23-.92,2.54-2.22.23-.94.38-1.92.41-2.89.06-2.21.03-4.42.01-6.63,0-.66-.07-1.33-.17-1.99-.38-2.42-1.61-3.48-4.05-3.53-1.02-.02-2.04,0-3.06,0-.09,0-.19.03-.29.04v17.39Z"></path><path d="m165.04,42.08c.78,0,1.56-.02,2.34,0,1.09.03,1.39.24,1.75,1.27.5,1.46.98,2.93,1.46,4.39,2.35,7.1,4.69,14.19,7.04,21.29.03.09.07.19.09.28.23.88-.14,1.39-1.06,1.4-1.35,0-2.69-.02-4.04,0-.7.01-1.14-.3-1.35-.94-.49-1.49-.98-2.99-1.42-4.49-.14-.48-.33-.63-.83-.62-2.81.03-5.62.03-8.42,0-.46,0-.62.15-.74.57-.39,1.42-.82,2.83-1.26,4.23-.36,1.13-.54,1.24-1.7,1.25-1.18,0-2.35,0-3.53,0-1.01.01-1.41-.53-1.07-1.54,1.66-5.03,3.35-10.04,5.03-15.06,1.19-3.56,2.38-7.11,3.56-10.67.37-1.11.68-1.34,1.85-1.36.77-.01,1.53,0,2.3,0h0Zm-3.47,17.45h6.51c-1.09-3.59-2.17-7.15-3.26-10.7-.03,0-.05,0-.08,0-1.06,3.56-2.11,7.12-3.18,10.7Z"></path><path d="m137.18,85.25c-.26,0-.41,0-.57,0-3.26,0-6.52,0-9.78,0-1.47,0-1.74-.25-1.75-1.73,0-1.09.01-2.18.07-3.27.04-.63.33-.87.96-.93.27-.03.54-.02.81-.02,5.5,0,11,0,16.5,0,.41,0,.82.04,1.23.08.45.05.71.33.77.78.03.24.06.48.06.72,0,.92-.03,1.84.01,2.76.03.68-.18,1.23-.57,1.77-1.84,2.57-3.67,5.15-5.5,7.72-1.98,2.78-3.96,5.57-5.94,8.35-.09.13-.18.27-.33.49h.59c3.45,0,6.89,0,10.34,0,.21,0,.43,0,.64.02.88.06,1.17.32,1.19,1.21.03,1.16.03,2.33,0,3.49-.02.91-.31,1.16-1.23,1.21-.2.01-.4.02-.6.02-5.67,0-11.34,0-17.01,0-.44,0-.88-.04-1.31-.1-.4-.05-.62-.33-.69-.71-.05-.28-.08-.56-.08-.84,0-.92.02-1.84-.01-2.76-.02-.6.16-1.1.5-1.58,3.74-5.32,7.48-10.65,11.21-15.97.14-.21.29-.41.49-.7Z"></path><path class="cls-1" d="m131.61,65.15v-17.39c.11-.02.2-.04.29-.04,1.02,0,2.04-.02,3.06,0,2.44.05,3.67,1.1,4.05,3.53.1.66.16,1.32.17,1.99.02,2.21.05,4.42-.01,6.63-.03.97-.18,1.95-.41,2.89-.31,1.3-1.21,2.1-2.54,2.22-1.52.13-3.05.12-4.61.17Z"></path><path class="cls-1" d="m161.57,59.53c1.06-3.58,2.12-7.14,3.18-10.7.03,0,.05,0,.08,0,1.08,3.55,2.16,7.11,3.26,10.7h-6.51Z"></path></svg>