<svg id="Layer_1" data-name="Layer 1" xmlns="http://www.w3.org/2000/svg" viewBox="0 0 170 100"><path d="M123.49,38.66a1.72,1.72,0,0,0-1.2-1.1H83.86a1.69,1.69,0,0,0-1.21,1.2,3.05,3.05,0,0,0-.06.6v20.8a1.72,1.72,0,0,0,1.65,1.64h8.87c.3,0,.3,0,.3.29v3.12h.1a.71.71,0,0,1,.08-.15l1.34-1.55c.46-.49.9-1,1.35-1.49.27-.31.27-.31.68-.31h24.79a2,2,0,0,0,.72-.09,1.66,1.66,0,0,0,1.11-1.21V38.93C123.55,38.84,123.53,38.75,123.49,38.66Zm-27,9.61v9.5c0,.34,0,.34-.33.34H93.47c-.16,0-.16,0-.16-.17V48.21a1.5,1.5,0,0,0-.17-.75,1.6,1.6,0,0,0-1.68-.89,1.64,1.64,0,0,0-1.35,1.31,2.54,2.54,0,0,0,0,.39V58h0a.12.12,0,0,1-.13.11H87.1c-.09,0-.15,0-.15-.15V41.36c0-.2,0-.2.22-.2H89.9c.23,0,.23,0,.23.24v2.29l.27-.07a4.82,4.82,0,0,1,4.4.85,4.64,4.64,0,0,1,1.71,3.09C96.52,47.79,96.52,48,96.51,48.27Zm10.32,8.14A4.81,4.81,0,0,1,98.4,53.9V41.42c0-.23,0-.23.24-.23h2.69c.24,0,.24,0,.24.23V53.18a2.09,2.09,0,0,0,0,.5,1.6,1.6,0,0,0,3.15-.1,3.69,3.69,0,0,0,0-.47V41.52c0-.36,0-.36.39-.36h2.58c.18,0,.18,0,.18.18v6.23l.06,5.86A4.57,4.57,0,0,1,106.83,56.41Zm12.25-2.94A4.72,4.72,0,0,1,115.19,58a4.8,4.8,0,0,1-3.93-1,4.6,4.6,0,0,1-1.74-3.14,5.23,5.23,0,0,1,0-.56V41.3a.12.12,0,0,1,.13-.11h2.86c.18,0,.18,0,.18.18v2.06a1.13,1.13,0,0,0,0,.26l.21,0a4.94,4.94,0,0,1,4.32.78A4.61,4.61,0,0,1,119,47.15a3.81,3.81,0,0,1,.12,1Z"/><path d="M63.88,41.57a6,6,0,0,0-3.24-.46,5.41,5.41,0,0,0-3.37,1.65v-1.3c0-.31,0-.31-.37-.31H51.16a5.6,5.6,0,0,0-3.52,1.72,4.22,4.22,0,0,0-1.13,2.23.72.72,0,0,1-.09.2V58h3.21c.41,0,.41,0,.41-.36V51.13a.16.16,0,0,1,.18-.13h2.62c.16,0,.16,0,.16-.14V48.19c0-.33,0-.33-.37-.33H50.37c-.29,0-.29,0-.29-.23V45.7a1.33,1.33,0,0,1,.4-.86A2,2,0,0,1,52,44.28h4.38a4.41,4.41,0,0,0-.27,1.58v12c0,.17,0,.17.18.17h3c.39,0,.39,0,.39-.34V51.23c0-.27,0-.27.32-.27h2.94c.39,0,.39,0,.39.34v6.59c0,.13.06.13.14.13h3c.39,0,.39,0,.39-.33V45.86a3.89,3.89,0,0,0-.36-1.65A4.88,4.88,0,0,0,63.88,41.57Zm-.59,6c0,.24,0,.24-.3.24H60c-.26,0-.26,0-.26-.21V45.78a1.69,1.69,0,0,1,1.74-1.5,1.73,1.73,0,0,1,1.86,1.58Z"/><path d="M75.9,41.58a5.92,5.92,0,0,0-3.14-.42,5.48,5.48,0,0,0-3.39,1.64,4.27,4.27,0,0,0-1.26,3.08v5.75h0v6.18c0,.17,0,.17.21.17h3c.41,0,.41,0,.41-.36V46a1.5,1.5,0,0,1,0-.3A1.59,1.59,0,0,1,73,44.33a1.93,1.93,0,0,1,2,.57,1.61,1.61,0,0,1,.35,1V57.59a.81.81,0,0,0,0,.22c0,.17,0,.17.18.17h3c.38,0,.38,0,.38-.34V45.86a4,4,0,0,0-.31-1.61A5,5,0,0,0,75.9,41.58Z"/><path d="M112.06,46.37a1.51,1.51,0,0,0-.58,1.21v5.23a1.75,1.75,0,0,0,1.86,1.55,1.71,1.71,0,0,0,1.76-1.58V50.15c0-.88,0-1.76,0-2.63a1.46,1.46,0,0,0-.4-1A2,2,0,0,0,112.06,46.37Z"/></svg>