<svg width="96" height="76" viewBox="0 0 96 76" fill="none" xmlns="http://www.w3.org/2000/svg">
<g clip-path="url(#clip0_15458_2078)">
<path d="M23.6666 58.8143C23.6666 58.8319 23.57 59.9297 22.358 59.9297H18.5377C18.5113 59.9297 16.3772 59.8858 16.3772 57.0051V54.1947C16.3772 53.4922 16.8866 52.1572 18.8099 52.1572C20.7596 52.1572 23.4295 52.1836 23.4558 52.1836H23.4998V53.9752H19.5213C19.4862 53.9752 18.5377 53.9928 18.5377 55.0027V57.2598C18.5377 57.2862 18.6431 58.0239 19.5477 58.0239H21.1724C21.1812 58.0239 21.4095 57.98 21.4095 57.5321C21.4095 56.9524 21.392 56.5133 21.392 56.4518C21.3744 56.4079 21.2602 56.1181 20.9353 56.0303L20.9177 56.0215L20.9089 56.0039C20.8475 55.8634 20.865 55.7932 20.8738 55.7844L20.8826 55.758H23.4558C23.4734 55.758 23.6754 55.7932 23.6578 56.1445C23.6491 56.4606 23.6666 58.788 23.6666 58.8143Z" fill="#222222"/>
<path d="M79.4264 53.9928H79.3737C78.9258 54.0103 78.4076 54.0103 77.8543 54.0103C76.9585 54.0103 76.2032 53.9928 76.0188 53.9928V59.9121H73.9637V53.9664H69.1158V55.0818C69.1158 55.0906 69.1246 55.3628 69.6252 55.3628H71.4607V56.8559H69.6427C69.6252 56.8559 69.1421 56.8646 69.1421 57.2335C69.1421 57.5497 69.1509 59.8682 69.1509 59.8682V59.9121L67.087 59.877V53.1497C67.087 52.8598 67.2012 52.1836 68.22 52.1836H77.784C78.4515 52.1836 79.1717 52.9477 79.4351 53.9313L79.4264 53.9928Z" fill="#222222"/>
<path d="M50.9887 58.0151V59.9209H45.5173C45.0606 59.9209 44.7269 59.8067 44.5249 59.5696C44.279 59.2886 44.3316 58.9461 44.3316 58.9285V53.3604C44.3316 52.3329 45.2714 52.1836 45.2889 52.1836H50.98L50.936 53.905H50.8921C50.8921 53.905 49.1796 53.905 47.9676 53.905C47.265 53.905 46.8698 53.905 46.7995 53.905H46.7819C46.659 53.905 46.5624 53.9401 46.5009 54.0103C46.3955 54.1245 46.4043 54.2826 46.4043 54.2826V54.8798C46.4043 55.2399 46.7732 55.2487 46.7907 55.2487L50.5233 55.2399V56.8734H46.7995C46.3516 56.8998 46.3428 57.2511 46.3428 57.2686V57.6199C46.3428 57.9888 46.738 58.0151 46.7556 58.0151H50.9887Z" fill="#222222"/>
<path d="M58.287 59.8243V59.9121H53.0439C53.0439 59.9121 53.0088 59.9209 52.9649 59.9209C52.7892 59.9209 52.2008 59.8595 52.2008 59.069C52.2008 58.1644 52.1744 52.2978 52.1744 52.2363V52.1924H54.3174V57.6375C54.3174 57.6551 54.3349 58.0503 54.7213 58.0503H57.2683L57.277 58.0854C57.277 58.103 57.6547 59.8243 58.287 59.8243Z" fill="#222222"/>
<path d="M43.1021 53.4131C43.1021 54.5548 43.0846 59.8419 43.0846 59.8946V59.9385H40.9417L40.9504 55.1081L38.4123 59.7804C38.4035 59.7892 38.2894 59.9736 38.1401 59.9736C38.0522 59.9736 37.9995 59.9033 37.9029 59.7628C37.7449 59.473 35.8215 56.0566 35.3999 55.3014V59.8946L33.1868 59.9121L33.2219 53.2814C33.2219 53.2726 33.2395 52.1748 34.188 52.1748H35.1453H35.154C35.2243 52.1748 35.479 52.2012 35.6985 52.5876C35.8391 52.8159 37.9293 56.0127 37.9468 56.0479C37.9908 56.1357 38.0698 56.2235 38.1049 56.2235C38.1401 56.2235 38.2454 56.1269 38.3245 56.0479L40.4762 52.5964C40.485 52.5788 40.7045 52.1924 41.0383 52.1836H42.2151C42.2239 52.1836 43.1021 52.2275 43.1021 53.4131Z" fill="#222222"/>
<path d="M63.653 52.1924H60.3596C59.7975 52.1924 58.2167 52.5876 58.2167 54.3616V57.576C58.2167 57.6024 58.4362 59.9473 60.1225 59.9473C62.8187 59.9473 63.8462 59.8946 63.8638 59.8946C63.8813 59.8946 65.8837 59.5521 65.8837 57.4794V54.3968C65.875 54.3792 65.6554 52.1924 63.653 52.1924ZM62.6694 58.0942C62.16 58.0942 61.0797 58.0766 61.071 58.0766H61.0446C60.9744 58.0766 60.7987 58.0678 60.6406 57.9449C60.4298 57.7868 60.3245 57.5145 60.3245 57.1369C60.3245 55.96 60.3772 54.7042 60.3772 54.6866C60.3772 54.6866 60.3596 54.3792 60.5616 54.1596C60.7021 54.0016 60.9217 53.9313 61.2115 53.9313L62.9416 53.9401C62.9768 53.9401 63.7672 53.9752 63.7672 54.8535C63.7672 55.7844 63.7057 57.1369 63.7057 57.1545V57.1632V57.172C63.7057 57.172 63.7584 57.5233 63.5388 57.7956C63.3632 57.9976 63.0734 58.0942 62.6694 58.0942Z" fill="#222222"/>
<path d="M32.4929 59.8594C32.3788 59.5784 29.7265 52.9125 29.5245 52.5349C29.34 52.1924 28.9624 52.166 28.857 52.166H28.8219H27.6363C26.9776 52.166 26.8985 52.57 26.8897 52.6315L24.1057 59.956L26.4155 59.9297L26.9424 58.3049C27.2235 58.3049 29.3049 58.3137 29.586 58.3137C29.8582 59.1393 30.069 59.877 30.069 59.8858L30.0778 59.9209H32.5105L32.4929 59.8594ZM27.4606 56.6363L28.2422 54.388L28.98 56.6363H27.4606Z" fill="#222222"/>
<path d="M55.7927 48.4072C55.7049 48.4072 55.6522 48.4072 55.6522 48.4072C55.6522 48.4072 55.7049 48.416 55.7927 48.4072Z" fill="#060101"/>
<path d="M70.0994 29.8851C70.0994 29.8851 70.196 26.7849 69.8447 24.8C69.4319 22.4551 68.2287 20.4088 67.7984 19.8643C67.4119 19.3725 66.5249 17.9058 63.7058 16.9749C61.4926 16.2459 58.8227 16.2459 56.6095 16.1669C54.3964 16.0879 44.9465 16.0352 44.9465 16.0352C44.9465 16.0352 38.2543 16.0791 35.479 16.2196C31.0878 16.4304 29.99 16.527 28.0052 17.3701C26.0203 18.2132 24.659 20.198 24.2287 21.8228C23.7896 23.4387 23.9389 26.1789 23.9389 26.1789L24.0267 37.6663C24.0267 37.6663 23.9565 39.4579 24.1848 41.311C24.501 43.7086 24.9137 44.7713 25.3353 45.4124C25.669 45.9218 26.398 46.9493 27.7417 47.5904C28.7165 48.0559 31.6323 48.1262 33.0551 48.135C35.4351 48.2316 41.978 48.4775 43.6994 48.4863C46.7908 48.495 49.6187 48.4511 51.9285 48.3984C53.3688 48.3984 55.3449 48.3984 56.6271 48.3809C56.2583 48.3984 55.9596 48.4072 55.8016 48.4072C56.2583 48.4072 57.7513 48.3896 58.6998 48.3018C59.8239 48.1964 61.4048 47.6168 62.2391 46.9581C63.0734 46.2994 63.8551 45.4124 64.6982 43.8228C65.2866 42.6986 65.4798 39.5633 65.4798 39.5633L65.5062 34.9613C65.5062 34.9613 65.4535 32.5198 65.1724 31.2902C64.8914 30.0695 64.4084 29.0595 63.2666 27.8212C62.2567 26.7146 60.7549 26.2228 59.4463 25.9944C58.1377 25.7661 54.2295 25.81 54.2295 25.81L44.5337 25.7485L37.8854 25.8803C37.8854 25.8803 36.2782 25.8627 35.0575 26.0032C33.8367 26.135 33.3712 26.5741 33.0463 26.82C32.7213 27.0659 32.1066 27.5841 31.8606 28.436C31.5972 29.3493 31.6586 31.5274 31.6586 31.5274C31.6586 31.5274 31.764 35.2423 31.7816 35.7781C31.7992 36.3138 32.1066 36.2523 32.1066 36.2523C32.1066 36.2523 34.2495 36.507 34.3461 36.4982C34.4427 36.4894 34.3812 36.5773 34.4163 36.4894C34.4163 36.4807 34.4251 36.4631 34.4339 36.4543C34.4427 36.4543 34.4515 36.4543 34.4515 36.4543C34.4515 36.4543 34.9345 35.1721 36.4275 35.0843C37.9205 34.9964 54.3525 34.7417 55.6962 34.7154C57.0399 34.689 57.3473 35.1018 57.4966 35.418C57.6459 35.7429 57.6986 36.8232 57.6986 36.8232L57.6722 38.7992C57.6722 38.7992 57.4702 39.9234 56.9081 40.3625C56.4427 40.7226 56.4427 40.8543 55.4239 40.8894C54.4052 40.9246 35.5054 40.7226 35.5054 40.7226C35.5054 40.7226 33.3449 40.7928 32.4403 39.6423C31.5357 38.4831 30.6838 37.798 30.6487 34.7154C30.6399 32.59 30.6662 27.5665 30.6662 27.5665C30.6662 27.5665 30.5696 25.2567 32.168 23.7461C33.4942 22.4815 36.4099 22.6483 36.4099 22.6483C36.4099 22.6483 43.3656 22.6483 45.7632 22.5869C48.1608 22.5254 60.1313 22.8767 60.7461 22.903C61.3521 22.9382 62.6782 22.9996 64.2942 24.6946C64.8563 25.3006 65.7784 26.8463 65.9892 28.2603C66.2 29.6743 66.481 34.7242 66.481 34.7242C66.481 34.7242 66.481 34.7417 66.481 34.7857C66.4898 35.3741 66.5776 40.1166 66.1209 41.9082C65.6291 43.8228 65.0758 45.3685 63.6882 46.7386C63.372 47.0547 63.0734 47.3709 63.0734 47.3709C63.0734 47.3709 63.0734 47.3797 63.0646 47.3884C63.0383 47.4411 62.9856 47.5904 63.0646 47.6607C63.0646 47.6607 63.0734 47.6695 63.0822 47.6695C63.2491 48.0647 64.0131 48.337 64.0746 48.3545C64.1537 48.3809 64.9177 48.2579 65.4622 47.9154C67.6754 46.4663 68.2199 45.7198 69.0016 43.7877C70.1345 41.3988 70.1696 38.404 70.1696 37.9737C70.1433 37.5346 70.0994 29.8851 70.0994 29.8851Z" fill="#222222"/>
</g>
<defs>
<clipPath id="clip0_15458_2078">
<rect width="63.0579" height="44" fill="white" transform="translate(16.3948 16)"/>
</clipPath>
</defs>
</svg>
