<svg id="Layer_1" data-name="Layer 1" xmlns="http://www.w3.org/2000/svg" viewBox="0 0 170 100"><path d="M42.68,52.48c-.17.28-1.14,1.69-1.88,2.82l4.39-.62.34-.06a1.48,1.48,0,0,0,1.14-1c.91-2,1.82-2.08,3.53-2.42a8.48,8.48,0,0,0,5.35-3.72l-5.07.84C44.9,49.33,43.65,50.91,42.68,52.48Z"/><path d="M44.05,58.79a55.6,55.6,0,0,0,6.6-1.12A7,7,0,0,0,54.7,54.4,32.06,32.06,0,0,0,48,55.81C47.63,56,46.32,56.26,44.05,58.79Z"/><path d="M43.13,56.26l-3.64.5c-.34.45-1,1.19-1.14,1.36-.46.5-.74.5-1.88.62-.28,0-.4-.17-.23-.51l1.2-1.8c.11-.23.28-.45.34-.57l4-6c-3.88.84-6.38,2.59-7.47,4.22l-4.38,6.87L40.4,59.47c.28-.11.63-.23.85-.34C44.16,57.78,44.9,56,44.9,56S44.16,56.09,43.13,56.26Z"/><polygon points="61.19 49.89 60.4 49.89 60.4 56.76 66.55 56.76 66.55 56.09 61.19 56.09 61.19 49.89"/><rect x="67.69" y="49.89" width="0.8" height="6.82"/><polygon points="69.91 56.76 70.71 56.76 70.71 53.61 76.06 53.61 76.06 52.99 70.71 52.99 70.71 50.62 76.35 50.62 76.35 49.89 69.91 49.89 69.91 56.76"/><polygon points="78.28 53.55 83.98 53.55 83.98 52.88 78.28 52.88 78.28 50.62 84.15 50.62 84.15 49.89 77.48 49.89 77.48 56.76 84.21 56.76 84.21 56.09 78.28 56.09 78.28 53.55"/><polygon points="100.95 52.93 95.89 52.93 95.89 49.89 95.14 49.89 95.14 56.76 95.89 56.76 95.89 53.55 100.95 53.55 100.95 56.76 101.75 56.76 101.75 49.89 100.95 49.89 100.95 52.93"/><polygon points="133.65 49.89 133.65 52.93 128.58 52.93 128.58 49.89 127.84 49.89 127.84 56.76 128.58 56.76 128.58 53.55 133.65 53.55 133.65 56.76 134.45 56.76 134.45 49.89 133.65 49.89"/><path d="M109.22,54c0,1.91-1.88,2.25-2.68,2.25s-2.68-.34-2.68-2.25V49.89h-.8v4.23c0,1.63,1.14,2.76,3.42,2.76s3.42-1.13,3.42-2.76H110V49.89h-.79Z"/><path d="M118.33,51.75c0-1.18-.8-1.86-2.16-1.86h-5v6.82h.8v-3.1h4c1.14,0,1.59.68,1.59,1.75v1.4h.8V55.24a1.88,1.88,0,0,0-1.08-1.91h0A1.65,1.65,0,0,0,118.33,51.75Zm-2,1.18H112V50.62h4.33a1.09,1.09,0,0,1,1.25,1.19C117.53,52.6,117.08,52.93,116.28,52.93Z"/><path d="M90.36,50.4a2.88,2.88,0,0,1,2.9,1.86H94a3.53,3.53,0,0,0-3.65-2.54c-2.11,0-3.82,1.13-3.82,3.55s1.71,3.55,3.82,3.55A3.46,3.46,0,0,0,94,54.45h-.8a2.91,2.91,0,0,1-2.85,1.81,2.93,2.93,0,1,1,0-5.86Z"/><path d="M123.06,50.4a2.88,2.88,0,0,1,2.9,1.86h.74a3.51,3.51,0,0,0-3.64-2.54c-2.11,0-3.82,1.13-3.82,3.55s1.71,3.55,3.82,3.55a3.44,3.44,0,0,0,3.64-2.37h-.79a2.91,2.91,0,0,1-2.85,1.81h0a2.93,2.93,0,1,1,0-5.86Z"/><rect x="85.23" y="55.92" width="0.85" height="0.84"/></svg>