<svg id="Layer_1" data-name="Layer 1" xmlns="http://www.w3.org/2000/svg" viewBox="0 0 170 100"><path d="M43.4,53.74c1.9.92,2.25,2.57.94,4a1.92,1.92,0,0,1-.46.44c-2.16,1.32-4.31,2.65-6.6,3.76a2.73,2.73,0,0,1-2.67-.22c-3.38-2-6.78-3.94-10.17-5.91a5.65,5.65,0,0,1-3-4.83c-.08-1.69-.06-3.39,0-5.08A3.3,3.3,0,0,1,23.14,43q5.38-3.12,10.72-6.28a4,4,0,0,1,4.62,0C42,38.9,45.7,41,49.31,43.08A3.08,3.08,0,0,1,51,46c0,1.12.07,2.25-.05,3.35-4-2.75-8.33-5.05-12.53-7.45a4.7,4.7,0,0,0-4.81.19c-1.85,1-3.72,2-5.47,3.2-2.92,2-3.43,5-.74,7.46a6.48,6.48,0,0,0,1.18.68c1.66,1,3.33,2,5,2.92a5,5,0,0,0,5.4,0C40.42,55.42,41.94,54.58,43.4,53.74Z"/><path d="M21.45,55.87c4.11,2.8,8.41,5.06,12.58,7.55a4.21,4.21,0,0,0,4.33,0c2.2-1.15,4.35-2.41,6.45-3.74,3-1.88,2.62-5.78-.39-7.6C42.65,51,40.83,50,39,49a5.29,5.29,0,0,0-5.87.14c-1.36.84-2.76,1.62-4.14,2.42A2.43,2.43,0,0,1,28.66,47c1.88-1.21,3.86-2.26,5.8-3.38a3.31,3.31,0,0,1,3.61.05c1.84,1.09,3.66,2.21,5.51,3.29,1.38.8,2.78,1.58,4.18,2.34A5.81,5.81,0,0,1,51,54.82v4.32a3.42,3.42,0,0,1-1.82,3.12c-3.61,2.09-7.24,4.17-10.82,6.32a3.75,3.75,0,0,1-4.27,0c-3.56-2.13-7.15-4.2-10.74-6.26a3.24,3.24,0,0,1-1.89-2.91C21.44,58.27,21.45,57.13,21.45,55.87Z"/><path d="M136.86,46.13H140l-5.25,6.37,5.47,6.6h-3.33l-5.49-6.56V59.1h-2.61V46.2a10.28,10.28,0,0,1,2.56-.07v5.95l.25.13Z"/><path d="M77.9,46.14h2.74c1.22,3.11,2.45,6.27,3.77,9.65l3.78-9.65h2.74c-.62,1.57-1.21,3-1.78,4.52l-2.82,7.21a2,2,0,0,1-1.86,1.46,1.91,1.91,0,0,1-1.91-1.39C81,54.07,79.49,50.18,77.9,46.14Z"/><path d="M62.18,56.59H68.5a13.73,13.73,0,0,1,.08,2.58H61.87c-1.64,0-2.39-.71-2.41-2.36s0-3.56,0-5.33V46.23a14.45,14.45,0,0,1,2.72-.06Z"/><path d="M111.57,56.5h6.23c.33.86,0,1.66.2,2.45a5.47,5.47,0,0,1-2.32.18c-1.61,0-3.22,0-4.83,0a1.83,1.83,0,0,1-2-1.87c0-3.67,0-7.34,0-11.09h2.7Z"/><path d="M72.12,46.12a14.34,14.34,0,0,1,2.62.06V59a10.76,10.76,0,0,1-2.62.14Z"/><path d="M124.15,59.11h-2.51V46.17a11.7,11.7,0,0,1,2.51,0Z"/><path d="M99.91,46.06a6.43,6.43,0,0,0-7.36,5.37,6.64,6.64,0,0,0,4.91,7.75c3,.72,6.35-1.06,7.09-3.85h-2.68c-1.16,1.36-2.56,2.05-4.36,1.36a3.65,3.65,0,0,1-2.25-3.42h9.84A6.49,6.49,0,0,0,99.91,46.06Zm-4.43,5.17a3.3,3.3,0,0,1,3.06-2.84,3.58,3.58,0,0,1,3.76,2.84Z"/><path d="M148.7,46a6.46,6.46,0,0,0-7,5.25,6.66,6.66,0,0,0,4.7,7.88,6,6,0,0,0,7.27-3.78H151c-1.12,1.31-2.5,2-4.31,1.31a4,4,0,0,1-2.44-3.37h10.07A6.57,6.57,0,0,0,148.7,46Zm-4.19,5.19a3.51,3.51,0,0,1,3.33-2.82,3.58,3.58,0,0,1,3.56,2.82Z"/></svg>