<svg width="170" height="100" viewBox="0 0 170 100" fill="none" xmlns="http://www.w3.org/2000/svg">
<path d="M63.8501 53.4036C62.6756 53.3903 61.5541 52.9127 60.7307 52.0752C59.9072 51.2376 59.4487 50.1082 59.4553 48.9336C59.462 47.7591 59.9332 46.6349 60.7661 45.8067C61.599 44.9785 62.7259 44.5136 63.9004 44.5136C65.075 44.5136 66.2018 44.9785 67.0347 45.8067C67.8676 46.6349 68.3388 47.7591 68.3455 48.9336C68.3521 50.1082 67.8936 51.2376 67.0702 52.0752C66.2467 52.9127 65.1252 53.3903 63.9507 53.4036H63.8501ZM72.0666 44.2619V41.1745H66.6359C65.7413 40.8559 64.7997 40.6893 63.8501 40.6817C62.2236 40.7055 60.6404 41.2098 59.2998 42.1312C57.9592 43.0526 56.9211 44.3499 56.316 45.8599C55.7109 47.3698 55.5659 49.0251 55.8992 50.6173C56.2325 52.2094 57.0293 53.6675 58.1893 54.8079C59.3492 55.9484 60.8206 56.7203 62.4182 57.0266C64.0158 57.3329 65.6684 57.1598 67.1678 56.5292C68.6673 55.8985 69.9468 54.8385 70.8453 53.4824C71.7439 52.1264 72.2212 50.5349 72.2175 48.9082C72.2486 47.399 71.8054 45.9181 70.9503 44.6743L72.0666 44.2619ZM45.7478 53.4036C44.7245 53.3854 43.7389 53.0147 42.9573 52.354C42.1757 51.6933 41.646 50.7831 41.4577 49.7772C41.2693 48.7712 41.4339 47.7311 41.9235 46.8324C42.4132 45.9338 43.1979 45.2316 44.1453 44.8444C45.0927 44.4572 46.1446 44.4088 47.1235 44.7074C48.1024 45.0059 48.9484 45.6331 49.5185 46.483C50.0886 47.3329 50.3479 48.3535 50.2528 49.3725C50.1576 50.3915 49.7137 51.3464 48.9961 52.0761C48.59 52.4932 48.1056 52.826 47.5706 53.0555C47.0356 53.2851 46.4606 53.4068 45.8785 53.4137L45.7478 53.4036ZM45.7478 40.6817C44.6154 40.593 43.4769 40.7395 42.4039 41.1119C41.3308 41.4844 40.3464 42.0747 39.5125 42.8459C38.6786 43.617 38.0132 44.5524 37.5581 45.593C37.103 46.6337 36.8681 47.7573 36.8681 48.8931C36.8681 50.0289 37.103 51.1525 37.5581 52.1932C38.0132 53.2339 38.6786 54.1692 39.5125 54.9403C40.3464 55.7115 41.3308 56.3019 42.4039 56.6743C43.4769 57.0467 44.6154 57.1932 45.7478 57.1046C46.8529 57.1432 47.9546 56.9589 48.987 56.5626C50.0195 56.1663 50.9615 55.5662 51.757 54.798C52.5525 54.0298 53.1852 53.1093 53.6173 52.0914C54.0494 51.0734 54.2721 49.9789 54.2721 48.873C54.2721 47.7671 54.0494 46.6726 53.6173 45.6546C53.1852 44.6367 52.5525 43.7162 51.757 42.948C50.9615 42.1798 50.0195 41.5797 48.987 41.1834C47.9546 40.7871 46.8529 40.6028 45.7478 40.6414V40.6817ZM32 56.7023H35.8719V34.5771H32V56.7023ZM73.8266 56.7023H77.7085V41.1745H73.8266V56.7023ZM63.8501 62.2134C63.2717 62.2201 62.6975 62.1127 62.1606 61.8975C61.6236 61.6822 61.1343 61.3633 60.7206 60.9589C60.3069 60.5546 59.9769 60.0726 59.7494 59.5407C59.5219 59.0088 59.4015 58.4373 59.3949 57.8588V57.7683H55.4929C55.5681 59.9412 56.4843 62 58.048 63.5105C59.6118 65.0211 61.7011 65.8654 63.8753 65.8654C66.0495 65.8654 68.1387 65.0211 69.7025 63.5105C71.2663 62 72.1824 59.9412 72.2577 57.7683H68.3355C68.3421 58.3463 68.2347 58.9199 68.0193 59.4563C67.8039 59.9927 67.4849 60.4814 67.0804 60.8943C66.6759 61.3072 66.1939 61.6362 65.662 61.8626C65.1302 62.089 64.5589 62.2082 63.9809 62.2134H63.8501ZM92.0094 47.3192C92.2086 46.3868 92.7325 45.5554 93.4877 44.9733C94.2429 44.3913 95.1803 44.0964 96.1327 44.1412C97.0744 44.0938 98.0014 44.3898 98.7412 44.9743C99.4811 45.5588 99.9837 46.3921 100.155 47.3192H92.0094ZM96.2433 40.6817C95.1406 40.6518 94.0436 40.8489 93.0203 41.2609C91.997 41.6729 91.0694 42.291 90.295 43.0766C89.5207 43.8623 88.9162 44.7988 88.5191 45.8279C88.122 46.8571 87.9407 47.9569 87.9866 49.0591C87.9399 50.1516 88.1226 51.2419 88.5231 52.2594C88.9237 53.277 89.533 54.1994 90.312 54.9669C91.0909 55.7345 92.0221 56.3302 93.0455 56.7157C94.0688 57.1013 95.1616 57.268 96.2534 57.2051C97.5681 57.2239 98.8725 56.97 100.084 56.4594C101.296 55.9487 102.389 55.1925 103.293 54.2383L100.688 51.6738C100.134 52.3017 99.4598 52.8121 98.7049 53.1749C97.9501 53.5376 97.1301 53.7454 96.2936 53.7858C95.322 53.8152 94.3698 53.5095 93.597 52.9198C92.8241 52.3301 92.2778 51.4924 92.0496 50.5475H104.118V49.6021C104.118 44.3122 100.849 40.7621 96.1428 40.7621L96.2433 40.6817ZM130.527 40.6817C129.654 40.6568 128.786 40.8159 127.979 41.1486C127.171 41.4812 126.443 41.98 125.841 42.6126V34.5671H121.959V56.6922H125.841V48.2344C125.806 47.7298 125.881 47.2237 126.059 46.7504C126.237 46.277 126.515 45.8475 126.873 45.4908C127.232 45.1341 127.663 44.8587 128.137 44.6831C128.611 44.5075 129.118 44.4359 129.622 44.4731C131.835 44.4731 133.041 45.8308 133.041 48.2545V56.7325H136.933V47.5606C136.933 43.2562 134.248 40.6817 130.578 40.6817H130.527ZM113.803 44.4027C114.58 44.4211 115.344 44.6109 116.039 44.9586C116.734 45.3063 117.344 45.8033 117.825 46.4141L120.521 43.739C119.722 42.7517 118.709 41.9583 117.56 41.4183C116.41 40.8784 115.153 40.6059 113.883 40.6213C112.778 40.5827 111.676 40.767 110.644 41.1633C109.611 41.5596 108.669 42.1597 107.874 42.9279C107.078 43.6961 106.446 44.6166 106.014 45.6345C105.581 46.6525 105.359 47.747 105.359 48.8529C105.359 49.9587 105.581 51.0533 106.014 52.0712C106.446 53.0892 107.078 54.0097 107.874 54.7779C108.669 55.5461 109.611 56.1462 110.644 56.5425C111.676 56.9388 112.778 57.1231 113.883 57.0844C115.133 57.1054 116.372 56.8473 117.51 56.3288C118.648 55.8104 119.656 55.0447 120.46 54.0875L117.825 51.4224C117.341 52.0296 116.73 52.524 116.036 52.8713C115.341 53.2187 114.579 53.4106 113.803 53.4338C113.212 53.4445 112.625 53.336 112.078 53.1148C111.53 52.8937 111.032 52.5643 110.615 52.1465C109.809 51.2765 109.361 50.1343 109.361 48.9484C109.361 47.7626 109.809 46.6204 110.615 45.7503C111.029 45.3318 111.522 45.0005 112.066 44.7759C112.61 44.5514 113.194 44.4381 113.783 44.4429L113.803 44.4027ZM85.3819 36.3572H81.4597V41.1443H79.3377V44.5837H81.4597V56.652H85.3517V44.5837H87.4737V41.1745H85.3517L85.3819 36.3572ZM75.7776 34.1346C75.108 34.1346 74.4653 34.3985 73.989 34.8692C73.5127 35.3398 73.2411 35.9793 73.2332 36.6489V36.7193C73.2332 37.4021 73.5044 38.0569 73.9873 38.5397C74.4701 39.0226 75.1249 39.2938 75.8078 39.2938C76.4906 39.2938 77.1454 39.0226 77.6283 38.5397C78.1111 38.0569 78.3823 37.4021 78.3823 36.7193C78.3877 36.3846 78.3264 36.0522 78.2021 35.7414C78.0778 35.4306 77.8929 35.1477 77.6582 34.909C77.1868 34.4252 76.5435 34.1469 75.8681 34.1346H75.7776ZM137.235 39.4346C137.032 39.4346 136.838 39.5151 136.695 39.6585C136.551 39.8018 136.471 39.9962 136.471 40.1989C136.471 40.4017 136.551 40.5961 136.695 40.7394C136.838 40.8827 137.032 40.9633 137.235 40.9633C137.335 40.9646 137.434 40.9461 137.527 40.9088C137.62 40.8715 137.704 40.8161 137.775 40.7459C137.846 40.6758 137.903 40.5922 137.941 40.5C137.98 40.4078 138 40.3089 137.999 40.209C138.003 40.1065 137.986 40.0043 137.948 39.909C137.909 39.8137 137.852 39.7275 137.778 39.6559C137.633 39.5138 137.438 39.4343 137.235 39.4346ZM137.235 40.8526C137.149 40.8526 137.064 40.8357 136.985 40.8029C136.906 40.77 136.834 40.7219 136.773 40.6612C136.712 40.6005 136.664 40.5284 136.631 40.4491C136.598 40.3698 136.581 40.2848 136.581 40.1989C136.581 40.1131 136.598 40.0281 136.631 39.9488C136.664 39.8695 136.712 39.7974 136.773 39.7367C136.834 39.676 136.906 39.6279 136.985 39.595C137.064 39.5622 137.149 39.5452 137.235 39.5452C137.327 39.5338 137.42 39.542 137.509 39.5693C137.598 39.5967 137.679 39.6426 137.749 39.7039C137.818 39.7652 137.874 39.8407 137.912 39.9251C137.95 40.0096 137.97 40.1012 137.97 40.1939C137.97 40.2866 137.95 40.3782 137.912 40.4627C137.874 40.5472 137.818 40.6226 137.749 40.6839C137.679 40.7453 137.598 40.7911 137.509 40.8185C137.42 40.8458 137.327 40.8541 137.235 40.8426V40.8526ZM137.517 40.038C137.517 39.8671 137.406 39.7866 137.225 39.7866H136.933V40.571H137.044V40.2593H137.215L137.406 40.571H137.517L137.316 40.2392C137.343 40.2393 137.369 40.2338 137.394 40.223C137.418 40.2121 137.44 40.1962 137.458 40.1763C137.476 40.1564 137.49 40.1328 137.498 40.1073C137.507 40.0817 137.51 40.0547 137.507 40.028L137.517 40.038ZM137.054 40.1788V39.8671H137.225C137.356 39.8671 137.416 39.8671 137.416 40.0079C137.416 40.1487 137.416 40.1487 137.225 40.1487L137.054 40.1788Z" fill="black"/>
</svg>
