<svg id="Layer_1" data-name="Layer 1" xmlns="http://www.w3.org/2000/svg" viewBox="0 0 170 100"><defs><style>.cls-1{fill:#676767;}</style></defs><g id="Page-1"><g id="eCommerce1"><g id="logoRingCentral"><path id="Path" class="cls-1" d="M84.44,51.5H82.52c-.09,0-.26-.13-.26-.21a1.68,1.68,0,0,0-1.09-1.78,2.69,2.69,0,0,0-2.7.36,2.94,2.94,0,0,0-.61.61,6.9,6.9,0,0,0-1.17,4.6c.12,1.35,1.18,1.75,2.36,1.68a2.68,2.68,0,0,0,2.48-1.88.54.54,0,0,1,.63-.38h3.6c.37,0,.39.09.28.39-1.16,3.32-4.21,5.27-8.12,5.14a7.24,7.24,0,0,1-3.47-.85A4.72,4.72,0,0,1,72,54.83a8.42,8.42,0,0,1,2.45-6.23,8.6,8.6,0,0,1,7.45-2.46,5.75,5.75,0,0,1,3.38,1.31,4.53,4.53,0,0,1,1.36,3.85c0,.07-.18.19-.29.2Z"/><path id="Shape" class="cls-1" d="M137.63,60h-1.92c-.23,0-.32-.06-.31-.28s0-.67,0-1c-.29.17-.59.35-.88.5a6.81,6.81,0,0,1-4.91.56A2.33,2.33,0,0,1,127.75,57a3.3,3.3,0,0,1,2.33-2.7,26.42,26.42,0,0,1,3.18-.67c.74-.15,1.5-.25,2.25-.39a1.31,1.31,0,0,0,.56-.29.65.65,0,0,0,.21-.57.61.61,0,0,0-.38-.46,2,2,0,0,0-2.53.67.44.44,0,0,1-.32.15h-3.56c-.33,0-.33-.14-.27-.36a3.48,3.48,0,0,1,1.88-2.27,8.29,8.29,0,0,1,3.63-.84,22.38,22.38,0,0,1,3.37.16c2,.28,2.75,1.34,2.44,3.19s-.65,3.64-1,5.46a1.43,1.43,0,0,0,.23,1.42c.24.26,0,.56-.34.56Zm-4.22-2.32a2.4,2.4,0,0,0,2.38-2.3s-.09-.11-.12-.11c-.84.22-1.77.42-2.63.7a1,1,0,0,0-.77,1.12c.07.38.49.6,1.17.6Z"/><path id="Path-2" data-name="Path" class="cls-1" d="M104.67,51.29c.49-.38.92-.75,1.4-1a5.05,5.05,0,0,1,4.35-.44,2.53,2.53,0,0,1,1.77,2.72,21.12,21.12,0,0,1-.38,2.86c-.25,1.47-.54,2.93-.8,4.4,0,.21-.11.28-.34.28H107c-.31,0-.33-.12-.29-.35.32-1.68.63-3.35.94-5,0-.15,0-.31.05-.46.06-.79-.16-1.28-.65-1.44a1.81,1.81,0,0,0-2.11.68,6,6,0,0,0-.53,1.49c-.31,1.55-.58,3.11-.84,4.66,0,.26-.14.38-.47.37H99.41c-.26,0-.32-.07-.27-.31Q100,55,100.9,50.16c0-.27.14-.37.43-.36h3.27c.25,0,.35,0,.28.31S104.74,50.87,104.67,51.29Z"/><path id="Shape-2" data-name="Shape" class="cls-1" d="M95.27,55.58H91.51c-.3,0-.37.09-.37.35a1.52,1.52,0,0,0,1,1.51,2.18,2.18,0,0,0,2.3-.52.76.76,0,0,1,.66-.27h3.28c.48,0,.48,0,.24.41a5.7,5.7,0,0,1-3.3,2.53,9.54,9.54,0,0,1-4.83.31,4.06,4.06,0,0,1-3.6-4.7c.53-4.68,5.59-6.9,9.6-5.59a4.27,4.27,0,0,1,3.06,4.21c0,.5-.09,1-.11,1.49,0,.26-.15.31-.39.31C97.81,55.57,96.55,55.58,95.27,55.58Zm-1.73-2.09h1.63c.27,0,.33-.11.32-.33a1.49,1.49,0,0,0-1.11-1.37,2.27,2.27,0,0,0-2.76,1.42c-.08.26,0,.28.24.28Z"/><path id="Path-3" data-name="Path" class="cls-1" d="M117.25,46.56h1.8c.3,0,.34.09.29.33-.17.85-.31,1.69-.49,2.53-.06.28,0,.3.28.3h1.39c.28,0,.36.07.31.33-.12.59-.23,1.18-.32,1.77,0,.21-.11.29-.34.28H118.7c-.24,0-.34.06-.38.28-.22,1.23-.46,2.45-.67,3.68-.13.73.1,1,.84,1,1,0,1,0,.78.95-.09.49-.21,1-.25,1.48s-.16.54-.59.52c-1.32,0-2.65,0-4-.11A1.4,1.4,0,0,1,113,58.24c.1-1.27.34-2.53.53-3.77.11-.71.25-1.41.4-2.12,0-.2,0-.26-.21-.25h-.66c-.64,0-.64,0-.54-.57s.18-1,.3-1.55a.42.42,0,0,1,.29-.24,8.68,8.68,0,0,1,1,0c.25,0,.33-.07.36-.29.15-.84.32-1.65.46-2.46,0-.29.13-.45.51-.42Z"/><path id="Path-4" data-name="Path" class="cls-1" d="M142.79,60h-1.88c-.25,0-.29-.06-.25-.28q1.26-6.75,2.53-13.49c.05-.25.15-.3.4-.3h3.64c.32,0,.35.11.3.36q-1.25,6.66-2.46,13.31c0,.28-.15.4-.49.39Z"/><path id="Path-5" data-name="Path" class="cls-1" d="M125.47,51.56a4.06,4.06,0,0,1,2.73-1.94,5.54,5.54,0,0,1,1.22,0c.07,0,.22.16.21.24-.21,1.19-.46,2.38-.67,3.57,0,.22-.1.28-.36.23a2.79,2.79,0,0,0-3.51,2c-.36,1.32-.56,2.69-.84,4,0,.28-.13.41-.47.4h-3.6c-.25,0-.35,0-.3-.31.61-3.21,1.19-6.42,1.77-9.63,0-.24.14-.32.39-.32h3.28c.29,0,.35.07.29.33-.11.47-.18,1-.27,1.44v.18Z"/><path id="Path-6" data-name="Path" class="cls-1" d="M44.89,46.92a2.67,2.67,0,0,0-1.69.47.56.56,0,0,1-.84,0c-.26-.3-.09-.57.19-.76a4.45,4.45,0,0,1,4.34-.24,3.14,3.14,0,0,1,1.5,1.21.41.41,0,0,1,.09.37.4.4,0,0,1-.22.3.5.5,0,0,1-.39.1.52.52,0,0,1-.33-.21A3.2,3.2,0,0,0,44.89,46.92Z"/><path id="Shape-3" data-name="Shape" class="cls-1" d="M149.81,49.43a1.87,1.87,0,0,1-1.36-.55,1.89,1.89,0,0,1-.57-1.35,2,2,0,0,1,4,.1,1.93,1.93,0,0,1-2,1.8Zm.07-3.37a1.56,1.56,0,0,0-1.62,1.46,1.59,1.59,0,0,0,3.18.07,1.56,1.56,0,0,0-1.57-1.51Z"/><path id="Path-7" data-name="Path" class="cls-1" d="M44.56,47.69a3,3,0,0,1,2.28.85c.21.23.36.49,0,.73s-.5,0-.71-.18a1.88,1.88,0,0,0-2.25-.32c-.26.17-.52.24-.72,0a.41.41,0,0,1,.23-.66C43.92,47.9,44.33,47.77,44.56,47.69Z"/><path id="Path-8" data-name="Path" class="cls-1" d="M44.76,51a1,1,0,0,1-1.13-.89,1.14,1.14,0,0,1,2.23,0,1,1,0,0,1-.37.67A1,1,0,0,1,44.76,51Z"/><path id="Shape-4" data-name="Shape" class="cls-1" d="M149.06,47.49a.61.61,0,0,1,0-.19,2,2,0,0,1,.11-.77,4.43,4.43,0,0,1,1.31.08.55.55,0,0,1,.26.52c-.15.35,0,.67,0,1,0,.12-.05.31-.13.33-.24.08-.39,0-.4-.28s0-.43-.29-.46-.41,0-.37.29a.77.77,0,0,1,0,.37c0,.07-.22.09-.32.07a.27.27,0,0,1-.16-.2C149.05,48,149.06,47.75,149.06,47.49Zm.84-.67-.34.32c.1.06.19.18.27.18a1.21,1.21,0,0,0,.38-.18Z"/><g id="Group-7"><path id="Shape-5" data-name="Shape" d="M37.9,53.47c1.69.71,2,1.34,1.77,3-.12.8-.27,1.59-.38,2.4,0,.26-.1.55.26.7.05,0,.08.23,0,.3a.44.44,0,0,1-.31.13H35.42c-.84,0-.91,0-.84-.84.05-.67.18-1.35.27-2a1,1,0,0,1,0-.35c.08-1.17-.33-1.59-1.58-1.68h-1.8c-.26,0-.37.05-.42.32-.25,1.41-.52,2.83-.77,4.21,0,.25-.13.34-.4.33H25.7c-.33,0-.33,0-.33-.3.57-2.86,1.1-5.73,1.61-8.6.28-1.57.58-3.14.84-4.7.05-.3.15-.43.5-.42,2.53,0,5,0,7.5,0a14.22,14.22,0,0,1,3.17.48,2.43,2.43,0,0,1,1.94,2.87,4.43,4.43,0,0,1-1.75,3.37A10.74,10.74,0,0,1,37.9,53.47Zm-4.72-1.41v.09a21.12,21.12,0,0,0,2.11-.36,1.3,1.3,0,0,0,.9-1.52A1.14,1.14,0,0,0,35,49.34c-.84-.05-1.69,0-2.58,0a.34.34,0,0,0-.24.18c-.15.76-.27,1.54-.42,2.3,0,.21,0,.28.25.27A11.38,11.38,0,0,1,33.18,52.06Z"/><path id="Shape-6" data-name="Shape" d="M66.34,58.36a12.37,12.37,0,0,1-2.19.84A4.13,4.13,0,0,1,60,58a3.79,3.79,0,0,1-.77-3.13A6.22,6.22,0,0,1,62.11,50a5.53,5.53,0,0,1,3-.79,3.5,3.5,0,0,1,2.78,1.34l.16.16a1.72,1.72,0,0,0,.07-.21c.19-1,.19-1,1.27-1h2.45c.16,0,.29,0,.23.22-.59,3.14-1.16,6.29-1.79,9.43-.48,2.38-2.08,3.67-4.61,3.95A12.22,12.22,0,0,1,61.26,63a3.71,3.71,0,0,1-2-1.12,2.42,2.42,0,0,1-.29-.42c-.48-1-.37-1.15.73-1.15h3c.21,0,.34,0,.42.24a.74.74,0,0,0,.42.38A1.87,1.87,0,0,0,66,60a11.47,11.47,0,0,0,.42-1.63v-.08Zm.84-4.5A1.41,1.41,0,0,0,66,52.17,1.81,1.81,0,0,0,64.1,53a3.76,3.76,0,0,0-.54,2.07,1.3,1.3,0,0,0,.35.94,1.26,1.26,0,0,0,.91.42,1.91,1.91,0,0,0,1.69-.68,3.25,3.25,0,0,0,.69-1.91Z"/><path id="Path-9" data-name="Path" d="M51.55,51.27c.53-.39,1-.76,1.45-1.06a5.06,5.06,0,0,1,4.34-.39A2.34,2.34,0,0,1,59,52.2a19.21,19.21,0,0,1-.34,3.12c-.22,1.46-.53,2.91-.78,4.37,0,.28-.14.38-.46.37H53.81c-.24,0-.32,0-.27-.3.34-1.74.65-3.48,1-5.23v-.19c.1-.79-.15-1.36-.65-1.52a1.84,1.84,0,0,0-2.11.67,3.84,3.84,0,0,0-.47,1.26c-.33,1.69-.63,3.31-.91,5,0,.26-.14.34-.42.34H46.34c-.33,0-.39-.08-.33-.38.56-3,1.11-6.07,1.68-9.1.15-.78.16-.77,1-.77h2.74c.31,0,.37.09.32.35S51.63,50.86,51.55,51.27Z"/><path id="Path-10" data-name="Path" d="M42.5,60H40.62c-.2,0-.25,0-.19-.23q1.16-3.93,2.32-7.86a.41.41,0,0,1,.32-.21h2.67a.33.33,0,0,1,.2.24c-.39,2.6-.79,5.21-1.17,7.81,0,.24-.14.26-.35.26Z"/></g></g></g></g></svg>