<svg width="377" height="76" viewBox="0 0 377 76" fill="none" xmlns="http://www.w3.org/2000/svg">
<path d="M51.5164 45.7C51.5164 55.3067 44.2564 59.1933 34.2097 59.1933C27.9764 59.1933 21.8164 57.4333 16.5364 54.1333L22.183 45.04C25.263 47.1667 30.543 49.22 34.4297 49.22C38.5364 49.22 39.8564 48.4867 39.8564 46.5067C39.8564 44.9667 38.3897 44.0133 32.743 42.6933C22.623 40.3467 17.783 37.6333 17.783 29.2C17.783 21.28 24.163 16 34.283 16C41.4697 16 46.603 17.76 51.003 20.84L45.4297 29.9333C41.6897 27.44 38.023 25.9733 33.7697 25.9733C30.323 25.9733 29.443 27.0733 29.443 28.54C29.443 30.0067 30.9097 30.8133 36.3364 32.06C46.823 34.6267 51.5164 37.8533 51.5164 45.7Z" fill="black"/>
<path d="M116.93 58.5332H104.536L97.7165 44.3799H94.4165V58.5332H83.6365V16.6599H99.6965C109.523 16.6599 116.05 20.3999 116.05 30.2999C116.05 36.6066 113.116 40.4932 108.496 42.5466L116.93 58.5332ZM105.93 30.5932C105.93 27.9532 104.463 26.1199 100.87 26.1199H94.4898V35.2866H100.65C104.39 35.2866 105.93 33.5999 105.93 30.5932Z" fill="black"/>
<path d="M140.543 58.5332H128.81L114.363 16.6599H126.756L140.543 58.5332ZM135.923 37.6332L142.67 16.6599H154.99L141.716 55.3066L135.923 37.6332Z" fill="black"/>
<path d="M206.25 48.4133C203.463 53.9133 198.77 59.2667 188.796 59.2667C176.33 59.2667 169.73 50.0267 169.73 37.6333C169.73 24.14 177.576 16 188.87 16C199.136 16 203.243 20.4 206.103 28.32L195.543 32.4267C194.076 28.54 192.61 26.12 188.796 26.12C183.956 26.12 181.83 30.96 181.83 37.6333C181.83 44.0133 183.883 49.1467 188.87 49.1467C192.536 49.1467 194.076 47.1667 196.35 43.2067L206.25 48.4133Z" fill="black"/>
<path d="M250.176 37.4132L250.396 58.5333H239.47V16.6599H250.103L260.516 39.1733L270.93 16.6599H281.49V58.5333H270.636L270.856 37.4132L260.516 59.9999L250.176 37.4132Z" fill="black"/>
<path d="M167.97 58.7533H156.017V16.6599H167.97V58.7533Z" fill="black"/>
<path d="M236.463 58.5333H208.01V16.5867H236.023L232.136 26.34H219.523V31.9133H231.916V41.5933H219.523V48.78H233.163L236.463 58.5333Z" fill="black"/>
<path d="M82.2429 58.5333H53.7896V16.5867H81.8029L77.2562 26.34H65.3029V31.9133H77.6962V41.5933H65.3029V48.78H77.6962L82.2429 58.5333Z" fill="black"/>
<path d="M320.576 16.6599H334.07L359.81 58.5332H346.536L320.576 16.6599ZM322.63 54.7199L332.236 39.9066L338.47 49.8066L333.263 58.5332H311.41L309.136 51.1999H296.596L294.323 58.5332H281.856L297.11 16.6599H308.843L322.63 54.7199ZM341.843 25.3866L347.49 16.6599H360.03L347.856 35.0666L341.843 25.3866ZM306.35 41.9599L305.543 39.1733C304.076 33.8199 303.416 31.5466 302.83 28.6866C302.316 31.4733 301.656 33.8199 300.116 39.1733L299.31 41.9599H306.35Z" fill="black"/>
</svg>
