<svg id="Layer_1" data-name="Layer 1" xmlns="http://www.w3.org/2000/svg" viewBox="0 0 170 100"><path d="M40,66.32l-.07,0a89,89,0,0,1-5.3-7.45,6.32,6.32,0,0,1-1.14-2.46c.25-.66,4.57-1,5.9-.42.4.18.39.42.39.55,0,.6,0,2.21,0,2.21a.6.6,0,0,0,.61.6.59.59,0,0,0,.59-.61v-4h0c0-.35-.38-.44-.45-.45H36.87c-3.35,0-4.09.14-4.66-.23C31,53.2,29,47.78,28.92,44.73a11.06,11.06,0,0,1,22-1.25v0c.11,1.33-7.24,1.62-8.7,1.23a.41.41,0,0,1-.28-.39c0-1,0-3.87,0-3.87a.6.6,0,0,0-.6-.6h0a.6.6,0,0,0-.6.6v5.26a.46.46,0,0,0,.37.44h4.56c2.43,0,3.46.28,4.14.8a1.81,1.81,0,0,1,.47,1.86C49,56.47,40.32,65.93,40,66.32ZM63.45,48.5c2.19.94,3.54,2,3.54,4.25s-1.76,3.83-4.49,3.83a5.2,5.2,0,0,1-4.87-2.74l-.14-.29,2.6-1.5.17.28a2.39,2.39,0,0,0,2.19,1.36c.81,0,1.36-.36,1.36-.9s-.39-.82-1.62-1.36l-.63-.27c-1.67-.71-3.21-1.7-3.21-4.09,0-2.15,1.65-3.65,4-3.65a4,4,0,0,1,3.85,2.17l.16.28-2.52,1.62-.17-.31c-.42-.76-.82-.91-1.32-.91s-.87.29-.87.74.25.75,1.34,1.22Zm18.4.44,1.83-5.12h3.15l-4.66,13h-.7l-2.83-6.07c-.14-.28-.27-.62-.39-.94-.12.32-.26.66-.39.94l-2.94,6.07h-.69l-4.75-13h3.37l1.85,5.12c.12.33.24.73.35,1.09a10.45,10.45,0,0,1,.43-1.12l2.44-5.19h.67l2.48,5.19A8.69,8.69,0,0,1,81.5,50C81.61,49.67,81.73,49.27,81.85,48.94Zm8.66,7.48V43.56h3.17V56.42ZM104.1,52.1V49.23H110V55l-.13.1A8.11,8.11,0,0,1,105,56.58c-4.09,0-6.94-2.71-6.94-6.59a6.34,6.34,0,0,1,6.55-6.57,5.84,5.84,0,0,1,4.68,1.8l.21.23-2.17,2.15-.24-.24a3,3,0,0,0-2.48-1A3.33,3.33,0,0,0,101.3,50,3.45,3.45,0,0,0,105,53.67a5.91,5.91,0,0,0,2.05-.33V52.1Zm16.11,0V49.23h5.9V55l-.12.1a8.14,8.14,0,0,1-4.89,1.49c-4.09,0-6.95-2.71-6.95-6.59a6.35,6.35,0,0,1,6.56-6.57,5.82,5.82,0,0,1,4.67,1.8l.21.23-2.16,2.15-.24-.24a3,3,0,0,0-2.48-1A3.33,3.33,0,0,0,117.4,50a3.46,3.46,0,0,0,3.7,3.68,6,6,0,0,0,2.05-.33V52.1Zm17.55-8.54h3.32l-4.56,8.56v4.3h-3.2V52.3l-4.85-8.74H132l2.25,4.1a16,16,0,0,1,.68,1.52,14.54,14.54,0,0,1,.66-1.52Z"/></svg>