<svg id="Layer_1" data-name="Layer 1" xmlns="http://www.w3.org/2000/svg" viewBox="0 0 170 100"><g id="Page-1"><g id="eCommerce1"><g id="logoTicketMaster"><g id="g10"><g id="g12"><path id="path14" d="M103.73,57.43c2.62,0,3.43-1.81,4-4h-1.23c-1.7,0-4.54.29-4.54,2.57,0,1,.89,1.42,1.79,1.42m3.43.18h0A5.18,5.18,0,0,1,102.76,60c-2.44,0-4.17-1.36-4.17-3.86,0-4.46,5-4.8,8.29-4.8h1.23a4.4,4.4,0,0,0,.1-1.15c0-1.36-1.47-1.76-2.7-1.76a10.45,10.45,0,0,0-4.43,1l.5-2.81a13.82,13.82,0,0,1,4.59-.81c2.7,0,5.24,1,5.24,4.17,0,1.81-1.33,7.11-1.65,9.66h-3l.36-2.08"/><path id="path16" d="M16,46.16h2.55l.6-2.78L23,42.15l-.87,4h3.15l-.55,2.57H21.55l-1.29,5.91A6.06,6.06,0,0,0,20.11,56a1.24,1.24,0,0,0,1.33,1.31A4.79,4.79,0,0,0,23.15,57l-.6,2.72a9.7,9.7,0,0,1-1.89.32c-2.39,0-4.07-1-4.07-3.55A14.42,14.42,0,0,1,17,53.3l1-4.57H15.49L16,46.16"/><path id="path18" d="M28,40.34h3.51l-.73,3.36H27.24L28,40.34Zm-1.29,5.82h3.52L27.32,59.67H23.81l2.88-13.51"/><path id="path20" d="M40.82,49.26a4.71,4.71,0,0,0-2.57-.68c-2.81,0-4.38,2.62-4.38,5.16,0,1.76.58,3.52,3,3.52a7,7,0,0,0,2.86-.68l-.39,2.78a7.63,7.63,0,0,1-3.39.63,5.45,5.45,0,0,1-5.74-5.83c0-4.72,3.12-8.31,8-8.31a12.81,12.81,0,0,1,3.52.52l-.87,2.89"/><polyline id="path22" points="44.68 40 48.19 40 45.86 51.07 45.91 51.07 50.82 46.16 55.38 46.16 48.9 52.33 52.97 59.67 49.01 59.67 45.52 52.51 45.46 52.51 43.94 59.67 40.51 59.67 44.68 40"/><path id="path24" d="M68.05,46.16h2.54l.61-2.78L75,42.15l-.87,4h3.15l-.55,2.57H73.56l-1.29,5.91A5.49,5.49,0,0,0,72.12,56a1.24,1.24,0,0,0,1.33,1.31A4.83,4.83,0,0,0,75.16,57l-.6,2.72a9.7,9.7,0,0,1-1.89.32c-2.39,0-4.07-1-4.07-3.55a14.42,14.42,0,0,1,.45-3.14l1-4.57H67.5l.55-2.57"/><path id="path26" d="M66.87,51c0-3.44-2.2-5.14-5.53-5.14-4.43,0-7.69,4-7.69,8.24,0,4,2.63,5.9,6.51,5.9a15,15,0,0,0,4.3-.76l.45-2.79a9.84,9.84,0,0,1-4.15,1c-2.25,0-3.56-.8-3.73-2.93h0c0-.12,0-.24,0-.37V54h0a7.2,7.2,0,0,1,.58-2.68c.67-1.72,1.63-2.91,3.7-2.91a2,2,0,0,1,2.23,2.26,5.59,5.59,0,0,1-.08.91H58.63A8.15,8.15,0,0,0,58.26,54h8.27a14.64,14.64,0,0,0,.34-3"/><path id="path28" d="M78.77,47.66c.11-.53.21-1.08.29-1.5h3.28L82,48h0a4.91,4.91,0,0,1,4.14-2.12c1.6,0,3.26.94,3.44,2.57h0a5.19,5.19,0,0,1,4.75-2.57,3.75,3.75,0,0,1,3.75,3.7,15.3,15.3,0,0,1-.6,3.67l-1.42,6.45H92.68l1.41-6.58a15.1,15.1,0,0,0,.45-2.89,1.59,1.59,0,0,0-1.65-1.62c-2.44,0-3,2.83-3.49,4.67L88,59.67H84.49l1.42-6.58a15.93,15.93,0,0,0,.45-2.89,1.6,1.6,0,0,0-1.66-1.62c-2.38,0-3,2.86-3.49,4.67l-1.39,6.42H76.31l2.46-12"/><path id="path30" d="M121.85,48.91a5.74,5.74,0,0,0-2.34-.49c-1.05,0-2.36.29-2.36,1.36,0,1.71,4.56,2.34,4.56,5.64,0,3.52-3.07,4.57-6.08,4.57a9.52,9.52,0,0,1-4.12-.82l.76-2.8a6.61,6.61,0,0,0,3.36,1.05c1.18,0,2.41-.4,2.41-1.5,0-2.18-4.56-2.39-4.56-5.77,0-3.17,3.07-4.3,5.85-4.3a14.37,14.37,0,0,1,3.29.42l-.77,2.64"/><path id="path32" d="M124.1,46.16h2.55l.6-2.78L131,42.15l-.86,4h3.15l-.55,2.57h-3.15l-1.29,5.91a6.06,6.06,0,0,0-.15,1.31,1.24,1.24,0,0,0,1.33,1.31,4.83,4.83,0,0,0,1.71-.31l-.6,2.72a9.7,9.7,0,0,1-1.89.32c-2.39,0-4.07-1-4.07-3.55a14.42,14.42,0,0,1,.45-3.14l1-4.57h-2.54l.55-2.57"/><path id="path34" d="M147.93,48c.11-.57.21-1.18.32-1.81h3.36l-.48,2.55h.06a4.85,4.85,0,0,1,4-2.86,5.4,5.4,0,0,1,1.34.13l-.73,3.44a4.27,4.27,0,0,0-1.34-.21c-2.5,0-3.7,2.23-4.15,4.4L149,59.67h-3.51L147.93,48"/><path id="path36" d="M145.49,51c0-3.44-2.2-5.14-5.53-5.14-4.43,0-7.69,4-7.69,8.24,0,4,2.62,5.9,6.51,5.9a15,15,0,0,0,4.3-.76l.45-2.79a9.87,9.87,0,0,1-4.15,1c-2.25,0-3.56-.8-3.73-2.93h0c0-.12,0-.24,0-.37V54h0a7.39,7.39,0,0,1,.57-2.68c.68-1.72,1.63-2.91,3.7-2.91a2,2,0,0,1,2.24,2.26,5.59,5.59,0,0,1-.08.91h-4.81a8.22,8.22,0,0,0-.38,2.42h8.28a14.64,14.64,0,0,0,.34-3"/></g></g></g></g></g></svg>