<svg id="Layer_1" data-name="Layer 1" xmlns="http://www.w3.org/2000/svg" viewBox="0 0 170 100"><g id="Page-1"><g id="Gaming1"><g id="unity"><path id="Shape" d="M64.79,31c.45,1.68.89,3.36,1.34,5L69,46.7a.55.55,0,0,1-.06.43c-.7,1.21-1.41,2.42-2.12,3.62a.48.48,0,0,0,0,.59c.72,1.2,1.43,2.41,2.13,3.62a.65.65,0,0,1,.07.43q-2.07,7.76-4.16,15.51a.3.3,0,0,1,0,.1h-.44l-.18-.07L49.06,66.87a.57.57,0,0,1-.34-.26c-.72-1.24-1.43-2.48-2.12-3.73a.37.37,0,0,0-.37-.21c-1.41,0-2.82,0-4.23,0a.7.7,0,0,1-.55-.22L30.23,51.27c-.07-.07-.15-.12-.23-.19v0l.19-.16L41.47,39.6a.55.55,0,0,1,.44-.21l4.29,0a.4.4,0,0,0,.41-.23c.69-1.24,1.39-2.47,2.1-3.7a.59.59,0,0,1,.36-.28l13.67-3.67c.65-.17,1.29-.37,1.94-.55ZM59,37l-.16,0L47.08,40a.92.92,0,0,0-.39.23q-4.21,4.27-8.41,8.56l-.21.24H51.76a.42.42,0,0,0,.43-.25Q55.54,43,58.9,37.24C58.94,37.17,59,37.09,59,37Zm0,28.13-.14-.27q-3.36-5.79-6.7-11.58a.45.45,0,0,0-.44-.27H38.06l.16.19,8.51,8.67a.74.74,0,0,0,.33.17l9.61,2.48Zm3.43-26.18c-.06.11-.1.16-.13.21Q59,45,55.57,50.85a.36.36,0,0,0,0,.42L62,62.4l.43.74c0-.1.06-.17.08-.24,1.08-3.87,2.17-7.75,3.24-11.63a.86.86,0,0,0,0-.45q-1.45-5.28-2.94-10.55C62.72,39.85,62.6,39.42,62.47,38.94Z"/><path id="Path" d="M140,43.08c-.15.35-.3.69-.43,1q-4,10.29-7.92,20.57a.41.41,0,0,1-.45.31c-1.24,0-2.48,0-3.76,0,0-.11.07-.2.11-.29.8-1.94,1.61-3.87,2.41-5.81a.61.61,0,0,0,0-.44q-2.91-7.53-5.83-15.07L124,43h3.79a.37.37,0,0,1,.41.29q1.85,5.1,3.7,10.19l.12.33c.06-.15.1-.23.13-.32l3.62-10.16c.09-.24.19-.34.46-.33,1.15,0,2.29,0,3.44,0l.33,0Z"/><path id="Path-2" data-name="Path" d="M87.15,43H91V59.45H87.38v-2h0l-.1.14a4.75,4.75,0,0,1-3,2.22,7.66,7.66,0,0,1-4.32-.17,5.28,5.28,0,0,1-3.51-4A9.48,9.48,0,0,1,76,53.4c0-3.42,0-6.83,0-10.25A1.15,1.15,0,0,1,76,43h3.85v.32c0,2.87,0,5.74,0,8.61a8.31,8.31,0,0,0,.19,1.79,3,3,0,0,0,3.08,2.55,5.53,5.53,0,0,0,1.41-.12A3.13,3.13,0,0,0,87,53.36a7.59,7.59,0,0,0,.11-1.43q0-4.27,0-8.56Z"/><path id="Path-3" data-name="Path" d="M93,42.53h3.61v2.11c.2-.28.35-.51.53-.73a5.12,5.12,0,0,1,3.65-1.86,7.63,7.63,0,0,1,3.54.4,5.47,5.47,0,0,1,3.37,4,10.7,10.7,0,0,1,.3,2.7v9.52c0,.09,0,.18,0,.3h-3.58c-.25,0-.3-.08-.3-.32,0-2.8,0-5.59,0-8.39a10.41,10.41,0,0,0-.17-1.93c-.41-2-1.8-2.76-3.66-2.65a4.26,4.26,0,0,0-1.17.23A3.12,3.12,0,0,0,97,48.49a9.4,9.4,0,0,0-.14,1.59c0,2.83,0,5.67,0,8.5V59H93Z"/><path id="Path-4" data-name="Path" d="M117.61,42.69V37h3.73v5.67c.43,0,.84,0,1.25,0A.37.37,0,0,1,123,43c.28.8.58,1.59.88,2.39,0,.09,0,.18.09.3h-2.66V59h-3.72V45.7l-.31,0h-2c-.2,0-.28,0-.28-.28,0-.89,0-1.79,0-2.72Z"/><polygon id="Path-5" data-name="Path" points="109 59 109 43 113 43 113 59 109 59"/><polygon id="Path-6" data-name="Path" points="113 38 113 41 109 41 109 38 113 38"/></g></g></g></svg>