<svg id="Layer_1" data-name="Layer 1" xmlns="http://www.w3.org/2000/svg" viewBox="0 0 170 100"><defs><style>.cls-1{fill:#231f20;}</style></defs><g id="Welcome"><g id="homepage"><g id="testmonals"><g id="customers"><g id="logoYelp"><path id="Shape" class="cls-1" d="M109.69,60.62a1.29,1.29,0,1,1-1.3,1.3,1.26,1.26,0,0,1,.38-.92A1.28,1.28,0,0,1,109.69,60.62Zm0,2.39a1.1,1.1,0,0,0,1.1-1.1,1.08,1.08,0,0,0-1.09-1.1,1.1,1.1,0,0,0-1.11,1.08,1.08,1.08,0,0,0,.3.78,1.14,1.14,0,0,0,.77.34Zm-.48-1.85h.55c.36,0,.53.13.53.43a.37.37,0,0,1-.1.28.4.4,0,0,1-.27.12l.43.66h-.24l-.42-.63h-.27v.64h-.21Zm.21.66h.27c.22,0,.4,0,.4-.24s-.17-.23-.34-.23h-.33Z"/><path id="Shape-2" data-name="Shape" d="M81.92,65.54a2.33,2.33,0,0,1-4.65,0V42.43a2.33,2.33,0,0,1,4.65,0Z"/><path id="Shape-3" data-name="Shape" d="M61.82,59.07H70.4a2.49,2.49,0,0,0,2.26-2.58v-.12c-.42-8.48-5.87-9.71-8.34-9.71s-8.39,1.53-8.39,10.94c0,3.53.8,10.33,8.26,10.33,6.45,0,7.85-3.72,7.85-4.68a2,2,0,0,0-.68-1.71,2,2,0,0,0-1.79-.41c-1.08.36-2.53,2.49-4.89,2.49a3.71,3.71,0,0,1-3.82-3.74C60.83,59.3,61.07,59.1,61.82,59.07Zm-1-4.14a3.68,3.68,0,1,1,7.34,0c0,.17-.09.27-.19.27H61.07c-.11,0-.21-.11-.2-.33Z"/><path id="Shape-4" data-name="Shape" d="M42.77,65,35.52,50.14A2.39,2.39,0,1,1,39.81,48l5.72,11.44L49,48.29a2.39,2.39,0,0,1,4.62,1.2v.22s-3.89,12.71-6.22,20c-.77,2.41-2.86,3.6-5.84,3.53s-3.63-1.76-3.36-3a2.34,2.34,0,0,1,2.49-1.67C43.46,68.67,43.79,67,42.77,65Z"/><path id="Shape-5" data-name="Shape" d="M104.87,56.3c0-3-.37-7.15-4.29-9a7.54,7.54,0,0,0-6.9.17,11.28,11.28,0,0,0-1.18.76,2.31,2.31,0,0,0-4.57.56V71.86a2.33,2.33,0,1,0,4.65,0V65.8a5.82,5.82,0,0,0,4,2C105.49,68,104.92,58.4,104.87,56.3Zm-4.62,1.77c0,1.83,0,5.14-3.33,5.14S93.59,60,93.59,58.07V56.39c0-1.83,0-5.14,3.33-5.14s3.33,3.29,3.33,5.14Z"/><path id="Shape-6" data-name="Shape" d="M112.18,45.15l8.11,4a1.86,1.86,0,0,1,1,1.87,1.84,1.84,0,0,1-1.4,1.6l-8.8,2.18a1.87,1.87,0,0,1-1.52-.29,1.82,1.82,0,0,1-.78-1.34,16,16,0,0,1,.7-6.94,1.86,1.86,0,0,1,2.36-1.14Z"/><path id="Shape-7" data-name="Shape" d="M115.41,61.83l6-6.7a1.86,1.86,0,0,1,3.23,1.3l-.31,9a1.87,1.87,0,0,1-1.92,1.79h-.24a16.25,16.25,0,0,1-6.46-2.62,1.86,1.86,0,0,1-.45-2.59Z"/><path id="Shape-8" data-name="Shape" d="M129.71,52.91l8.58,2.86a1.85,1.85,0,0,1,1.1,2.58,16.06,16.06,0,0,1-4.29,5.49,1.87,1.87,0,0,1-2.53-.3l-.14-.2-4.83-7.68a1.86,1.86,0,0,1,2.11-2.75Z"/><path id="Shape-9" data-name="Shape" d="M138.46,47.48l-8.66,2.46a1.87,1.87,0,0,1-2.06-.69,1.85,1.85,0,0,1,0-2.17l5-7.51a1.85,1.85,0,0,1,2.57-.5l.19.14a16.1,16.1,0,0,1,4.1,5.72,1.82,1.82,0,0,1,0,1.43,1.87,1.87,0,0,1-1,1Z"/><path id="Shape-10" data-name="Shape" d="M118.2,26.4A26.2,26.2,0,0,0,113.74,28a1.86,1.86,0,0,0-.84,2.49v.13l8.55,14.7a1.86,1.86,0,0,0,3.47-.93v-17a1.86,1.86,0,0,0-1.81-1.84h-.25A25.47,25.47,0,0,0,118.2,26.4Z"/></g></g></g></g></g></svg>