<svg width="24" height="24" viewBox="0 0 24 24" fill="none" xmlns="http://www.w3.org/2000/svg">
<path d="M5.97709 12.0004C5.98418 10.5884 6.45511 9.2179 7.3174 8.09981C8.1797 6.98171 9.38555 6.17799 10.7494 5.81236C12.1132 5.44673 13.5594 5.53945 14.8653 6.07624C16.1713 6.61304 17.2646 7.56416 17.9771 8.78322L22.7942 6.00036C22.5932 5.64672 22.3037 5.35137 21.9542 5.14322L13.5942 0.314649C13.2372 0.108519 12.8322 0 12.4199 0C12.0077 0 11.6027 0.108519 11.2457 0.314649L2.89138 5.14322C2.53376 5.34902 2.23668 5.6454 2.03003 6.00252C1.82338 6.35964 1.71446 6.7649 1.71423 7.17751V16.8232C1.71405 17.2433 1.82653 17.6557 2.03995 18.0175L6.85709 15.2346C6.28189 14.2538 5.97816 13.1375 5.97709 12.0004V12.0004Z" fill="#EA4D8D"/>
<path d="M15.1825 10.4064C14.7574 9.67591 14.0595 9.14422 13.2424 8.92828C12.4253 8.71235 11.5558 8.82986 10.8253 9.25496C10.0949 9.68007 9.56316 10.3779 9.34723 11.1951C9.13129 12.0122 9.2488 12.8816 9.67391 13.6121L12.4396 12.0007L15.1882 10.4121L15.1825 10.4064Z" fill="#EA4D8D"/>
<path d="M2.89122 18.8575L11.2512 23.6804C11.6083 23.8865 12.0132 23.995 12.4255 23.995C12.8378 23.995 13.2428 23.8865 13.5998 23.6804L21.9541 18.8575C22.3099 18.6517 22.6054 18.3562 22.8112 18.0004L17.9941 15.2175C17.4304 16.1948 16.6196 17.0067 15.6431 17.5717C14.6666 18.1368 13.5587 18.4351 12.4305 18.4369C11.3022 18.4386 10.1934 18.1437 9.21517 17.5816C8.23693 17.0196 7.42366 16.2102 6.85694 15.2347L2.03979 18.0175C2.24636 18.3663 2.53968 18.6557 2.89122 18.8575V18.8575Z" fill="#83023A"/>
<path d="M12.4228 15.1887C11.8631 15.1889 11.3131 15.0418 10.8282 14.7621C10.3433 14.4824 9.94064 14.08 9.6606 13.5953C9.38056 13.1106 9.23305 12.5607 9.23289 12.001C9.23274 11.4412 9.37996 10.8913 9.65974 10.4064C9.93951 9.92159 10.342 9.51895 10.8267 9.23899C11.3115 8.95902 11.8613 8.8116 12.4211 8.81154C12.9809 8.81148 13.5308 8.95878 14.0156 9.23864C14.5004 9.5185 14.903 9.92105 15.1828 10.4058L18 8.77725C17.2912 7.54952 16.197 6.58999 14.8873 6.04747C13.5775 5.50495 12.1254 5.40977 10.756 5.77669C9.38663 6.14361 8.17661 6.95212 7.31359 8.07683C6.45057 9.20154 5.98279 10.5796 5.98279 11.9973C5.98279 13.4149 6.45057 14.793 7.31359 15.9177C8.17661 17.0424 9.38663 17.8509 10.756 18.2178C12.1254 18.5847 13.5775 18.4896 14.8873 17.947C16.197 17.4045 17.2912 16.445 18 15.2173L15.1828 13.5887C14.9043 14.0747 14.5024 14.4785 14.0178 14.7594C13.5332 15.0404 12.983 15.1884 12.4228 15.1887Z" fill="white"/>
<path d="M9.67419 13.6114C9.95384 14.0943 10.3555 14.4951 10.8389 14.7738C11.3223 15.0525 11.8705 15.1991 12.4285 15.1991C12.9865 15.1991 13.5346 15.0525 14.018 14.7738C14.5015 14.4951 14.9031 14.0943 15.1828 13.6114L12.4399 12L9.67419 13.6114Z" fill="#83023A"/>
<path d="M22.8227 6.01746L18.0055 8.80031L15.1884 10.4289L12.4398 12.0003L15.177 13.5832L17.9941 15.2117L22.8112 17.9946C23.0177 17.6367 23.1261 17.2307 23.1255 16.8175V7.17746C23.1266 6.7711 23.0223 6.37141 22.8227 6.01746V6.01746Z" fill="#9C024D"/>
</svg>
