<svg width="24" height="24" viewBox="0 0 24 24" fill="none" xmlns="http://www.w3.org/2000/svg">
<path d="M14.7239 0C14.9721 0.273257 15.1547 0.599553 15.2577 0.954039C15.3608 1.30852 15.3816 1.68185 15.3185 2.04559C15.1695 2.94136 14.7765 3.77875 14.1828 4.46581C13.547 5.21348 12.8334 5.89125 12.0539 6.48761C11.5444 6.89198 11.1079 7.38073 10.7635 7.93261C10.5331 8.30058 10.4026 8.72227 10.3849 9.15607C10.3672 9.58987 10.4628 10.0208 10.6625 10.4063C10.9765 11.0054 11.3385 11.5781 11.7447 12.1189C11.8696 12.3033 11.9885 12.4995 12.1134 12.6838C12.1753 12.7854 12.2025 12.9044 12.1907 13.0228C12.1907 12.9871 12.0242 12.9395 11.9588 12.8741C11.0998 12.1039 10.3226 11.247 9.63966 10.3171C9.41052 10.0234 9.24599 9.68456 9.15684 9.32283C9.06769 8.96111 9.05592 8.58463 9.12231 8.21804C9.27582 7.70903 9.56094 7.24956 9.94887 6.88603C10.7098 6.14577 11.5204 5.45834 12.375 4.82854C12.9619 4.37368 13.4947 3.85293 13.9627 3.27651C14.3124 2.85194 14.5666 2.35714 14.7082 1.82566C14.8498 1.29419 14.8754 0.738482 14.7834 0.196234L14.7239 0Z" fill="#E1292B"/>
<path d="M11.0668 22.1387C12.7346 22.1637 14.4024 22.0922 16.0619 21.9246C17.0814 21.8688 18.0911 21.6952 19.0708 21.4073C19.4335 21.2765 19.826 21.1813 19.7784 20.6521C19.7784 20.5094 19.8973 20.5867 19.9449 20.6224C20.2244 20.8008 20.2066 21.1457 19.8973 21.3835C19.4741 21.6749 19.0002 21.8846 18.4999 22.0019C16.5316 22.5134 14.5095 22.7889 12.4761 22.8226C10.5882 22.8709 8.6991 22.7954 6.82103 22.5966C5.94883 22.5147 5.08147 22.3877 4.22242 22.216C4.0671 22.1803 3.91716 22.1243 3.77643 22.0495C3.35423 21.8414 3.31855 21.5797 3.6575 21.2467C3.89538 21.0336 4.17193 20.8681 4.47217 20.7591C5.18272 20.4228 5.95765 20.2443 6.74372 20.2358H6.94591C7.02321 20.2358 7.13619 20.2358 7.14214 20.331C7.14809 20.4261 7.01132 20.4261 6.93996 20.4321C6.4106 20.4843 5.89496 20.6314 5.41766 20.8662C5.30933 20.9172 5.20751 20.9811 5.11439 21.0565C4.97167 21.1754 4.96573 21.3003 5.15007 21.3954C5.39903 21.5209 5.66272 21.6148 5.935 21.6749C7.62316 22.019 9.34432 22.1746 11.0668 22.1387V22.1387Z" fill="#1A77BA"/>
<path d="M13.3981 13.677C13.4695 13.564 13.5468 13.4569 13.6122 13.338C13.7926 13.0691 13.8783 12.7477 13.8556 12.4246C13.833 12.1016 13.7034 11.7952 13.4873 11.5541C13.0157 11.0415 12.6606 10.4329 12.4467 9.77011C12.313 9.25683 12.335 8.71541 12.5097 8.21462C12.6844 7.71382 13.0039 7.27624 13.4278 6.95743C14.3018 6.20809 15.311 5.63283 16.4011 5.26268C16.6984 5.1497 16.9957 5.04266 17.3049 4.94752C17.3644 4.94752 17.4655 4.84643 17.5071 4.94752C17.5487 5.04861 17.4417 5.04266 17.3822 5.07834C16.9422 5.35188 16.4962 5.61947 16.0681 5.9049C15.4045 6.31845 14.8037 6.8251 14.2841 7.40936C14.1037 7.58846 13.9666 7.80635 13.8831 8.04645C13.7997 8.28654 13.7721 8.54252 13.8025 8.79489C13.8867 9.14499 14.0403 9.47461 14.2544 9.76417C14.4268 10.0318 14.6171 10.2875 14.8015 10.5491C15.0356 10.8531 15.1576 11.2286 15.1468 11.6122C15.136 11.9958 14.993 12.3639 14.742 12.6542C14.4355 13.1235 14.0026 13.4966 13.4932 13.7305C13.4736 13.7345 13.4531 13.7313 13.4357 13.7215C13.4182 13.7116 13.4048 13.6958 13.3981 13.677V13.677Z" fill="#E1292B"/>
<path d="M9.47923 13.1891L8.28994 13.5519C7.96089 13.6567 7.64235 13.7921 7.3385 13.9562C7.23146 14.0097 7.12443 14.0871 7.14227 14.2298C7.16011 14.3725 7.29093 14.3725 7.38607 14.4082C8.37913 14.7768 9.47329 14.539 10.4366 14.8006C10.6006 14.8487 10.773 14.8609 10.9421 14.8363C13.0531 14.4914 15.1046 14.4438 17.0907 14.0633C17.1502 14.0633 17.2453 14.0216 17.2691 14.0633C17.2929 14.1049 17.1978 14.1584 17.1502 14.1941C16.4236 14.6222 15.6114 14.8841 14.7716 14.9612C12.889 15.2264 10.9871 15.3298 9.08677 15.2704C8.08853 15.2411 7.09425 15.1318 6.11352 14.9433C5.89985 14.8999 5.69743 14.8128 5.51888 14.6876C5.28696 14.5211 5.27507 14.3665 5.51888 14.1881C5.83834 13.9668 6.18909 13.7944 6.55951 13.6767C7.41552 13.3418 8.31814 13.1413 9.23543 13.0821C9.28202 13.0751 9.32964 13.0815 9.37278 13.1004C9.41593 13.1194 9.45283 13.1501 9.47923 13.1891V13.1891ZM9.09271 18.5112C8.89648 18.8978 8.9381 19.0226 9.30679 19.1059C9.91612 19.2407 10.538 19.3104 11.1621 19.314C12.3035 19.3674 13.4469 19.2715 14.5635 19.0286C14.6744 18.9854 14.7975 18.9854 14.9084 19.0286L15.9371 19.54C15.9787 19.54 16.0501 19.6054 16.0501 19.6411C16.0501 19.6767 15.9728 19.7422 15.9133 19.7659C15.4575 19.9484 14.9883 20.0955 14.51 20.206C13.5259 20.4342 12.5168 20.5361 11.507 20.5093C10.5078 20.5061 9.51932 20.304 8.59915 19.9146C8.30778 19.7778 8.00451 19.6232 8.00451 19.2545C8.00451 18.8859 8.3494 18.7788 8.59915 18.6599C8.77755 18.6183 8.89053 18.5826 9.09271 18.5112V18.5112ZM10.9302 17.8393C10.0015 17.8423 9.07689 17.7162 8.1829 17.4647C7.93985 17.3972 7.71183 17.2842 7.51095 17.1317C7.45071 17.0943 7.401 17.0422 7.36653 16.9803C7.33206 16.9184 7.31397 16.8487 7.31397 16.7778C7.31397 16.707 7.33206 16.6373 7.36653 16.5754C7.401 16.5134 7.45071 16.4614 7.51095 16.424C7.78234 16.2099 8.08792 16.043 8.41481 15.9305C8.43154 15.9225 8.44982 15.9184 8.46833 15.9184C8.48684 15.9184 8.50512 15.9225 8.52185 15.9305C8.56942 15.984 8.52185 16.0197 8.48617 16.0613C8.28399 16.43 8.37319 16.6559 8.80133 16.7154C10.0117 16.8933 11.2371 16.9471 12.4584 16.876C13.4188 16.8252 14.3745 16.708 15.3187 16.5251C15.4078 16.4989 15.5025 16.4984 15.592 16.5237C15.6814 16.5489 15.7619 16.5989 15.8241 16.6678C15.8638 16.703 15.9077 16.733 15.955 16.757C16.1444 16.8491 16.3238 16.9607 16.4901 17.09C16.3001 17.2275 16.0758 17.3098 15.842 17.3279C14.232 17.7002 12.5823 17.872 10.9302 17.8393V17.8393ZM12.2562 23.9879C10.7912 24.0124 9.32672 23.909 7.87963 23.6787C7.54177 23.6119 7.20971 23.5184 6.88657 23.3992C6.83305 23.3992 6.72601 23.3992 6.74385 23.2982C6.76169 23.1971 6.85683 23.2506 6.9163 23.2625C7.66453 23.3824 8.41897 23.4598 9.17596 23.4944C11.1799 23.6609 13.1779 23.4944 15.1819 23.5895C15.3247 23.5972 15.4677 23.5791 15.6041 23.536C17.2097 23.0187 19.0352 23.0008 20.5873 22.1564C20.7121 22.0851 20.8251 21.9899 20.9559 21.9245C21.0868 21.8591 21.0927 21.7223 21.1879 21.7996C21.283 21.8769 21.1879 21.9661 21.1224 22.0494C20.8416 22.5401 20.3775 22.8994 19.8321 23.0484C18.3481 23.5595 16.7977 23.852 15.2295 23.9166C14.3197 23.9939 13.4039 23.9879 12.2562 23.9879V23.9879ZM19.1542 12.9037C19.5495 12.8316 19.9576 12.8951 20.3123 13.0839C20.667 13.2726 20.9476 13.5757 21.1087 13.9438C21.2697 14.312 21.3017 14.7237 21.1995 15.1124C21.0973 15.501 20.8669 15.8437 20.5456 16.0851C19.8673 16.7136 19.0535 17.1775 18.167 17.4409C17.9827 17.5063 17.7865 17.5539 17.5724 17.6133C17.5129 17.6133 17.4237 17.6906 17.394 17.6133C17.3643 17.536 17.4535 17.4825 17.5248 17.4468C17.8871 17.2553 18.2366 17.0408 18.5714 16.8046C19.082 16.4677 19.5189 16.0307 19.8558 15.5202C20.0512 15.2594 20.1498 14.9387 20.1346 14.6132C20.1194 14.2877 19.9914 13.9777 19.7726 13.7362C19.5974 13.5341 19.3696 13.3844 19.1146 13.3036C18.8596 13.2228 18.5873 13.214 18.3276 13.2783C18.2027 13.2783 18.066 13.3854 17.9351 13.2783C18.0233 13.162 18.1462 13.0766 18.286 13.0345C18.5628 12.9299 18.8588 12.8853 19.1542 12.9037V12.9037Z" fill="#1A77BA"/>
</svg>
