<svg width="24" height="24" viewBox="0 0 24 24" fill="none" xmlns="http://www.w3.org/2000/svg">
<g clip-path="url(#clip0_13543_1207)">
<path d="M0 12C0 5.37257 5.37257 0 12 0C18.6274 0 24 5.37257 24 12C24 18.6274 18.6274 24 12 24C5.37257 24 0 18.6274 0 12Z" fill="#F0DB4F"/>
<path d="M19.6758 15.6583C19.5703 14.9889 19.1443 14.4266 17.8809 13.9038C17.4421 13.6963 16.9535 13.5489 16.8078 13.2086C16.7546 13.0115 16.7495 12.8992 16.7829 12.7783C16.8763 12.3901 17.3306 12.2675 17.6906 12.3798C17.9229 12.4603 18.1406 12.6429 18.2735 12.9335C18.8923 12.5229 18.8915 12.5255 19.3226 12.2443C19.1641 11.9932 19.0809 11.8775 18.9789 11.7686C18.6052 11.3435 18.1003 11.1258 17.2886 11.1429L16.8669 11.1986C16.4615 11.3032 16.0766 11.5201 15.8503 11.8106C15.1715 12.6001 15.3652 13.9783 16.1898 14.5441C17.0032 15.1689 18.1972 15.3121 18.3506 15.8949C18.4989 16.6106 17.8363 16.8421 17.1798 16.7606C16.6955 16.6569 16.4246 16.4041 16.1323 15.9455C15.5966 16.2635 15.5966 16.2635 15.0438 16.5883C15.1741 16.8815 15.3121 17.0135 15.5306 17.2681C16.5686 18.3463 19.1649 18.2923 19.6321 16.662C19.6509 16.6072 19.7761 16.2335 19.6758 15.6583ZM14.3083 11.2303H12.9686L12.9626 14.778C12.9626 15.5315 13.0003 16.2232 12.8803 16.4358C12.6841 16.8523 12.1766 16.8018 11.9443 16.7203C11.7095 16.6012 11.5895 16.4323 11.4498 16.1958C11.4121 16.1272 11.3829 16.0723 11.3735 16.0706L10.2858 16.7512C10.4666 17.1309 10.7341 17.4618 11.0761 17.6769C11.5869 17.9898 12.2726 18.0875 12.9909 17.9178C13.4581 17.7789 13.8618 17.4892 14.0726 17.0503C14.3769 16.4743 14.3118 15.7783 14.3083 15.0052C14.3152 13.7495 14.3083 12.4921 14.3083 11.2303V11.2303Z" fill="#A17F05"/>
</g>
<defs>
<clipPath id="clip0_13543_1207">
<rect width="24" height="24" fill="white"/>
</clipPath>
</defs>
</svg>
