<svg width="24" height="24" viewBox="0 0 24 24" fill="none" xmlns="http://www.w3.org/2000/svg">
<g clip-path="url(#clip0_13454_2588)">
<path d="M18.4274 6V8.55943C18.4274 10.544 16.7197 12.2135 14.7713 12.2135H8.926C7.32519 12.2135 6 13.5647 6 15.1431V20.6309C6 22.1936 7.37919 23.1116 8.926 23.5605C10.7777 24.0971 12.5551 24.1939 14.7713 23.5605C16.2449 23.1409 17.6973 22.2948 17.6973 20.6309V18.4338H11.852V17.7025H20.6244C22.3253 17.7025 22.9598 16.5336 23.5515 14.7797C24.1624 12.9751 24.1365 11.2381 23.5515 8.92169C23.1308 7.2544 22.3276 6 20.6244 6H18.4274ZM15.1402 19.8997C15.7477 19.8997 16.2393 20.3891 16.2393 20.9943C16.2395 21.1388 16.2112 21.2819 16.156 21.4155C16.1008 21.549 16.0199 21.6704 15.9179 21.7727C15.8158 21.8749 15.6946 21.9561 15.5612 22.0115C15.4278 22.067 15.2847 22.0956 15.1402 22.0957C14.8487 22.0948 14.5695 21.9784 14.3637 21.7719C14.1579 21.5655 14.0423 21.2858 14.0423 20.9943C14.0424 20.8503 14.071 20.7078 14.1262 20.5748C14.1815 20.4418 14.2624 20.3211 14.3644 20.2194C14.4664 20.1178 14.5874 20.0372 14.7205 19.9823C14.8536 19.9275 14.9963 19.8994 15.1402 19.8997Z" fill="#FFD43B"/>
<path d="M12.0124 0.000290149C11.0089 0.00479008 10.0526 0.0902887 9.20991 0.237661C6.7269 0.671904 6.27688 1.57976 6.27688 3.25711V5.47108H12.1418V6.20907H4.07627C2.37181 6.20907 0.879983 7.2238 0.413084 9.15427C-0.125818 11.366 -0.149444 12.7463 0.413084 15.057C0.82823 16.7749 1.82503 18 3.52949 18H5.5456V15.3462C5.5456 13.4303 7.21968 11.7384 9.20878 11.7384H15.067C15.4534 11.7375 15.8359 11.6604 16.1925 11.5116C16.5491 11.3628 16.8729 11.1451 17.1453 10.871C17.4177 10.5969 17.6334 10.2719 17.7801 9.91435C17.9267 9.55684 18.0015 9.17393 18 8.78752V3.25711C18 1.68326 16.66 0.500907 15.0681 0.237661C14.0579 0.0739489 13.0358 -0.00544855 12.0124 0.000290149ZM8.83976 1.78114C9.44504 1.78114 9.94119 2.2795 9.94119 2.89149C9.94119 3.18344 9.82521 3.46343 9.61876 3.66987C9.4123 3.87631 9.13229 3.99229 8.84033 3.99229C8.54836 3.99229 8.26835 3.87631 8.06189 3.66987C7.85544 3.46343 7.73946 3.18344 7.73946 2.89149C7.73946 2.27838 8.23223 1.78114 8.83976 1.78114Z" fill="#5A9FD4"/>
</g>
<defs>
<clipPath id="clip0_13454_2588">
<rect width="24" height="24" fill="white"/>
</clipPath>
</defs>
</svg>
