<svg width="24" height="24" viewBox="0 0 24 24" fill="none" xmlns="http://www.w3.org/2000/svg">
<path d="M18.1097 20.8166C15.2824 22.3769 11.3964 22.5372 7.4846 20.9364C4.43444 19.6982 1.82679 17.5719 0 14.8334C0.850115 15.4846 1.77903 16.0259 2.76472 16.4445C6.80372 18.2511 10.8398 18.1268 13.6824 16.4445C9.93098 13.5509 6.55623 10.1993 3.63679 6.46794C3.13156 5.9356 2.68056 5.3543 2.29046 4.73263C5.35708 7.34095 8.62293 9.70552 12.0582 11.8047C9.55819 9.24327 7.26084 6.49161 5.1868 3.57454C8.63433 6.92493 12.4279 9.89972 16.5038 12.4489C16.6522 12.5261 16.7965 12.611 16.9361 12.7033C17.0557 12.4116 17.1585 12.1133 17.2442 11.8099C18.1883 8.52972 17.1097 4.80102 14.753 1.71423C20.2097 4.86205 23.4538 10.7768 22.095 15.729C22.0597 15.8636 22.0215 15.9834 21.9803 16.1231L22.0288 16.179C24.7237 19.393 23.9832 22.7967 23.6465 22.1599C22.1818 19.4165 19.4766 20.2643 18.1097 20.8166Z" fill="#F05138"/>
</svg>
