<svg width="24" height="24" viewBox="0 0 24 24" fill="none" xmlns="http://www.w3.org/2000/svg">
<g clip-path="url(#clip0_13454_2586)">
<path d="M12 0C18.6231 0 24 5.37686 24 12C24 18.6231 18.6231 24 12 24C5.37686 24 0 18.6231 0 12C0 5.37686 5.37686 0 12 0Z" fill="#171717"/>
<path d="M16.254 16.6492L13.4889 11.9949L16.254 7.33634L17.5912 11.9949L16.254 16.6492ZM10.074 16.2026L6.60345 12.7689H12.1414L14.91 17.4275L10.074 16.2026ZM10.074 7.78291L14.9066 6.58034L12.138 11.2346H6.60345L10.074 7.78291ZM17.1694 4.28577L10.8677 5.9272L9.93345 7.52405H8.04002L3.42859 11.9949L8.04002 16.4761H9.93345L10.8677 18.0729L17.1694 19.7143L18.8572 13.5806L17.8972 11.9949L18.8572 10.4083L17.1694 4.28577Z" fill="white"/>
</g>
<defs>
<clipPath id="clip0_13454_2586">
<rect width="24" height="24" fill="white"/>
</clipPath>
</defs>
</svg>
