<svg width="24" height="24" viewBox="0 0 24 24" fill="none" xmlns="http://www.w3.org/2000/svg">
<path fill-rule="evenodd" clip-rule="evenodd" d="M12 24C18.6274 24 24 18.6274 24 12C24 5.37263 18.6274 0 12 0C5.37263 0 0 5.37263 0 12C0 18.6274 5.37263 24 12 24ZM15.0694 18.6714C18.0038 17.2854 18.9236 14.7259 19.1306 13.7288C18.0578 14.8275 16.8707 15.9413 16.0723 15.1703C16.0723 15.1703 16.0286 11.0556 16.0286 9.36844C16.0286 7.09969 18.1802 5.40881 18.1802 5.40881C16.9969 5.61956 15.576 6.04087 14.0678 7.521C13.9316 7.656 13.8026 7.79775 13.6811 7.94606C13.0348 7.45125 12.1973 7.59956 12.1973 7.59956C12.6499 7.84819 13.1016 8.57231 13.1016 9.17175V15.0641C13.1016 15.0641 12.1148 15.9323 11.3542 15.9323C11.1829 15.9336 11.0136 15.8938 10.8606 15.8164C10.7076 15.7389 10.5754 15.6261 10.4751 15.4871C10.4149 15.4086 10.365 15.3225 10.3268 15.2312V7.95131C10.1019 8.13675 9.34219 8.28956 9.34219 7.02844C9.34219 6.24488 9.90675 5.31094 10.9121 4.73813C9.53156 4.94869 8.23856 5.54513 7.18238 6.45863C6.37988 7.152 5.73806 8.01206 5.30156 8.97863C4.86506 9.94519 4.64419 10.9952 4.6545 12.0559C4.6545 12.0559 5.38969 9.75881 6.3105 9.54656C6.44456 9.51131 6.58519 9.50775 6.72094 9.53644C6.85669 9.56513 6.98381 9.62494 7.09238 9.71156C7.20094 9.798 7.28756 9.90863 7.34569 10.0346C7.40381 10.1606 7.43175 10.2984 7.42706 10.437V15.8306C7.42706 16.3774 7.07456 16.4968 6.74888 16.491C6.52819 16.4754 6.31013 16.4344 6.099 16.3686C6.77138 17.2785 7.64513 18.0208 8.65181 18.5372C9.6585 19.0536 10.7711 19.3301 11.9025 19.3453L13.8909 17.3466L15.0694 18.6714Z" fill="#171717"/>
</svg>
