<svg width="704" height="198" viewBox="0 0 704 198" fill="none" xmlns="http://www.w3.org/2000/svg">
<g clip-path="url(#clip0_2286_13174)">
<g filter="url(#filter0_f_2286_13174)">
<ellipse cx="363.5" cy="258" rx="328.5" ry="161" fill="url(#paint0_linear_2286_13174)"/>
</g>
<g filter="url(#filter1_d_2286_13174)">
<rect x="156.337" y="40.7588" width="426.109" height="289.988" rx="4.69617" fill="#001143"/>
<rect x="156.337" y="40.7588" width="426.109" height="289.988" rx="4.69617" stroke="#475569" stroke-width="0.587021"/>
<path d="M175.987 69.6733L175.296 67.87H170.844L170.154 69.6733H168.351L172.042 60.2763H174.099L177.79 69.6733H175.987ZM173.07 61.6711L171.309 66.4189H174.832L173.07 61.6711ZM180.147 69.6733L177.372 62.8686H178.95L180.936 67.9686L182.923 62.8686H184.515L181.739 69.6733H180.147ZM185.218 71.4203L185.909 70.3496C186.458 70.9836 187.162 71.2231 188.064 71.2231C189.036 71.2231 190.079 70.7722 190.079 69.3775V68.5603C189.558 69.2366 188.783 69.6874 187.895 69.6874C186.162 69.6874 184.88 68.4336 184.88 66.1935C184.88 63.9957 186.148 62.6995 187.895 62.6995C188.754 62.6995 189.529 63.094 190.079 63.8125V62.8686H191.558V69.3211C191.558 71.7725 189.741 72.4347 188.064 72.4347C186.909 72.4347 186.049 72.1811 185.218 71.4203ZM190.079 67.4614V64.9255C189.755 64.4183 189.022 64.0098 188.332 64.0098C187.162 64.0098 186.416 64.8833 186.416 66.1935C186.416 67.5037 187.162 68.3772 188.332 68.3772C189.022 68.3772 189.755 67.9686 190.079 67.4614ZM196.854 65.9681V60.2763H198.517V65.9117C198.517 67.4051 199.348 68.3772 200.926 68.3772C202.49 68.3772 203.321 67.4051 203.321 65.9117V60.2763H204.983V65.954C204.983 68.2927 203.645 69.8424 200.926 69.8424C198.193 69.8424 196.854 68.2786 196.854 65.9681ZM206.205 68.7858L206.882 67.715C207.361 68.2081 208.305 68.6731 209.192 68.6731C210.08 68.6731 210.531 68.349 210.531 67.8418C210.531 67.2501 209.812 67.0388 208.981 66.8556C207.811 66.602 206.417 66.2921 206.417 64.7705C206.417 63.6576 207.375 62.6995 209.094 62.6995C210.249 62.6995 211.122 63.1081 211.742 63.6576L211.122 64.7001C210.714 64.2352 209.953 63.883 209.108 63.883C208.333 63.883 207.84 64.1647 207.84 64.6437C207.84 65.165 208.516 65.3482 209.319 65.5313C210.502 65.7849 211.953 66.123 211.953 67.7291C211.953 68.9266 210.953 69.8424 209.122 69.8424C207.966 69.8424 206.91 69.4761 206.205 68.7858ZM212.879 66.2639C212.879 64.2915 214.316 62.6995 216.33 62.6995C218.373 62.6995 219.684 64.2634 219.684 66.4048V66.757H214.429C214.541 67.7855 215.316 68.6308 216.598 68.6308C217.26 68.6308 218.049 68.3631 218.528 67.8841L219.205 68.8562C218.528 69.5043 217.528 69.8424 216.443 69.8424C214.4 69.8424 212.879 68.4195 212.879 66.2639ZM216.33 63.9111C215.063 63.9111 214.485 64.8833 214.414 65.7145H218.247C218.218 64.9114 217.669 63.9111 216.33 63.9111ZM221.003 69.6733V62.8686H222.482V63.8689C222.989 63.2208 223.806 62.7136 224.694 62.7136V64.1788C224.567 64.1506 224.412 64.1366 224.229 64.1366C223.609 64.1366 222.778 64.5592 222.482 65.0382V69.6733H221.003ZM229.266 69.6733V60.2763H232.76C235.69 60.2763 237.677 62.2205 237.677 64.9819C237.677 67.7432 235.69 69.6733 232.76 69.6733H229.266ZM230.914 68.2222H232.76C234.803 68.2222 235.986 66.757 235.986 64.9819C235.986 63.1645 234.859 61.7274 232.76 61.7274H230.914V68.2222ZM243.678 69.6733V68.7717C243.185 69.3211 242.34 69.8424 241.269 69.8424C239.804 69.8424 239.085 69.0816 239.085 67.6869V62.8686H240.564V67.1515C240.564 68.2081 241.1 68.5322 241.931 68.5322C242.678 68.5322 243.326 68.1095 243.678 67.6446V62.8686H245.157V69.6733H243.678ZM246.938 69.6733V62.8686H248.417V63.8689C248.924 63.2208 249.741 62.7136 250.629 62.7136V64.1788C250.502 64.1506 250.347 64.1366 250.164 64.1366C249.544 64.1366 248.713 64.5592 248.417 65.0382V69.6733H246.938ZM255.837 69.6733V68.9407C255.33 69.5184 254.541 69.8424 253.639 69.8424C252.526 69.8424 251.272 69.0957 251.272 67.5882C251.272 66.0244 252.526 65.3763 253.639 65.3763C254.555 65.3763 255.344 65.6722 255.837 66.2498V65.2355C255.837 64.4465 255.189 63.9675 254.245 63.9675C253.484 63.9675 252.822 64.2493 252.231 64.8269L251.625 63.7984C252.414 63.0517 253.4 62.6995 254.485 62.6995C255.992 62.6995 257.316 63.3335 257.316 65.165V69.6733H255.837ZM255.837 68.1236V67.0951C255.499 66.6302 254.865 66.3907 254.217 66.3907C253.386 66.3907 252.766 66.8697 252.766 67.6164C252.766 68.349 253.386 68.828 254.217 68.828C254.865 68.828 255.499 68.5885 255.837 68.1236ZM261.136 69.8424C259.995 69.8424 259.389 69.2225 259.389 68.0954V64.1647H258.262V62.8686H259.389V61.0089H260.869V62.8686H262.249V64.1647H260.869V67.7291C260.869 68.194 261.094 68.5322 261.517 68.5322C261.798 68.5322 262.066 68.4195 262.179 68.2927L262.531 69.4057C262.263 69.6593 261.827 69.8424 261.136 69.8424ZM264.184 61.7415C263.691 61.7415 263.268 61.3329 263.268 60.8258C263.268 60.3186 263.691 59.91 264.184 59.91C264.691 59.91 265.1 60.3186 265.1 60.8258C265.1 61.3329 264.691 61.7415 264.184 61.7415ZM263.452 69.6733V62.8686H264.931V69.6733H263.452ZM269.78 69.8424C267.625 69.8424 266.286 68.2222 266.286 66.2639C266.286 64.3197 267.625 62.6995 269.78 62.6995C271.964 62.6995 273.288 64.3197 273.288 66.2639C273.288 68.2222 271.964 69.8424 269.78 69.8424ZM269.78 68.5322C271.048 68.5322 271.753 67.4755 271.753 66.2639C271.753 65.0664 271.048 64.0098 269.78 64.0098C268.526 64.0098 267.822 65.0664 267.822 66.2639C267.822 67.4755 268.526 68.5322 269.78 68.5322ZM279.237 69.6733V65.4186C279.237 64.362 278.702 64.0098 277.87 64.0098C277.11 64.0098 276.462 64.4606 276.124 64.9255V69.6733H274.644V62.8686H276.124V63.7984C276.574 63.2631 277.448 62.6995 278.519 62.6995C279.984 62.6995 280.716 63.4885 280.716 64.8833V69.6733H279.237ZM286.017 69.6733V60.2763H290.638C292.357 60.2763 293.315 61.347 293.315 62.6714C293.315 63.8548 292.554 64.6437 291.68 64.8269C292.681 64.9819 293.498 65.9822 293.498 67.1374C293.498 68.5885 292.526 69.6733 290.765 69.6733H286.017ZM287.665 64.1647H290.3C291.145 64.1647 291.624 63.6576 291.624 62.9531C291.624 62.2487 291.145 61.7274 290.3 61.7274H287.665V64.1647ZM287.665 68.2222H290.37C291.272 68.2222 291.807 67.7291 291.807 66.912C291.807 66.2076 291.314 65.6159 290.37 65.6159H287.665V68.2222ZM294.899 71.0117C295.054 71.0822 295.293 71.1245 295.462 71.1245C295.927 71.1245 296.237 70.9836 296.434 70.5327L296.772 69.7579L293.983 62.8686H295.561L297.547 67.9686L299.534 62.8686H301.126L297.843 70.899C297.378 72.0543 296.561 72.4206 295.504 72.4347C295.293 72.4347 294.885 72.3924 294.673 72.3361L294.899 71.0117ZM307.434 69.8424C306.293 69.8424 305.687 69.2225 305.687 68.0954V64.1647H304.56V62.8686H305.687V61.0089H307.166V62.8686H308.547V64.1647H307.166V67.7291C307.166 68.194 307.392 68.5322 307.814 68.5322C308.096 68.5322 308.364 68.4195 308.477 68.2927L308.829 69.4057C308.561 69.6593 308.124 69.8424 307.434 69.8424ZM314.356 69.6733V65.3904C314.356 64.3338 313.807 64.0098 312.976 64.0098C312.229 64.0098 311.581 64.4606 311.229 64.9255V69.6733H309.749V60.2763H311.229V63.7984C311.679 63.2631 312.567 62.6995 313.638 62.6995C315.103 62.6995 315.836 63.4603 315.836 64.8551V69.6733H314.356ZM317.193 66.2639C317.193 64.2915 318.63 62.6995 320.645 62.6995C322.688 62.6995 323.998 64.2634 323.998 66.4048V66.757H318.743C318.856 67.7855 319.63 68.6308 320.912 68.6308C321.575 68.6308 322.364 68.3631 322.843 67.8841L323.519 68.8562C322.843 69.5043 321.842 69.8424 320.758 69.8424C318.715 69.8424 317.193 68.4195 317.193 66.2639ZM320.645 63.9111C319.377 63.9111 318.799 64.8833 318.729 65.7145H322.561C322.533 64.9114 321.983 63.9111 320.645 63.9111ZM335.374 69.6733V65.5736H330.485V69.6733H328.837V60.2763H330.485V64.1225H335.374V60.2763H337.022V69.6733H335.374ZM341.906 69.8424C339.751 69.8424 338.412 68.2222 338.412 66.2639C338.412 64.3197 339.751 62.6995 341.906 62.6995C344.09 62.6995 345.414 64.3197 345.414 66.2639C345.414 68.2222 344.09 69.8424 341.906 69.8424ZM341.906 68.5322C343.174 68.5322 343.879 67.4755 343.879 66.2639C343.879 65.0664 343.174 64.0098 341.906 64.0098C340.652 64.0098 339.948 65.0664 339.948 66.2639C339.948 67.4755 340.652 68.5322 341.906 68.5322ZM351.363 69.6733V68.7717C350.87 69.3211 350.025 69.8424 348.954 69.8424C347.489 69.8424 346.77 69.0816 346.77 67.6869V62.8686H348.249V67.1515C348.249 68.2081 348.785 68.5322 349.616 68.5322C350.363 68.5322 351.011 68.1095 351.363 67.6446V62.8686H352.842V69.6733H351.363ZM354.623 69.6733V62.8686H356.102V63.8689C356.609 63.2208 357.426 62.7136 358.314 62.7136V64.1788C358.187 64.1506 358.032 64.1366 357.849 64.1366C357.229 64.1366 356.398 64.5592 356.102 65.0382V69.6733H354.623Z" fill="#E2E8F0"/>
<g filter="url(#filter2_d_2286_13174)">
<rect x="544.617" y="52.7588" width="25.8289" height="25.8289" rx="3.52212" fill="#001143"/>
<rect x="544.911" y="53.0523" width="25.2419" height="25.2419" rx="3.22861" stroke="#E2E8F0" stroke-width="0.587021"/>
<path d="M561.054 67.4343V69.1953H554.009V67.4343H552.835V69.1953C552.835 69.8411 553.364 70.3694 554.009 70.3694H561.054C561.699 70.3694 562.228 69.8411 562.228 69.1953V67.4343H561.054ZM560.467 65.0862L559.639 64.2585L558.118 65.773V60.9771H556.944V65.773L555.424 64.2585L554.596 65.0862L557.531 68.0213L560.467 65.0862Z" fill="#F1F5F9"/>
</g>
<rect x="168.63" y="90.8812" width="401.522" height="221.307" rx="4.40266" fill="#001143"/>
<rect x="168.63" y="90.8812" width="401.522" height="221.307" rx="4.40266" stroke="#475569" stroke-width="0.587021"/>
<rect x="274.588" y="99.98" width="281.77" height="16.4366" rx="2.34808" fill="#001143"/>
<rect x="482.921" y="103.208" width="7.63127" height="7.63127" rx="1.76106" fill="#9A1A1E"/>
<path d="M499.233 109.024H498.564L498.148 107.982H495.809L495.394 109.024H494.725L496.613 104.326H497.338L499.233 109.024ZM497.972 107.46L496.979 104.931L495.979 107.46H497.972ZM501.175 109.024H500.597L499.181 105.622H499.752L500.886 108.411L502.013 105.622H502.591L501.175 109.024ZM504.508 110.405C503.931 110.405 503.536 110.292 503.135 109.898L503.403 109.503C503.684 109.841 504.022 109.968 504.508 109.968C505.072 109.968 505.6 109.693 505.6 108.947V108.461C505.354 108.806 504.938 109.066 504.459 109.066C503.572 109.066 502.945 108.404 502.945 107.305C502.945 106.214 503.565 105.537 504.459 105.537C504.917 105.537 505.326 105.763 505.6 106.136V105.622H506.129V108.926C506.129 110.053 505.34 110.405 504.508 110.405ZM504.586 108.602C505.009 108.602 505.417 108.341 505.6 108.045V106.559C505.417 106.263 505.009 106.009 504.586 106.009C503.903 106.009 503.494 106.552 503.494 107.305C503.494 108.052 503.903 108.602 504.586 108.602ZM510.94 109.109C509.665 109.109 509.024 108.355 509.024 107.2V104.326H509.609V107.186C509.609 108.045 510.074 108.587 510.94 108.587C511.807 108.587 512.271 108.045 512.271 107.186V104.326H512.856V107.193C512.856 108.362 512.215 109.109 510.94 109.109ZM515.013 109.109C514.457 109.109 513.985 108.94 513.639 108.573L513.914 108.193C514.14 108.454 514.569 108.679 515.034 108.679C515.555 108.679 515.837 108.432 515.837 108.094C515.837 107.27 513.731 107.777 513.731 106.516C513.731 105.988 514.189 105.537 514.999 105.537C515.577 105.537 515.985 105.756 516.26 106.03L516.013 106.397C515.809 106.15 515.436 105.967 514.999 105.967C514.534 105.967 514.245 106.199 514.245 106.502C514.245 107.249 516.351 106.756 516.351 108.08C516.351 108.651 515.894 109.109 515.013 109.109ZM518.745 109.109C517.738 109.109 517.013 108.383 517.013 107.319C517.013 106.333 517.717 105.537 518.689 105.537C519.718 105.537 520.323 106.34 520.323 107.362V107.496H517.569C517.611 108.137 518.062 108.672 518.795 108.672C519.182 108.672 519.577 108.517 519.844 108.242L520.098 108.587C519.76 108.926 519.302 109.109 518.745 109.109ZM519.802 107.108C519.795 106.601 519.457 105.974 518.682 105.974C517.956 105.974 517.597 106.587 517.569 107.108H519.802ZM521.707 109.024H521.179V105.622H521.707V106.171C521.982 105.812 522.377 105.551 522.841 105.551V106.094C522.778 106.08 522.715 106.073 522.63 106.073C522.306 106.073 521.862 106.34 521.707 106.615V109.024ZM526.947 109.024H525.341V104.326H526.947C528.406 104.326 529.357 105.347 529.357 106.678C529.357 108.017 528.406 109.024 526.947 109.024ZM526.947 108.503C528.089 108.503 528.751 107.686 528.751 106.678C528.751 105.664 528.11 104.847 526.947 104.847H525.926V108.503H526.947ZM533.077 109.024H532.549V108.545C532.288 108.841 531.845 109.109 531.337 109.109C530.626 109.109 530.253 108.764 530.253 108.024V105.622H530.781V107.862C530.781 108.461 531.084 108.637 531.542 108.637C531.957 108.637 532.352 108.397 532.549 108.123V105.622H533.077V109.024ZM534.661 109.024H534.132V105.622H534.661V106.171C534.936 105.812 535.33 105.551 535.795 105.551V106.094C535.732 106.08 535.668 106.073 535.584 106.073C535.26 106.073 534.816 106.34 534.661 106.615V109.024ZM539.113 109.024H538.585V108.637C538.303 108.947 537.916 109.109 537.458 109.109C536.88 109.109 536.267 108.721 536.267 107.982C536.267 107.221 536.88 106.862 537.458 106.862C537.923 106.862 538.31 107.01 538.585 107.327V106.714C538.585 106.256 538.219 105.995 537.726 105.995C537.317 105.995 536.986 106.143 536.683 106.467L536.436 106.101C536.803 105.72 537.24 105.537 537.796 105.537C538.515 105.537 539.113 105.861 539.113 106.685V109.024ZM537.648 108.728C538.021 108.728 538.381 108.587 538.585 108.306V107.665C538.381 107.383 538.021 107.242 537.648 107.242C537.155 107.242 536.81 107.552 536.81 107.989C536.81 108.418 537.155 108.728 537.648 108.728ZM541.032 109.109C540.532 109.109 540.278 108.82 540.278 108.313V106.087H539.714V105.622H540.278V104.692H540.806V105.622H541.497V106.087H540.806V108.2C540.806 108.454 540.919 108.637 541.152 108.637C541.299 108.637 541.44 108.573 541.511 108.496L541.666 108.89C541.532 109.017 541.342 109.109 541.032 109.109ZM542.504 105.136C542.313 105.136 542.151 104.981 542.151 104.784C542.151 104.586 542.313 104.424 542.504 104.424C542.701 104.424 542.863 104.586 542.863 104.784C542.863 104.981 542.701 105.136 542.504 105.136ZM542.771 109.024H542.243V105.622H542.771V109.024ZM545.312 109.109C544.276 109.109 543.628 108.306 543.628 107.319C543.628 106.333 544.276 105.537 545.312 105.537C546.347 105.537 546.995 106.333 546.995 107.319C546.995 108.306 546.347 109.109 545.312 109.109ZM545.312 108.637C546.037 108.637 546.439 108.017 546.439 107.319C546.439 106.629 546.037 106.009 545.312 106.009C544.586 106.009 544.177 106.629 544.177 107.319C544.177 108.017 544.586 108.637 545.312 108.637ZM550.681 109.024H550.153V106.798C550.153 106.199 549.85 106.009 549.392 106.009C548.976 106.009 548.582 106.263 548.385 106.538V109.024H547.856V105.622H548.385V106.115C548.624 105.833 549.089 105.537 549.596 105.537C550.308 105.537 550.681 105.897 550.681 106.636V109.024Z" fill="white"/>
<path d="M188.838 233.098V234.704H184.14V233.098C184.14 231.64 185.161 230.689 186.493 230.689C187.831 230.689 188.838 231.64 188.838 233.098ZM188.317 233.098C188.317 231.957 187.5 231.295 186.493 231.295C185.478 231.295 184.661 231.936 184.661 233.098V234.12H188.317V233.098ZM188.838 226.968V227.497H188.359C188.655 227.757 188.923 228.201 188.923 228.708C188.923 229.42 188.578 229.793 187.838 229.793H185.436V229.265H187.676C188.275 229.265 188.451 228.962 188.451 228.504C188.451 228.088 188.211 227.694 187.937 227.497H185.436V226.968H188.838ZM188.838 225.385V225.913H185.436V225.385H185.985C185.626 225.11 185.365 224.716 185.365 224.251H185.908C185.894 224.314 185.887 224.378 185.887 224.462C185.887 224.786 186.154 225.23 186.429 225.385H188.838ZM188.838 220.932V221.461H188.451C188.761 221.743 188.923 222.13 188.923 222.588C188.923 223.165 188.535 223.778 187.796 223.778C187.035 223.778 186.676 223.165 186.676 222.588C186.676 222.123 186.824 221.735 187.141 221.461H186.528C186.07 221.461 185.809 221.827 185.809 222.32C185.809 222.729 185.957 223.06 186.281 223.363L185.915 223.609C185.534 223.243 185.351 222.806 185.351 222.25C185.351 221.531 185.675 220.932 186.5 220.932H188.838ZM188.542 222.398C188.542 222.024 188.402 221.665 188.12 221.461H187.479C187.197 221.665 187.056 222.024 187.056 222.398C187.056 222.891 187.366 223.236 187.803 223.236C188.232 223.236 188.542 222.891 188.542 222.398ZM188.923 219.014C188.923 219.514 188.634 219.768 188.127 219.768H185.901V220.331H185.436V219.768H184.506V219.239H185.436V218.549H185.901V219.239H188.014C188.268 219.239 188.451 219.127 188.451 218.894C188.451 218.746 188.387 218.605 188.31 218.535L188.704 218.38C188.831 218.514 188.923 218.704 188.923 219.014ZM184.95 217.542C184.95 217.732 184.795 217.894 184.598 217.894C184.4 217.894 184.238 217.732 184.238 217.542C184.238 217.345 184.4 217.183 184.598 217.183C184.795 217.183 184.95 217.345 184.95 217.542ZM188.838 217.274V217.803H185.436V217.274H188.838ZM188.923 214.734C188.923 215.77 188.12 216.418 187.134 216.418C186.147 216.418 185.351 215.77 185.351 214.734C185.351 213.699 186.147 213.051 187.134 213.051C188.12 213.051 188.923 213.699 188.923 214.734ZM188.451 214.734C188.451 214.009 187.831 213.607 187.134 213.607C186.443 213.607 185.823 214.009 185.823 214.734C185.823 215.46 186.443 215.868 187.134 215.868C187.831 215.868 188.451 215.46 188.451 214.734ZM188.838 209.365V209.893H186.612C186.014 209.893 185.823 210.196 185.823 210.654C185.823 211.069 186.077 211.464 186.352 211.661H188.838V212.189H185.436V211.661H185.929C185.647 211.422 185.351 210.957 185.351 210.449C185.351 209.738 185.711 209.365 186.45 209.365H188.838ZM189.994 205.402L190.24 205.719C189.374 206.353 188.261 206.712 187.126 206.712C185.992 206.712 184.886 206.353 184.013 205.719L184.252 205.402C185.147 205.852 185.95 206.134 187.126 206.134C188.296 206.134 189.106 205.852 189.994 205.402ZM184.95 204.485C184.95 204.676 184.795 204.838 184.598 204.838C184.4 204.838 184.238 204.676 184.238 204.485C184.238 204.288 184.4 204.126 184.598 204.126C184.795 204.126 184.95 204.288 184.95 204.485ZM188.838 204.218V204.746H185.436V204.218H188.838ZM188.838 200.339V200.867H186.612C186.014 200.867 185.823 201.17 185.823 201.628C185.823 202.044 186.077 202.438 186.352 202.636H188.838V203.164H185.436V202.636H185.929C185.647 202.396 185.351 201.931 185.351 201.424C185.351 200.713 185.711 200.339 186.45 200.339H188.838ZM188.838 192.833V193.361H186.528C186.098 193.361 185.823 193.551 185.823 193.988C185.823 194.34 186.077 194.714 186.345 194.89H188.838V195.418H186.528C186.098 195.418 185.823 195.601 185.823 196.045C185.823 196.39 186.077 196.757 186.352 196.94H188.838V197.468H185.436V196.94H185.929C185.711 196.799 185.351 196.341 185.351 195.841C185.351 195.319 185.633 195.024 185.985 194.925C185.675 194.735 185.351 194.277 185.351 193.784C185.351 193.164 185.697 192.833 186.38 192.833H188.838ZM184.95 191.518C184.95 191.708 184.795 191.87 184.598 191.87C184.4 191.87 184.238 191.708 184.238 191.518C184.238 191.321 184.4 191.159 184.598 191.159C184.795 191.159 184.95 191.321 184.95 191.518ZM188.838 191.251V191.779H185.436V191.251H188.838ZM188.838 187.372V187.9H186.612C186.014 187.9 185.823 188.203 185.823 188.661C185.823 189.077 186.077 189.471 186.352 189.668H188.838V190.197H185.436V189.668H185.929C185.647 189.429 185.351 188.964 185.351 188.457C185.351 187.745 185.711 187.372 186.45 187.372H188.838ZM188.838 183.492V184.02H188.359C188.655 184.281 188.923 184.725 188.923 185.232C188.923 185.944 188.578 186.317 187.838 186.317H185.436V185.789H187.676C188.275 185.789 188.451 185.486 188.451 185.028C188.451 184.612 188.211 184.218 187.937 184.02H185.436V183.492H188.838ZM188.923 181.578C188.923 182.078 188.634 182.331 188.127 182.331H185.901V182.895H185.436V182.331H184.506V181.803H185.436V181.113H185.901V181.803H188.014C188.268 181.803 188.451 181.69 188.451 181.458C188.451 181.31 188.387 181.169 188.31 181.099L188.704 180.944C188.831 181.077 188.923 181.268 188.923 181.578ZM188.923 178.831C188.923 179.838 188.197 180.564 187.134 180.564C186.147 180.564 185.351 179.859 185.351 178.887C185.351 177.859 186.154 177.253 187.176 177.253H187.31V180.007C187.951 179.965 188.486 179.514 188.486 178.781C188.486 178.394 188.331 178 188.056 177.732L188.402 177.478C188.74 177.816 188.923 178.274 188.923 178.831ZM186.922 177.774C186.415 177.781 185.788 178.119 185.788 178.894C185.788 179.62 186.401 179.979 186.922 180.007V177.774ZM188.923 175.319C188.923 175.876 188.754 176.348 188.387 176.693L188.007 176.418C188.268 176.193 188.493 175.763 188.493 175.298C188.493 174.777 188.247 174.495 187.908 174.495C187.084 174.495 187.591 176.601 186.33 176.601C185.802 176.601 185.351 176.144 185.351 175.333C185.351 174.756 185.57 174.347 185.844 174.073L186.211 174.319C185.964 174.523 185.781 174.897 185.781 175.333C185.781 175.798 186.014 176.087 186.316 176.087C187.063 176.087 186.57 173.981 187.894 173.981C188.465 173.981 188.923 174.439 188.923 175.319ZM190.24 173.214L189.994 173.531C189.106 173.073 188.296 172.792 187.126 172.792C185.95 172.792 185.147 173.073 184.252 173.531L184.013 173.214C184.886 172.573 185.992 172.214 187.126 172.214C188.261 172.214 189.374 172.573 190.24 173.214Z" fill="#E2E8F0"/>
<path d="M198.642 123.501C197.846 123.501 197.339 123.212 196.987 122.747L197.346 122.36C197.656 122.754 198.064 122.98 198.642 122.98C199.283 122.98 199.727 122.543 199.727 121.972C199.727 121.353 199.283 120.958 198.649 120.958C198.234 120.958 197.881 121.092 197.564 121.402L197.135 121.254L197.135 118.718L200.009 118.718L200.009 119.239L197.719 119.239L197.719 120.874C197.945 120.648 198.346 120.451 198.818 120.451C199.6 120.451 200.312 120.986 200.312 121.951C200.312 122.909 199.586 123.501 198.642 123.501ZM201.487 120.74C201.276 120.74 201.099 120.564 201.099 120.352C201.099 120.141 201.276 119.965 201.487 119.965C201.698 119.965 201.874 120.141 201.874 120.352C201.874 120.564 201.698 120.74 201.487 120.74ZM201.487 123.487C201.276 123.487 201.099 123.311 201.099 123.1C201.099 122.888 201.276 122.712 201.487 122.712C201.698 122.712 201.874 122.888 201.874 123.1C201.874 123.311 201.698 123.487 201.487 123.487ZM204.456 123.501C203.167 123.501 202.66 122.212 202.66 121.071C202.66 119.923 203.167 118.648 204.456 118.648C205.738 118.648 206.252 119.923 206.252 121.071C206.252 122.212 205.738 123.501 204.456 123.501ZM204.456 122.98C205.35 122.98 205.653 122.008 205.653 121.071C205.653 120.134 205.35 119.169 204.456 119.169C203.561 119.169 203.258 120.134 203.258 121.071C203.258 122.008 203.561 122.98 204.456 122.98ZM208.769 123.501C207.48 123.501 206.973 122.212 206.973 121.071C206.973 119.923 207.48 118.648 208.769 118.648C210.051 118.648 210.565 119.923 210.565 121.071C210.565 122.212 210.051 123.501 208.769 123.501ZM208.769 122.98C209.664 122.98 209.967 122.008 209.967 121.071C209.967 120.134 209.664 119.169 208.769 119.169C207.874 119.169 207.572 120.134 207.572 121.071C207.572 122.008 207.874 122.98 208.769 122.98Z" fill="#E2E8F0"/>
<path d="M199.792 156.281L199.207 156.281L199.207 155.091L196.974 155.091L196.974 154.605L198.989 151.583L199.792 151.583L199.792 154.577L200.454 154.577L200.454 155.091L199.792 155.091L199.792 156.281ZM199.207 154.577L199.207 152.125L197.559 154.577L199.207 154.577ZM201.487 153.605C201.276 153.605 201.099 153.429 201.099 153.217C201.099 153.006 201.276 152.83 201.487 152.83C201.698 152.83 201.874 153.006 201.874 153.217C201.874 153.429 201.698 153.605 201.487 153.605ZM201.487 156.352C201.276 156.352 201.099 156.176 201.099 155.965C201.099 155.753 201.276 155.577 201.487 155.577C201.698 155.577 201.874 155.753 201.874 155.965C201.874 156.176 201.698 156.352 201.487 156.352ZM204.456 156.366C203.167 156.366 202.66 155.077 202.66 153.936C202.66 152.788 203.167 151.513 204.456 151.513C205.738 151.513 206.252 152.788 206.252 153.936C206.252 155.077 205.738 156.366 204.456 156.366ZM204.456 155.845C205.35 155.845 205.653 154.873 205.653 153.936C205.653 152.999 205.35 152.034 204.456 152.034C203.561 152.034 203.258 152.999 203.258 153.936C203.258 154.873 203.561 155.845 204.456 155.845ZM208.769 156.366C207.48 156.366 206.973 155.077 206.973 153.936C206.973 152.788 207.48 151.513 208.769 151.513C210.051 151.513 210.565 152.788 210.565 153.936C210.565 155.077 210.051 156.366 208.769 156.366ZM208.769 155.845C209.664 155.845 209.967 154.873 209.967 153.936C209.967 152.999 209.664 152.034 208.769 152.034C207.874 152.034 207.572 152.999 207.572 153.936C207.572 154.873 207.874 155.845 208.769 155.845Z" fill="#E2E8F0"/>
<path d="M198.629 189.231C197.833 189.231 197.249 188.879 196.96 188.456L197.305 188.09C197.58 188.456 198.059 188.709 198.615 188.709C199.299 188.709 199.714 188.371 199.714 187.829C199.714 187.244 199.235 186.998 198.545 186.998C198.348 186.998 198.129 186.998 198.059 187.005L198.059 186.469C198.136 186.476 198.355 186.476 198.545 186.476C199.137 186.476 199.637 186.244 199.637 185.702C199.637 185.18 199.158 184.899 198.587 184.899C198.073 184.899 197.693 185.096 197.347 185.469L197.023 185.103C197.362 184.694 197.904 184.377 198.629 184.377C199.531 184.377 200.221 184.835 200.221 185.631C200.221 186.307 199.651 186.646 199.207 186.723C199.637 186.758 200.292 187.125 200.292 187.878C200.292 188.66 199.665 189.231 198.629 189.231ZM201.487 186.469C201.276 186.469 201.099 186.293 201.099 186.082C201.099 185.871 201.276 185.695 201.487 185.695C201.698 185.695 201.874 185.871 201.874 186.082C201.874 186.293 201.698 186.469 201.487 186.469ZM201.487 189.217C201.276 189.217 201.099 189.041 201.099 188.829C201.099 188.618 201.276 188.442 201.487 188.442C201.698 188.442 201.874 188.618 201.874 188.829C201.874 189.041 201.698 189.217 201.487 189.217ZM204.456 189.231C203.167 189.231 202.66 187.942 202.66 186.801C202.66 185.652 203.167 184.377 204.456 184.377C205.738 184.377 206.252 185.652 206.252 186.801C206.252 187.942 205.738 189.231 204.456 189.231ZM204.456 188.709C205.35 188.709 205.653 187.737 205.653 186.801C205.653 185.864 205.35 184.899 204.456 184.899C203.561 184.899 203.258 185.864 203.258 186.801C203.258 187.737 203.561 188.709 204.456 188.709ZM208.769 189.231C207.48 189.231 206.973 187.942 206.973 186.801C206.973 185.652 207.48 184.377 208.769 184.377C210.051 184.377 210.565 185.652 210.565 186.801C210.565 187.942 210.051 189.231 208.769 189.231ZM208.769 188.709C209.664 188.709 209.967 187.737 209.967 186.801C209.967 185.864 209.664 184.899 208.769 184.899C207.874 184.899 207.572 185.864 207.572 186.801C207.572 187.737 207.874 188.709 208.769 188.709Z" fill="#E2E8F0"/>
<mask id="path-15-inside-1_2286_13174" fill="white">
<path d="M213.275 116.417H546.965V290.741H213.275V116.417Z"/>
</mask>
<path d="M213.275 290.741H212.688V291.328H213.275V290.741ZM546.965 290.154H213.275V291.328H546.965V290.154ZM213.862 290.741V116.417H212.688V290.741H213.862Z" fill="#E2E8F0" mask="url(#path-15-inside-1_2286_13174)"/>
<rect x="299.311" y="180.699" width="1.76106" height="110.042" fill="#9A1A1E"/>
<rect x="301.285" y="179.609" width="1.76106" height="111.132" fill="#9A1A1E"/>
<rect x="303.258" y="182.878" width="1.76106" height="107.863" fill="#9A1A1E"/>
<rect x="305.232" y="178.52" width="1.76106" height="112.221" fill="#9A1A1E"/>
<rect x="344.703" y="163.266" width="1.76106" height="127.475" fill="#9A1A1E"/>
<rect x="346.676" y="149.647" width="1.76106" height="141.094" fill="#9A1A1E"/>
<rect x="348.65" y="141.476" width="1.76106" height="149.265" fill="#9A1A1E"/>
<rect x="350.623" y="128.401" width="1.76106" height="162.34" fill="#9A1A1E"/>
<rect x="352.597" y="126.767" width="1.76106" height="163.974" fill="#9A1A1E"/>
<rect x="354.57" y="185.602" width="1.76106" height="105.139" fill="#9A1A1E"/>
<rect x="384.173" y="192.684" width="1.76106" height="98.0575" fill="#9A1A1E"/>
<rect x="386.147" y="184.512" width="1.76106" height="106.229" fill="#9A1A1E"/>
<rect x="388.12" y="175.251" width="1.76106" height="115.49" fill="#9A1A1E"/>
<rect x="390.094" y="164.9" width="1.76106" height="125.84" fill="#9A1A1E"/>
<rect x="392.068" y="156.729" width="1.76106" height="134.012" fill="#9A1A1E"/>
<rect x="394.041" y="143.655" width="1.76106" height="147.086" fill="#9A1A1E"/>
<rect x="396.015" y="143.655" width="1.76106" height="147.086" fill="#9A1A1E"/>
<rect x="397.988" y="150.737" width="1.76106" height="140.004" fill="#9A1A1E"/>
<rect x="399.962" y="141.476" width="1.76106" height="149.265" fill="#9A1A1E"/>
<rect x="401.935" y="190.504" width="1.76106" height="100.237" fill="#9A1A1E"/>
<rect x="403.909" y="195.952" width="1.76106" height="94.7889" fill="#9A1A1E"/>
<rect x="437.459" y="197.042" width="1.76106" height="93.6994" fill="#9A1A1E"/>
<rect x="439.433" y="191.594" width="1.76106" height="99.1471" fill="#9A1A1E"/>
<rect x="441.406" y="181.788" width="1.76106" height="108.953" fill="#9A1A1E"/>
<rect x="443.38" y="179.064" width="1.76106" height="111.677" fill="#9A1A1E"/>
<rect x="445.353" y="184.512" width="1.76106" height="106.229" fill="#9A1A1E"/>
<rect x="447.327" y="182.878" width="1.76106" height="107.863" fill="#9A1A1E"/>
<path d="M215.228 272.595L217.379 278.063L219.365 281.617L221.351 284.351L223.336 286.538L225.322 286.811L227.142 285.718L229.293 285.171L231.278 282.984L233.264 278.063L235.25 275.329H237.235L239.055 272.048L241.041 270.681L243.026 269.588L245.012 268.221L246.997 269.861L249.148 269.041L251.134 262.753L252.954 249.63L254.94 235.14L257.091 218.737L258.911 207.801L260.896 223.384L262.882 241.975L264.868 282.163L266.853 286.811L268.839 285.718L270.824 287.905L272.644 286.811L274.795 287.905L276.781 287.358L278.767 286.538L280.752 284.351L282.738 282.163L284.558 280.523L286.709 279.703L288.694 275.329L290.68 270.681L292.666 264.12L294.651 243.615L296.637 238.148L298.622 202.88L300.608 188.664L302.428 191.124H304.413L306.399 189.211L308.385 218.19L310.37 235.96L312.521 274.509L314.176 272.048L316.161 284.897L318.312 288.451L320.298 288.998L322.284 287.905H324.104H326.089H328.24L330.06 285.718L332.211 244.162L334.197 239.788L336.017 246.076L338.003 244.709L339.988 232.68L341.974 222.564L343.959 208.075L345.945 181.829L347.931 160.231L349.916 154.217H351.736L353.887 153.396L355.707 188.664L357.858 234.047H359.678L361.829 230.766L363.815 277.242L365.635 288.451L367.786 288.998H369.606H371.757L373.577 281.617L375.563 256.191L377.549 248.81L379.534 231.586L381.52 218.19L383.505 200.966L385.491 193.858L387.311 189.211L389.297 179.369L391.448 183.743L393.433 190.578L395.419 189.757L397.239 185.383L399.39 180.462H401.21L403.195 193.038L405.181 197.686L407.167 212.175L409.318 233.227L411.303 228.032L413.123 253.731L415.109 270.408L416.929 281.617L418.915 285.718L421.066 287.905L423.051 282.437L425.037 274.509L426.857 266.033L428.842 254.551L430.993 234.047H432.979L434.965 231.586L436.785 233.227L438.77 231.586L441.087 235.14L442.907 229.598L444.892 228.032L446.878 230.766L448.864 225.832L450.849 229.598L452.669 241.428L454.655 266.033L456.475 278.883L458.791 287.905L460.612 288.998L462.432 287.905H464.417L466.568 284.897H468.554L470.539 287.905H472.525L474.676 281.617L476.331 275.875L478.482 272.868L480.302 276.696L482.287 272.868L484.438 270.408L486.258 275.875L488.244 271.775L490.23 269.588L492.215 263.3L494.366 254.551L496.352 253.731L498.172 266.033L500.323 259.199L502.143 266.033L503.963 257.558L506.28 260.566L507.934 283.257L509.92 288.451H512.071H514.056H516.042L518.193 286.538L519.848 285.718L521.999 287.085L523.984 284.351L525.804 285.718L527.955 282.163L529.941 281.07L531.761 283.257L533.912 279.976L535.732 282.163L537.552 280.523L539.869 282.163L541.689 284.897L543.84 278.883L545.825 274.509" stroke="white" stroke-width="0.436073"/>
</g>
<g filter="url(#filter3_dd_2286_13174)">
<rect x="117" y="86" width="166.91" height="82.1063" rx="5.37612" fill="#001143"/>
<rect x="117.269" y="86.2688" width="166.372" height="81.5687" rx="5.10732" stroke="#475569" stroke-width="0.537612"/>
<path d="M134.573 103.602L134.152 102.501H131.434L131.012 103.602H129.911L132.165 97.8644H133.421L135.675 103.602H134.573ZM132.793 98.716L131.718 101.615H133.868L132.793 98.716ZM137.2 103.602L135.505 99.4471H136.469L137.681 102.561L138.894 99.4471H139.866L138.172 103.602H137.2ZM140.382 104.668L140.803 104.015C141.139 104.402 141.569 104.548 142.119 104.548C142.713 104.548 143.349 104.273 143.349 103.421V102.922C143.031 103.335 142.558 103.61 142.016 103.61C140.958 103.61 140.175 102.845 140.175 101.477C140.175 100.135 140.95 99.3439 142.016 99.3439C142.541 99.3439 143.014 99.5848 143.349 100.023V99.4471H144.253V103.387C144.253 104.883 143.143 105.288 142.119 105.288C141.414 105.288 140.889 105.133 140.382 104.668ZM143.349 102.251V100.703C143.152 100.393 142.704 100.144 142.283 100.144C141.569 100.144 141.113 100.677 141.113 101.477C141.113 102.277 141.569 102.81 142.283 102.81C142.704 102.81 143.152 102.561 143.349 102.251ZM147.658 101.34V97.8644H148.673V101.305C148.673 102.217 149.181 102.81 150.144 102.81C151.099 102.81 151.606 102.217 151.606 101.305V97.8644H152.621V101.331C152.621 102.759 151.804 103.705 150.144 103.705C148.475 103.705 147.658 102.75 147.658 101.34ZM153.454 103.06L153.867 102.406C154.159 102.707 154.735 102.991 155.277 102.991C155.819 102.991 156.094 102.793 156.094 102.484C156.094 102.122 155.656 101.993 155.148 101.881C154.434 101.727 153.583 101.537 153.583 100.608C153.583 99.9288 154.168 99.3439 155.217 99.3439C155.922 99.3439 156.456 99.5934 156.834 99.9288L156.456 100.565C156.206 100.282 155.742 100.066 155.226 100.066C154.753 100.066 154.451 100.239 154.451 100.531C154.451 100.849 154.864 100.961 155.355 101.073C156.077 101.228 156.963 101.434 156.963 102.415C156.963 103.146 156.352 103.705 155.234 103.705C154.529 103.705 153.884 103.481 153.454 103.06ZM157.614 101.52C157.614 100.316 158.492 99.3439 159.722 99.3439C160.969 99.3439 161.769 100.299 161.769 101.606V101.821H158.56C158.629 102.449 159.102 102.965 159.885 102.965C160.289 102.965 160.771 102.802 161.064 102.509L161.476 103.103C161.064 103.499 160.453 103.705 159.79 103.705C158.543 103.705 157.614 102.836 157.614 101.52ZM159.722 100.084C158.947 100.084 158.595 100.677 158.552 101.185H160.891C160.874 100.694 160.539 100.084 159.722 100.084ZM162.66 103.602V99.4471H163.564V100.058C163.873 99.6622 164.372 99.3525 164.914 99.3525V100.247C164.837 100.23 164.742 100.221 164.63 100.221C164.252 100.221 163.744 100.479 163.564 100.772V103.602H162.66ZM167.877 103.602V97.8644H170.011C171.8 97.8644 173.013 99.0515 173.013 100.737C173.013 102.423 171.8 103.602 170.011 103.602H167.877ZM168.884 102.716H170.011C171.258 102.716 171.981 101.821 171.981 100.737C171.981 99.6278 171.292 98.7504 170.011 98.7504H168.884V102.716ZM176.763 103.602V103.051C176.462 103.387 175.946 103.705 175.292 103.705C174.397 103.705 173.959 103.241 173.959 102.389V99.4471H174.862V102.062C174.862 102.707 175.189 102.905 175.696 102.905C176.152 102.905 176.548 102.647 176.763 102.363V99.4471H177.666V103.602H176.763ZM178.839 103.602V99.4471H179.742V100.058C180.052 99.6622 180.551 99.3525 181.093 99.3525V100.247C181.015 100.23 180.921 100.221 180.809 100.221C180.43 100.221 179.923 100.479 179.742 100.772V103.602H178.839ZM184.359 103.602V103.155C184.049 103.507 183.567 103.705 183.017 103.705C182.337 103.705 181.572 103.249 181.572 102.329C181.572 101.374 182.337 100.978 183.017 100.978C183.576 100.978 184.058 101.159 184.359 101.512V100.892C184.359 100.411 183.963 100.118 183.387 100.118C182.922 100.118 182.518 100.29 182.157 100.643L181.787 100.015C182.269 99.559 182.871 99.3439 183.533 99.3439C184.453 99.3439 185.262 99.731 185.262 100.849V103.602H184.359ZM184.359 102.656V102.028C184.152 101.744 183.765 101.598 183.37 101.598C182.862 101.598 182.484 101.89 182.484 102.346C182.484 102.793 182.862 103.086 183.37 103.086C183.765 103.086 184.152 102.939 184.359 102.656ZM187.68 103.705C186.983 103.705 186.614 103.327 186.614 102.638V100.239H185.925V99.4471H186.614V98.3117H187.517V99.4471H188.36V100.239H187.517V102.415C187.517 102.699 187.654 102.905 187.912 102.905C188.084 102.905 188.248 102.836 188.317 102.759L188.532 103.438C188.368 103.593 188.102 103.705 187.68 103.705ZM189.627 98.759C189.326 98.759 189.068 98.5095 189.068 98.1999C189.068 97.8902 189.326 97.6408 189.627 97.6408C189.937 97.6408 190.186 97.8902 190.186 98.1999C190.186 98.5095 189.937 98.759 189.627 98.759ZM189.18 103.602V99.4471H190.083V103.602H189.18ZM193.13 103.705C191.814 103.705 190.997 102.716 190.997 101.52C190.997 100.333 191.814 99.3439 193.13 99.3439C194.463 99.3439 195.272 100.333 195.272 101.52C195.272 102.716 194.463 103.705 193.13 103.705ZM193.13 102.905C193.904 102.905 194.334 102.26 194.334 101.52C194.334 100.789 193.904 100.144 193.13 100.144C192.364 100.144 191.934 100.789 191.934 101.52C191.934 102.26 192.364 102.905 193.13 102.905ZM198.99 103.602V101.004C198.99 100.359 198.663 100.144 198.155 100.144C197.691 100.144 197.295 100.419 197.089 100.703V103.602H196.186V99.4471H197.089V100.015C197.364 99.688 197.897 99.3439 198.551 99.3439C199.446 99.3439 199.893 99.8256 199.893 100.677V103.602H198.99ZM203.723 98.759C203.422 98.759 203.163 98.5095 203.163 98.1999C203.163 97.8902 203.422 97.6408 203.723 97.6408C204.032 97.6408 204.282 97.8902 204.282 98.1999C204.282 98.5095 204.032 98.759 203.723 98.759ZM203.275 103.602V99.4471H204.178V103.602H203.275ZM208.154 103.602V101.004C208.154 100.359 207.827 100.144 207.32 100.144C206.855 100.144 206.46 100.419 206.253 100.703V103.602H205.35V99.4471H206.253V100.015C206.529 99.688 207.062 99.3439 207.716 99.3439C208.61 99.3439 209.058 99.8256 209.058 100.677V103.602H208.154ZM213.687 103.705C212.99 103.705 212.621 103.327 212.621 102.638V100.239H211.932V99.4471H212.621V98.3117H213.524V99.4471H214.367V100.239H213.524V102.415C213.524 102.699 213.661 102.905 213.919 102.905C214.091 102.905 214.255 102.836 214.324 102.759L214.539 103.438C214.375 103.593 214.109 103.705 213.687 103.705ZM218 103.602V100.987C218 100.342 217.664 100.144 217.157 100.144C216.701 100.144 216.305 100.419 216.09 100.703V103.602H215.187V97.8644H216.09V100.015C216.365 99.688 216.907 99.3439 217.561 99.3439C218.455 99.3439 218.903 99.8084 218.903 100.66V103.602H218ZM219.818 101.52C219.818 100.316 220.695 99.3439 221.925 99.3439C223.172 99.3439 223.972 100.299 223.972 101.606V101.821H220.764C220.833 102.449 221.306 102.965 222.089 102.965C222.493 102.965 222.975 102.802 223.267 102.509L223.68 103.103C223.267 103.499 222.656 103.705 221.994 103.705C220.747 103.705 219.818 102.836 219.818 101.52ZM221.925 100.084C221.151 100.084 220.798 100.677 220.755 101.185H223.095C223.078 100.694 222.742 100.084 221.925 100.084ZM232.165 103.602V100.892C232.165 100.445 231.967 100.144 231.486 100.144C231.081 100.144 230.703 100.428 230.522 100.694V103.602H229.619V100.892C229.619 100.445 229.421 100.144 228.931 100.144C228.535 100.144 228.165 100.428 227.976 100.703V103.602H227.073V99.4471H227.976V100.015C228.148 99.7568 228.699 99.3439 229.327 99.3439C229.946 99.3439 230.325 99.6536 230.462 100.109C230.703 99.731 231.254 99.3439 231.873 99.3439C232.638 99.3439 233.069 99.7568 233.069 100.6V103.602H232.165ZM236.114 103.705C234.798 103.705 233.98 102.716 233.98 101.52C233.98 100.333 234.798 99.3439 236.114 99.3439C237.447 99.3439 238.255 100.333 238.255 101.52C238.255 102.716 237.447 103.705 236.114 103.705ZM236.114 102.905C236.888 102.905 237.318 102.26 237.318 101.52C237.318 100.789 236.888 100.144 236.114 100.144C235.348 100.144 234.918 100.789 234.918 101.52C234.918 102.26 235.348 102.905 236.114 102.905ZM238.808 103.06L239.221 102.406C239.513 102.707 240.09 102.991 240.632 102.991C241.174 102.991 241.449 102.793 241.449 102.484C241.449 102.122 241.01 101.993 240.503 101.881C239.789 101.727 238.937 101.537 238.937 100.608C238.937 99.9288 239.522 99.3439 240.571 99.3439C241.277 99.3439 241.81 99.5934 242.189 99.9288L241.81 100.565C241.561 100.282 241.096 100.066 240.58 100.066C240.107 100.066 239.806 100.239 239.806 100.531C239.806 100.849 240.219 100.961 240.709 101.073C241.432 101.228 242.318 101.434 242.318 102.415C242.318 103.146 241.707 103.705 240.589 103.705C239.883 103.705 239.238 103.481 238.808 103.06ZM244.474 103.705C243.777 103.705 243.407 103.327 243.407 102.638V100.239H242.719V99.4471H243.407V98.3117H244.31V99.4471H245.153V100.239H244.31V102.415C244.31 102.699 244.448 102.905 244.706 102.905C244.878 102.905 245.042 102.836 245.11 102.759L245.325 103.438C245.162 103.593 244.895 103.705 244.474 103.705ZM130.488 116.602V112.447H131.391V113.058C131.7 112.662 132.199 112.353 132.741 112.353V113.247C132.664 113.23 132.569 113.221 132.457 113.221C132.079 113.221 131.571 113.479 131.391 113.772V116.602H130.488ZM133.212 114.52C133.212 113.316 134.089 112.344 135.319 112.344C136.566 112.344 137.366 113.299 137.366 114.606V114.821H134.158C134.227 115.449 134.7 115.965 135.483 115.965C135.887 115.965 136.368 115.802 136.661 115.509L137.074 116.103C136.661 116.499 136.05 116.705 135.388 116.705C134.141 116.705 133.212 115.836 133.212 114.52ZM135.319 113.084C134.545 113.084 134.192 113.677 134.149 114.185H136.489C136.472 113.694 136.136 113.084 135.319 113.084ZM138 114.52C138 113.264 138.886 112.344 140.15 112.344C140.959 112.344 141.449 112.688 141.742 113.084L141.148 113.634C140.916 113.307 140.597 113.144 140.193 113.144C139.436 113.144 138.937 113.712 138.937 114.52C138.937 115.329 139.436 115.905 140.193 115.905C140.597 115.905 140.916 115.733 141.148 115.415L141.742 115.965C141.449 116.361 140.959 116.705 140.15 116.705C138.886 116.705 138 115.785 138 114.52ZM142.275 114.52C142.275 113.316 143.153 112.344 144.383 112.344C145.63 112.344 146.43 113.299 146.43 114.606V114.821H143.222C143.29 115.449 143.764 115.965 144.546 115.965C144.951 115.965 145.432 115.802 145.725 115.509L146.138 116.103C145.725 116.499 145.114 116.705 144.452 116.705C143.204 116.705 142.275 115.836 142.275 114.52ZM144.383 113.084C143.609 113.084 143.256 113.677 143.213 114.185H145.553C145.536 113.694 145.2 113.084 144.383 113.084ZM150.126 116.602V114.004C150.126 113.359 149.799 113.144 149.291 113.144C148.827 113.144 148.431 113.419 148.225 113.703V116.602H147.322V112.447H148.225V113.015C148.5 112.688 149.033 112.344 149.687 112.344C150.582 112.344 151.029 112.826 151.029 113.677V116.602H150.126ZM153.449 116.705C152.753 116.705 152.383 116.327 152.383 115.638V113.239H151.695V112.447H152.383V111.312H153.286V112.447H154.129V113.239H153.286V115.415C153.286 115.699 153.424 115.905 153.682 115.905C153.854 115.905 154.017 115.836 154.086 115.759L154.301 116.438C154.138 116.593 153.871 116.705 153.449 116.705ZM159.971 116.602V113.987C159.971 113.342 159.636 113.144 159.128 113.144C158.672 113.144 158.276 113.419 158.061 113.703V116.602H157.158V110.864H158.061V113.015C158.337 112.688 158.879 112.344 159.532 112.344C160.427 112.344 160.874 112.808 160.874 113.66V116.602H159.971ZM163.922 116.705C162.606 116.705 161.789 115.716 161.789 114.52C161.789 113.333 162.606 112.344 163.922 112.344C165.256 112.344 166.064 113.333 166.064 114.52C166.064 115.716 165.256 116.705 163.922 116.705ZM163.922 115.905C164.697 115.905 165.127 115.26 165.127 114.52C165.127 113.789 164.697 113.144 163.922 113.144C163.157 113.144 162.727 113.789 162.727 114.52C162.727 115.26 163.157 115.905 163.922 115.905ZM169.782 116.602V116.051C169.481 116.387 168.965 116.705 168.311 116.705C167.417 116.705 166.978 116.241 166.978 115.389V112.447H167.881V115.062C167.881 115.707 168.208 115.905 168.716 115.905C169.172 115.905 169.567 115.647 169.782 115.363V112.447H170.685V116.602H169.782ZM171.859 116.602V112.447H172.762V113.058C173.071 112.662 173.57 112.353 174.112 112.353V113.247C174.035 113.23 173.94 113.221 173.828 113.221C173.45 113.221 172.942 113.479 172.762 113.772V116.602H171.859Z" fill="#E2E8F0"/>
<path d="M134.857 153.504V140.215L132.045 143.131L130.29 141.298L135.244 136.292H137.877V153.504H134.857ZM141.048 151.982C141.048 151.001 141.873 150.175 142.854 150.175C143.835 150.175 144.66 151.001 144.66 151.982C144.66 152.962 143.835 153.788 142.854 153.788C141.873 153.788 141.048 152.962 141.048 151.982ZM154.96 153.504V149.608H146.754V147.182L153.824 136.292H157.979V146.95H160.276V149.608H157.979V153.504H154.96ZM154.96 139.002L149.721 146.95H154.96V139.002ZM162.445 151.156L164.174 149.092C165.336 150.408 166.884 151.13 168.819 151.13C170.987 151.13 172.355 149.788 172.355 148.111C172.355 146.253 171.013 145.04 168.897 145.04C167.426 145.04 166.213 145.505 165.129 146.537L162.987 145.918V136.292H174.264V138.95H166.006V143.931C166.832 143.105 168.252 142.434 169.903 142.434C172.793 142.434 175.4 144.473 175.4 147.982C175.4 151.569 172.69 153.814 168.845 153.814C165.877 153.814 163.839 152.808 162.445 151.156ZM182.151 153.504V150.795C182.151 150.348 181.953 150.046 181.471 150.046C181.067 150.046 180.688 150.33 180.508 150.597V153.504H179.604V150.795C179.604 150.348 179.407 150.046 178.916 150.046C178.521 150.046 178.151 150.33 177.961 150.606V153.504H177.058V149.35H177.961V149.917C178.134 149.659 178.684 149.247 179.312 149.247C179.931 149.247 180.31 149.556 180.447 150.012C180.688 149.634 181.239 149.247 181.858 149.247C182.624 149.247 183.054 149.659 183.054 150.502V153.504H182.151ZM184.671 148.662C184.37 148.662 184.112 148.412 184.112 148.102C184.112 147.793 184.37 147.543 184.671 147.543C184.981 147.543 185.23 147.793 185.23 148.102C185.23 148.412 184.981 148.662 184.671 148.662ZM184.224 153.504V149.35H185.127V153.504H184.224ZM189.103 153.504V150.907C189.103 150.262 188.776 150.046 188.268 150.046C187.804 150.046 187.408 150.322 187.202 150.606V153.504H186.299V149.35H187.202V149.917C187.477 149.591 188.01 149.247 188.664 149.247C189.559 149.247 190.006 149.728 190.006 150.58V153.504H189.103Z" fill="#E2E8F0"/>
<path d="M198.34 142.001L200.58 139.76L202.82 142.001H198.34Z" fill="#15803D"/>
<path d="M207.92 143.504H207.296V139.312L206.49 140.163L206.114 139.779L207.371 138.484H207.92V143.504ZM210.772 143.595C209.921 143.595 209.379 143.286 209.003 142.789L209.387 142.375C209.718 142.797 210.155 143.038 210.772 143.038C211.457 143.038 211.931 142.571 211.931 141.961C211.931 141.299 211.457 140.878 210.779 140.878C210.335 140.878 209.959 141.021 209.62 141.352L209.161 141.194V138.484H212.232V139.041H209.786V140.787C210.027 140.546 210.456 140.336 210.96 140.336C211.795 140.336 212.556 140.908 212.556 141.939C212.556 142.962 211.78 143.595 210.772 143.595ZM214.383 140.885C213.668 140.885 213.179 140.358 213.179 139.658C213.179 138.951 213.668 138.409 214.383 138.409C215.106 138.409 215.603 138.951 215.603 139.658C215.603 140.358 215.106 140.885 214.383 140.885ZM214.316 143.504H213.909L217.116 138.484H217.53L214.316 143.504ZM217.003 143.595C216.288 143.595 215.798 143.068 215.798 142.368C215.798 141.66 216.288 141.118 217.003 141.118C217.718 141.118 218.214 141.66 218.214 142.368C218.214 143.068 217.718 143.595 217.003 143.595ZM214.383 140.509C214.835 140.509 215.151 140.132 215.151 139.658C215.151 139.162 214.835 138.793 214.383 138.793C213.939 138.793 213.631 139.162 213.631 139.658C213.631 140.132 213.939 140.509 214.383 140.509ZM217.003 143.218C217.454 143.218 217.77 142.842 217.77 142.368C217.77 141.871 217.454 141.502 217.003 141.502C216.551 141.502 216.243 141.871 216.243 142.368C216.243 142.842 216.551 143.218 217.003 143.218ZM222.559 143.595C221.475 143.595 220.745 142.767 220.745 141.683C220.745 140.607 221.475 139.779 222.559 139.779C223.222 139.779 223.613 140.05 223.891 140.411L223.515 140.757C223.274 140.426 222.966 140.283 222.589 140.283C221.814 140.283 221.332 140.878 221.332 141.683C221.332 142.488 221.814 143.09 222.589 143.09C222.966 143.09 223.274 142.94 223.515 142.616L223.891 142.962C223.613 143.324 223.222 143.595 222.559 143.595ZM227.708 143.504H227.144V141.111C227.144 140.471 226.813 140.283 226.323 140.283C225.887 140.283 225.465 140.554 225.247 140.848V143.504H224.683V138.484H225.247V140.396C225.503 140.095 226 139.779 226.549 139.779C227.309 139.779 227.708 140.148 227.708 140.938V143.504ZM231.673 143.504H231.108V143.09C230.807 143.422 230.393 143.595 229.904 143.595C229.287 143.595 228.632 143.181 228.632 142.39C228.632 141.578 229.287 141.194 229.904 141.194C230.401 141.194 230.815 141.352 231.108 141.69V141.036C231.108 140.546 230.717 140.268 230.19 140.268C229.754 140.268 229.4 140.426 229.076 140.772L228.813 140.381C229.204 139.974 229.671 139.779 230.266 139.779C231.033 139.779 231.673 140.125 231.673 141.006V143.504ZM230.107 143.188C230.506 143.188 230.89 143.038 231.108 142.737V142.052C230.89 141.751 230.506 141.6 230.107 141.6C229.581 141.6 229.212 141.931 229.212 142.398C229.212 142.857 229.581 143.188 230.107 143.188ZM235.823 143.504H235.258V141.126C235.258 140.486 234.935 140.283 234.445 140.283C234.001 140.283 233.58 140.554 233.369 140.848V143.504H232.805V139.869H233.369V140.396C233.625 140.095 234.122 139.779 234.664 139.779C235.424 139.779 235.823 140.163 235.823 140.953V143.504ZM238.41 144.98C237.793 144.98 237.372 144.859 236.943 144.438L237.229 144.016C237.53 144.377 237.891 144.513 238.41 144.513C239.012 144.513 239.577 144.219 239.577 143.422V142.902C239.313 143.271 238.869 143.55 238.358 143.55C237.409 143.55 236.739 142.842 236.739 141.668C236.739 140.501 237.402 139.779 238.358 139.779C238.847 139.779 239.283 140.02 239.577 140.418V139.869H240.141V143.399C240.141 144.603 239.298 144.98 238.41 144.98ZM238.493 143.053C238.945 143.053 239.381 142.774 239.577 142.458V140.87C239.381 140.554 238.945 140.283 238.493 140.283C237.763 140.283 237.326 140.863 237.326 141.668C237.326 142.466 237.763 143.053 238.493 143.053ZM242.913 143.595C241.836 143.595 241.061 142.819 241.061 141.683C241.061 140.629 241.814 139.779 242.853 139.779C243.951 139.779 244.599 140.637 244.599 141.728V141.871H241.656C241.701 142.556 242.183 143.128 242.965 143.128C243.379 143.128 243.801 142.962 244.087 142.669L244.358 143.038C243.997 143.399 243.507 143.595 242.913 143.595ZM244.042 141.457C244.034 140.915 243.673 140.245 242.845 140.245C242.07 140.245 241.686 140.9 241.656 141.457H244.042ZM248.176 143.504H247.611V140.366H247.009V139.869H247.611V139.591C247.611 138.845 248.018 138.409 248.665 138.409C248.951 138.409 249.207 138.477 249.433 138.687L249.2 139.056C249.079 138.951 248.936 138.876 248.748 138.876C248.379 138.876 248.176 139.131 248.176 139.591V139.869H248.914V140.366H248.176V143.504ZM250.149 143.504H249.585V139.869H250.149V140.456C250.443 140.072 250.865 139.794 251.361 139.794V140.373C251.294 140.358 251.226 140.351 251.135 140.351C250.789 140.351 250.315 140.637 250.149 140.93V143.504ZM253.657 143.595C252.551 143.595 251.859 142.737 251.859 141.683C251.859 140.629 252.551 139.779 253.657 139.779C254.764 139.779 255.456 140.629 255.456 141.683C255.456 142.737 254.764 143.595 253.657 143.595ZM253.657 143.09C254.433 143.09 254.862 142.428 254.862 141.683C254.862 140.945 254.433 140.283 253.657 140.283C252.882 140.283 252.446 140.945 252.446 141.683C252.446 142.428 252.882 143.09 253.657 143.09ZM261.329 143.504H260.765V141.036C260.765 140.577 260.561 140.283 260.095 140.283C259.718 140.283 259.319 140.554 259.131 140.84V143.504H258.567V141.036C258.567 140.577 258.371 140.283 257.897 140.283C257.528 140.283 257.137 140.554 256.941 140.848V143.504H256.377V139.869H256.941V140.396C257.092 140.163 257.581 139.779 258.115 139.779C258.672 139.779 258.988 140.08 259.094 140.456C259.297 140.125 259.786 139.779 260.313 139.779C260.975 139.779 261.329 140.148 261.329 140.878V143.504ZM208.312 153.595C207.815 153.595 207.378 153.361 207.085 152.955V154.889H206.52V149.869H207.085V150.411C207.348 150.042 207.8 149.779 208.312 149.779C209.268 149.779 209.93 150.501 209.93 151.683C209.93 152.857 209.268 153.595 208.312 153.595ZM208.169 153.09C208.899 153.09 209.335 152.488 209.335 151.683C209.335 150.878 208.899 150.283 208.169 150.283C207.725 150.283 207.281 150.546 207.085 150.863V152.503C207.281 152.819 207.725 153.09 208.169 153.09ZM211.392 153.504H210.828V149.869H211.392V150.456C211.686 150.072 212.107 149.794 212.604 149.794V150.373C212.536 150.358 212.468 150.351 212.378 150.351C212.032 150.351 211.558 150.637 211.392 150.93V153.504ZM214.953 153.595C213.876 153.595 213.101 152.819 213.101 151.683C213.101 150.629 213.854 149.779 214.892 149.779C215.991 149.779 216.639 150.637 216.639 151.728V151.871H213.696C213.741 152.556 214.223 153.128 215.005 153.128C215.419 153.128 215.841 152.962 216.127 152.669L216.398 153.038C216.037 153.399 215.547 153.595 214.953 153.595ZM216.082 151.457C216.074 150.915 215.713 150.245 214.885 150.245C214.11 150.245 213.726 150.9 213.696 151.457H216.082ZM219.141 153.504H218.524L217.011 149.869H217.621L218.832 152.85L220.037 149.869H220.654L219.141 153.504ZM221.521 149.35C221.318 149.35 221.145 149.184 221.145 148.973C221.145 148.763 221.318 148.59 221.521 148.59C221.732 148.59 221.905 148.763 221.905 148.973C221.905 149.184 221.732 149.35 221.521 149.35ZM221.807 153.504H221.243V149.869H221.807V153.504ZM224.521 153.595C223.415 153.595 222.723 152.737 222.723 151.683C222.723 150.629 223.415 149.779 224.521 149.779C225.628 149.779 226.32 150.629 226.32 151.683C226.32 152.737 225.628 153.595 224.521 153.595ZM224.521 153.09C225.297 153.09 225.726 152.428 225.726 151.683C225.726 150.945 225.297 150.283 224.521 150.283C223.746 150.283 223.31 150.945 223.31 151.683C223.31 152.428 223.746 153.09 224.521 153.09ZM230.259 153.504H229.694V152.993C229.416 153.309 228.941 153.595 228.4 153.595C227.639 153.595 227.24 153.226 227.24 152.436V149.869H227.805V152.263C227.805 152.902 228.129 153.09 228.618 153.09C229.062 153.09 229.483 152.835 229.694 152.541V149.869H230.259V153.504ZM232.538 153.595C231.943 153.595 231.439 153.414 231.07 153.023L231.363 152.616C231.604 152.895 232.063 153.136 232.56 153.136C233.117 153.136 233.418 152.872 233.418 152.511C233.418 151.63 231.168 152.172 231.168 150.825C231.168 150.26 231.657 149.779 232.522 149.779C233.14 149.779 233.576 150.012 233.87 150.306L233.606 150.697C233.388 150.434 232.989 150.238 232.522 150.238C232.026 150.238 231.717 150.486 231.717 150.81C231.717 151.608 233.968 151.081 233.968 152.496C233.968 153.105 233.478 153.595 232.538 153.595ZM239.851 153.504H239.286V151.111C239.286 150.471 238.955 150.283 238.466 150.283C238.029 150.283 237.608 150.554 237.39 150.848V153.504H236.825V148.484H237.39V150.396C237.645 150.095 238.142 149.779 238.692 149.779C239.452 149.779 239.851 150.148 239.851 150.938V153.504ZM242.566 153.595C241.46 153.595 240.767 152.737 240.767 151.683C240.767 150.629 241.46 149.779 242.566 149.779C243.672 149.779 244.365 150.629 244.365 151.683C244.365 152.737 243.672 153.595 242.566 153.595ZM242.566 153.09C243.341 153.09 243.77 152.428 243.77 151.683C243.77 150.945 243.341 150.283 242.566 150.283C241.791 150.283 241.354 150.945 241.354 151.683C241.354 152.428 241.791 153.09 242.566 153.09ZM248.303 153.504H247.739V152.993C247.46 153.309 246.986 153.595 246.444 153.595C245.684 153.595 245.285 153.226 245.285 152.436V149.869H245.85V152.263C245.85 152.902 246.173 153.09 246.663 153.09C247.107 153.09 247.528 152.835 247.739 152.541V149.869H248.303V153.504ZM249.995 153.504H249.431V149.869H249.995V150.456C250.289 150.072 250.71 149.794 251.207 149.794V150.373C251.139 150.358 251.071 150.351 250.981 150.351C250.635 150.351 250.161 150.637 249.995 150.93V153.504Z" fill="#15803D"/>
</g>
</g>
<defs>
<filter id="filter0_f_2286_13174" x="-67.1951" y="-5.19512" width="861.39" height="526.39" filterUnits="userSpaceOnUse" color-interpolation-filters="sRGB">
<feFlood flood-opacity="0" result="BackgroundImageFix"/>
<feBlend mode="normal" in="SourceGraphic" in2="BackgroundImageFix" result="shape"/>
<feGaussianBlur stdDeviation="51.0976" result="effect1_foregroundBlur_2286_13174"/>
</filter>
<filter id="filter1_d_2286_13174" x="133.736" y="32.8341" width="471.31" height="335.189" filterUnits="userSpaceOnUse" color-interpolation-filters="sRGB">
<feFlood flood-opacity="0" result="BackgroundImageFix"/>
<feColorMatrix in="SourceAlpha" type="matrix" values="0 0 0 0 0 0 0 0 0 0 0 0 0 0 0 0 0 0 127 0" result="hardAlpha"/>
<feMorphology radius="7.04425" operator="erode" in="SourceAlpha" result="effect1_dropShadow_2286_13174"/>
<feOffset dy="14.6755"/>
<feGaussianBlur stdDeviation="14.6755"/>
<feColorMatrix type="matrix" values="0 0 0 0 0 0 0 0 0 0 0 0 0 0 0 0 0 0 0.25 0"/>
<feBlend mode="normal" in2="BackgroundImageFix" result="effect1_dropShadow_2286_13174"/>
<feBlend mode="normal" in="SourceGraphic" in2="effect1_dropShadow_2286_13174" result="shape"/>
</filter>
<filter id="filter2_d_2286_13174" x="542.617" y="51.7588" width="29.8289" height="29.8289" filterUnits="userSpaceOnUse" color-interpolation-filters="sRGB">
<feFlood flood-opacity="0" result="BackgroundImageFix"/>
<feColorMatrix in="SourceAlpha" type="matrix" values="0 0 0 0 0 0 0 0 0 0 0 0 0 0 0 0 0 0 127 0" result="hardAlpha"/>
<feOffset dy="1"/>
<feGaussianBlur stdDeviation="1"/>
<feColorMatrix type="matrix" values="0 0 0 0 0 0 0 0 0 0 0 0 0 0 0 0 0 0 0.05 0"/>
<feBlend mode="normal" in2="BackgroundImageFix" result="effect1_dropShadow_2286_13174"/>
<feBlend mode="normal" in="SourceGraphic" in2="effect1_dropShadow_2286_13174" result="shape"/>
</filter>
<filter id="filter3_dd_2286_13174" x="106.248" y="86" width="188.414" height="103.611" filterUnits="userSpaceOnUse" color-interpolation-filters="sRGB">
<feFlood flood-opacity="0" result="BackgroundImageFix"/>
<feColorMatrix in="SourceAlpha" type="matrix" values="0 0 0 0 0 0 0 0 0 0 0 0 0 0 0 0 0 0 127 0" result="hardAlpha"/>
<feMorphology radius="3.22567" operator="erode" in="SourceAlpha" result="effect1_dropShadow_2286_13174"/>
<feOffset dy="4.3009"/>
<feGaussianBlur stdDeviation="2.68806"/>
<feColorMatrix type="matrix" values="0 0 0 0 0 0 0 0 0 0 0 0 0 0 0 0 0 0 0.1 0"/>
<feBlend mode="normal" in2="BackgroundImageFix" result="effect1_dropShadow_2286_13174"/>
<feColorMatrix in="SourceAlpha" type="matrix" values="0 0 0 0 0 0 0 0 0 0 0 0 0 0 0 0 0 0 127 0" result="hardAlpha"/>
<feMorphology radius="2.68806" operator="erode" in="SourceAlpha" result="effect2_dropShadow_2286_13174"/>
<feOffset dy="10.7522"/>
<feGaussianBlur stdDeviation="6.72016"/>
<feColorMatrix type="matrix" values="0 0 0 0 0 0 0 0 0 0 0 0 0 0 0 0 0 0 0.1 0"/>
<feBlend mode="normal" in2="effect1_dropShadow_2286_13174" result="effect2_dropShadow_2286_13174"/>
<feBlend mode="normal" in="SourceGraphic" in2="effect2_dropShadow_2286_13174" result="shape"/>
</filter>
<linearGradient id="paint0_linear_2286_13174" x1="363.5" y1="97" x2="363.5" y2="419" gradientUnits="userSpaceOnUse">
<stop stop-color="#001143"/>
<stop offset="1" stop-color="#589CFF" stop-opacity="0.46"/>
</linearGradient>
<clipPath id="clip0_2286_13174">
<rect width="704" height="198" fill="white"/>
</clipPath>
</defs>
</svg>
