<svg width="48" height="48" viewBox="0 0 48 48" fill="none" xmlns="http://www.w3.org/2000/svg">
<g id="DAZN_Logo_Master 1" clip-path="url(#clip0_3014_1129)">
<g id="Group">
<g id="Group_2">
<g id="Clip path group">
<mask id="mask0_3014_1129" style="mask-type:luminance" maskUnits="userSpaceOnUse" x="0" y="0" width="48" height="48">
<g id="clip17">
<path id="Vector" d="M0.47451 0.614929H47.5179V47.6583H0.47451V0.614929Z" fill="white"/>
</g>
</mask>
<g mask="url(#mask0_3014_1129)">
<g id="Group_3">
<path id="Vector_2" d="M29.4358 16.8683L30.9482 11.7779L32.4973 16.8683H29.4358ZM36.9789 21.3146L33.0079 9.30196C32.9199 9.03644 32.8187 8.86334 32.7058 8.78121C32.5928 8.70053 32.4094 8.65798 32.1586 8.65798H29.9655C29.7132 8.65798 29.5269 8.70346 29.4066 8.79148C29.2878 8.87803 29.1895 9.04966 29.1147 9.30198L25.107 21.3146C25.0557 21.3777 25.0307 21.5024 25.0307 21.6916C25.0307 21.9821 25.2082 22.1258 25.5603 22.1258H27.2047C27.3573 22.1258 27.479 22.12 27.5729 22.1082C27.6683 22.095 27.7431 22.0627 27.8003 22.0129C27.8575 21.963 27.9074 21.8867 27.9514 21.7869C27.9954 21.6843 28.0424 21.5522 28.0937 21.3894L28.7172 19.2887H33.2352L33.8777 21.3512C33.9291 21.5273 33.979 21.6666 34.0288 21.7679C34.0787 21.8676 34.1359 21.9468 34.199 22.0041C34.2621 22.0598 34.3369 22.095 34.4264 22.1082C34.5129 22.1199 34.6274 22.1258 34.7667 22.1258H36.5241C36.8762 22.1258 37.0537 21.9821 37.0537 21.6916C37.0537 21.6036 37.0507 21.5435 37.0449 21.5127C37.0376 21.4804 37.0155 21.4144 36.9789 21.3146ZM35.0293 26.1496H33.7619C33.4348 26.1496 33.2177 26.1981 33.1106 26.2919C33.0035 26.3873 32.9507 26.5795 32.9507 26.8685V33.9991L29.207 26.8493C29.0559 26.5471 28.9078 26.3549 28.7625 26.2728C28.6173 26.1906 28.3621 26.1496 27.9968 26.1496H26.8247C26.4976 26.1496 26.279 26.198 26.1719 26.2918C26.0663 26.3872 26.012 26.5794 26.012 26.8684V38.8987C26.012 39.1906 26.0619 39.3813 26.1631 39.4767C26.2643 39.5705 26.4785 39.6175 26.8056 39.6175H28.0921C28.4193 39.6175 28.6363 39.5705 28.7434 39.4767C28.8505 39.3813 28.9033 39.1906 28.9033 38.8987V31.7488L32.647 38.9178C32.7981 39.2215 32.9462 39.4136 33.0915 39.4944C33.2367 39.578 33.4919 39.6176 33.8572 39.6176H35.0293C35.3564 39.6176 35.5735 39.5706 35.6806 39.4767C35.7877 39.3814 35.842 39.1907 35.842 38.8988V26.8685C35.842 26.5795 35.7877 26.3873 35.6806 26.2919C35.5736 26.1981 35.3565 26.1496 35.0293 26.1496ZM41.3079 25.0113L44.5718 28.2738V44.711H3.42435V28.2726L6.68389 25.0116C7.16652 24.529 7.16652 23.7471 6.68389 23.266L3.42435 20.005V3.56517H44.5718V20.0024L41.3079 23.2648C40.8253 23.7475 40.8253 24.5293 41.3079 25.0119M47.5204 0.61676H0.476974V21.4207L3.19523 24.139L0.476974 26.8572V47.66H47.5204V26.8572L44.8021 24.139L47.5204 21.4207V0.61676ZM21.3913 36.8177H16.0782L21.673 28.9506C21.761 28.8244 21.8182 28.7232 21.8446 28.6469C21.8696 28.5721 21.8813 28.4841 21.8813 28.3829V26.869C21.8813 26.58 21.8285 26.3879 21.7214 26.2925C21.6129 26.1986 21.3943 26.1502 21.0657 26.1502H12.9872C12.6952 26.1502 12.506 26.2045 12.418 26.3101C12.3285 26.4186 12.2845 26.6416 12.2845 26.9834V28.1174C12.2845 28.4577 12.3285 28.6821 12.418 28.7892C12.506 28.8963 12.6952 28.9506 12.9872 28.9506H17.9732L12.4547 36.8177C12.3153 36.9952 12.2449 37.1727 12.2449 37.3473V38.8993C12.2449 39.1912 12.2992 39.3819 12.4077 39.4773C12.5133 39.5712 12.7319 39.6181 13.062 39.6181H21.3914C21.6833 39.6181 21.8725 39.5653 21.962 39.4582C22.05 39.3511 22.094 39.1281 22.094 38.7863V37.6509C22.094 37.3106 22.05 37.0876 21.962 36.9805C21.8725 36.872 21.6832 36.8177 21.3913 36.8177ZM18.9181 16.7543C18.9181 17.2721 18.8844 17.7049 18.814 18.0511C18.745 18.3973 18.6321 18.6789 18.4736 18.8931C18.3167 19.1058 18.1098 19.2569 17.8502 19.3464C17.592 19.4344 17.2736 19.4784 16.8966 19.4784H15.3461V11.306H16.8966C17.614 11.306 18.1303 11.5187 18.4457 11.9397C18.7611 12.3622 18.9181 13.0604 18.9181 14.0315L18.9181 16.7543ZM21.6217 11.2884C21.1801 10.3921 20.5787 9.73052 19.8173 9.30214C19.053 8.87234 18.0937 8.65818 16.9333 8.65818H13.0593C12.7307 8.65818 12.5136 8.70658 12.4065 8.80046C12.2994 8.89581 12.2451 9.08799 12.2451 9.37699V21.4088C12.2451 21.6992 12.2994 21.8899 12.4065 21.9853C12.5136 22.0792 12.7307 22.1261 13.0593 22.1261H17.4058C19.461 22.1261 20.8662 21.2504 21.6219 19.4974C21.7979 19.094 21.9212 18.6876 21.9901 18.2769C22.0605 17.8676 22.0942 17.3468 22.0942 16.7175V14.1636C22.0942 13.4448 22.0605 12.8771 21.9901 12.4604C21.9212 12.0438 21.7977 11.6537 21.6217 11.2884Z" fill="white"/>
</g>
</g>
</g>
</g>
</g>
</g>
<defs>
<clipPath id="clip0_3014_1129">
<rect width="48" height="48" fill="white"/>
</clipPath>
</defs>
</svg>
