<svg width="132" height="23" viewBox="0 0 132 23" fill="none" xmlns="http://www.w3.org/2000/svg">
<g id="Kustomer">
<path id="Vector" fill-rule="evenodd" clip-rule="evenodd" d="M30.7406 3.66366C30.7406 3.13638 31.0009 2.87292 31.5219 2.87292H32.2685C32.7892 2.87292 33.0497 3.13638 33.0497 3.66366V10.0047H35.5555L39.4696 3.41101C39.5532 3.23911 39.6857 3.09679 39.8499 3.00261C40.0141 2.90842 40.2024 2.86674 40.3902 2.88298H41.2661C41.8808 2.88298 42.1172 3.29229 41.811 3.84306L37.4814 10.9167V10.9647L42.1121 18.8923C42.443 19.4203 42.2067 19.827 41.5922 19.827H40.6192C40.4293 19.8384 40.2404 19.7922 40.0765 19.6942C39.9126 19.5961 39.781 19.4507 39.6986 19.2763L35.5655 12.0485H33.0597V19.0337C33.0597 19.5643 32.7985 19.827 32.2783 19.827H31.5319C31.0119 19.827 30.7506 19.5744 30.7506 19.0337L30.7407 3.66366M44.1501 8.46372C44.1501 7.93644 44.4107 7.67299 44.9314 7.67299H45.6655C46.1632 7.67299 46.412 7.92551 46.412 8.46372V14.9285C46.412 16.611 46.7653 17.9601 48.6515 17.9601C51.1099 17.9601 52.5532 15.7748 52.5532 13.3748V8.46372C52.5532 7.93644 52.8137 7.67299 53.3345 7.67299H54.066C54.1728 7.65648 54.282 7.66536 54.3849 7.69893C54.4878 7.73249 54.5817 7.78983 54.6592 7.86646C54.7365 7.94305 54.7954 8.03685 54.831 8.14049C54.8667 8.24412 54.8783 8.35477 54.8648 8.46372V19.0287C54.8782 19.1362 54.8671 19.2453 54.8326 19.3477C54.798 19.4502 54.7409 19.5432 54.6655 19.6197C54.59 19.6962 54.4983 19.7542 54.3974 19.7893C54.2966 19.8243 54.1891 19.8355 54.0834 19.8219H53.4215C52.9015 19.8219 52.6427 19.5694 52.6427 19.0287V17.95C52.6449 17.7158 52.6684 17.4824 52.7123 17.2528H52.6652C51.8408 18.9877 50.1161 20.0961 48.2185 20.1096C45.5236 20.1096 44.1501 18.6699 44.1501 15.4514V8.46372ZM57.5397 17.7151L57.7761 17.379C58.0822 16.9698 58.3907 16.9471 58.8635 17.2098C59.7217 17.8311 60.7442 18.1744 61.7973 18.1947C62.9792 18.1947 63.8302 17.619 63.8302 16.5858C63.8302 14.2085 57.6567 15.0018 57.6567 10.894C57.6567 8.58998 59.6473 7.39006 61.9863 7.39006C63.1547 7.37235 64.3035 7.69681 65.2957 8.32477C65.7213 8.54199 65.7934 8.9513 65.5446 9.38323L65.3306 9.74203C65.0817 10.174 64.7409 10.222 64.2904 9.99456C63.5553 9.5425 62.7135 9.30154 61.8545 9.29729C60.7197 9.29729 59.8439 9.80259 59.8439 10.8334C59.8439 13.2611 66.0174 12.3944 66.0174 16.5251C66.0174 18.5917 64.2905 20.1024 61.7127 20.1024C60.2671 20.1158 58.8562 19.6522 57.6915 18.7811C57.2909 18.5308 57.2761 18.1218 57.5397 17.7151ZM69.1253 9.69404H68.2967C68.1936 9.70328 68.0898 9.68886 67.9929 9.65185C67.896 9.61484 67.8085 9.55619 67.7368 9.48022C67.6652 9.40443 67.6112 9.31322 67.5789 9.21333C67.5466 9.11344 67.5368 9.00744 67.5502 8.90318V8.58998C67.5369 8.48251 67.5479 8.37336 67.5825 8.2709C67.617 8.16844 67.6742 8.07539 67.7495 7.99888C67.825 7.92234 67.9167 7.86433 68.0175 7.82928C68.1184 7.79423 68.2258 7.78305 68.3315 7.79661H69.1826V5.13155C69.1697 5.02431 69.181 4.91548 69.2157 4.81337C69.2504 4.71125 69.3076 4.61855 69.3829 4.54234C69.4583 4.46607 69.5498 4.40829 69.6505 4.37338C69.7512 4.33846 69.8583 4.32733 69.9639 4.34082H70.6481C71.1692 4.34082 71.4295 4.6044 71.4295 5.13155V7.79686H73.5097C73.6155 7.78329 73.7229 7.79444 73.8237 7.82947C73.9246 7.8645 74.0162 7.92248 74.0917 7.999C74.1671 8.07552 74.2242 8.16857 74.2588 8.27103C74.2933 8.37349 74.3044 8.48264 74.291 8.59011V8.90331C74.3044 9.00756 74.2946 9.11354 74.2624 9.21342C74.2301 9.3133 74.1762 9.40452 74.1046 9.48034C74.0329 9.55631 73.9454 9.61495 73.8484 9.65195C73.7515 9.68896 73.6477 9.70338 73.5446 9.69417H71.4394V15.0978C71.4394 17.4019 72.8354 17.7628 73.7088 17.8338C74.3234 17.8818 74.5374 18.0863 74.5374 18.6271V19.1323C74.5374 19.6855 74.2288 19.9256 73.5919 19.9256C71.2254 19.9256 69.1452 18.5336 69.1452 15.4591L69.1253 9.69404ZM82.174 18.0988C84.4459 18.0988 86.2897 16.2751 86.2897 13.7285C86.2897 11.1819 84.4508 9.40597 82.174 9.40597C79.8972 9.40597 78.0608 11.2073 78.0608 13.7285C78.0608 16.2498 79.9346 18.0988 82.1741 18.0988H82.174ZM82.174 7.38993C85.7473 7.38993 88.6436 10.0552 88.6436 13.7285C88.6436 17.4018 85.7596 20.115 82.174 20.115C78.5883 20.115 75.7416 17.427 75.7416 13.7285C75.7416 10.03 78.6082 7.38993 82.174 7.38993ZM91.1667 8.46372C91.1537 8.35644 91.165 8.24754 91.1997 8.1454C91.2345 8.04325 91.2919 7.95058 91.3673 7.8745C91.4427 7.79821 91.5342 7.74041 91.6348 7.70549C91.7355 7.67057 91.8426 7.65945 91.9481 7.67299H92.61C93.1294 7.67299 93.3888 7.93644 93.3888 8.46372V9.54994C93.3865 9.78404 93.3632 10.0174 93.3192 10.2472H93.3714C93.9636 8.83006 95.6408 7.38993 97.5343 7.38993C99.5449 7.38993 100.702 8.32464 101.128 10.1513H101.175C101.966 8.50078 103.598 7.43592 105.405 7.38993C108.125 7.38993 109.354 8.9513 109.354 12.0484V19.0337C109.354 19.5643 109.105 19.827 108.573 19.827H107.841C107.735 19.8406 107.628 19.8294 107.527 19.7944C107.426 19.7593 107.334 19.7013 107.259 19.6247C107.184 19.5482 107.126 19.4552 107.092 19.3527C107.057 19.2503 107.046 19.1412 107.06 19.0337V12.5511C107.06 10.846 106.729 9.50195 104.955 9.50195C102.732 9.50195 101.406 11.8312 101.406 14.1604V19.0337C101.406 19.5643 101.157 19.827 100.66 19.827H99.9132C99.4155 19.827 99.1667 19.5744 99.1667 19.0337V12.5511C99.1667 10.9672 98.9303 9.50195 97.0864 9.50195C94.8147 9.50195 93.4908 11.9046 93.4908 14.1604V19.0337C93.4908 19.5643 93.2296 19.827 92.7095 19.827H91.978C91.8722 19.8406 91.7648 19.8294 91.664 19.7944C91.5631 19.7593 91.4715 19.7013 91.396 19.6247C91.3207 19.5482 91.2635 19.4552 91.229 19.3527C91.1944 19.2503 91.1834 19.1412 91.1967 19.0337L91.1667 8.46372ZM120.586 12.4426C120.516 10.3179 119.262 9.22154 117.677 9.22154C115.935 9.22154 114.51 10.4216 114.179 12.4629L120.586 12.4426ZM117.725 7.38993C121.036 7.38993 122.88 9.79003 122.88 13.1753C122.881 13.2829 122.861 13.3896 122.821 13.4891C122.781 13.5887 122.722 13.6792 122.647 13.7553C122.573 13.8315 122.483 13.8917 122.385 13.9326C122.287 13.9735 122.182 13.9942 122.077 13.9935H114.084C114.226 16.6338 116.092 18.0988 118.222 18.0988C119.251 18.0913 120.252 17.7556 121.084 17.1389C121.534 16.8864 121.888 16.9471 122.149 17.3917L122.36 17.7526C122.421 17.8359 122.463 17.9316 122.483 18.033C122.503 18.1344 122.501 18.2391 122.478 18.3398C122.454 18.4404 122.409 18.5346 122.346 18.6156C122.282 18.6967 122.202 18.7627 122.111 18.809C120.925 19.6494 119.514 20.1015 118.068 20.1049C114.308 20.1049 111.73 17.3437 111.73 13.7409C111.743 9.88601 114.321 7.38993 117.725 7.38993Z" fill="white"/>
<g id="Group">
<g id="Mask group">
<mask id="mask0_2302_7860" style="mask-type:luminance" maskUnits="userSpaceOnUse" x="0" y="-1" width="132" height="24">
<g id="Group_2">
<path id="Vector_2" d="M0 -0.00964355H132V23H0V-0.00964355Z" fill="white"/>
</g>
</mask>
<g mask="url(#mask0_2302_7860)">
<path id="Vector_3" fill-rule="evenodd" clip-rule="evenodd" d="M125.389 8.46363C125.375 8.3565 125.386 8.24769 125.421 8.14555C125.455 8.04341 125.512 7.95065 125.587 7.87441C125.662 7.79803 125.754 7.74016 125.854 7.70523C125.955 7.6703 126.062 7.65924 126.167 7.67289H126.829C127.352 7.67289 127.611 7.92541 127.611 8.46363V9.85815C127.61 10.1635 127.587 10.4684 127.541 10.7701H127.588C128.108 9.16064 129.454 7.57678 131.254 7.57678C131.796 7.57678 132 7.82943 132 8.36752V9.04468C132 9.5751 131.691 9.83793 131.149 9.83793C128.808 9.83793 127.665 12.4071 127.665 14.8097V19.0336C127.665 19.5642 127.417 19.8269 126.884 19.8269H126.138C126.032 19.84 125.925 19.8285 125.824 19.7933C125.724 19.7581 125.632 19.7001 125.557 19.6236C125.482 19.5471 125.425 19.4542 125.391 19.352C125.356 19.2497 125.345 19.1409 125.359 19.0336L125.389 8.46363Z" fill="white"/>
</g>
</g>
<g id="Mask group_2">
<mask id="mask1_2302_7860" style="mask-type:luminance" maskUnits="userSpaceOnUse" x="0" y="-1" width="132" height="24">
<g id="Group_3">
<path id="Vector_4" d="M0 -0.00964355H132V23H0V-0.00964355Z" fill="white"/>
</g>
</mask>
<g mask="url(#mask1_2302_7860)">
<path id="Vector_5" fill-rule="evenodd" clip-rule="evenodd" d="M12.6481 8.29178V11.48C12.6491 11.6536 12.7178 11.8198 12.8391 11.942C12.9605 12.0641 13.1245 12.1323 13.2952 12.1315H15.4026C15.4869 12.1319 15.5705 12.1154 15.6484 12.0829C15.7264 12.0503 15.7973 12.0023 15.857 11.9418C15.9167 11.8812 15.964 11.8092 15.9962 11.73C16.0285 11.6507 16.0449 11.5657 16.0447 11.48V9.35288C16.0449 9.2671 16.0285 9.18214 15.9963 9.10287C15.9641 9.02361 15.9167 8.95161 15.8571 8.89102C15.7974 8.83044 15.7265 8.78246 15.6486 8.74987C15.5706 8.71727 15.487 8.70069 15.4027 8.70109H13.932V8.28424C13.9403 7.46637 14.5972 6.80856 15.4027 6.81132C15.5728 6.81142 15.7359 6.74282 15.8563 6.6206C15.9766 6.49838 16.0444 6.33255 16.0446 6.15954C16.0444 5.98649 15.9767 5.82062 15.8563 5.69839C15.7359 5.57616 15.5727 5.50758 15.4026 5.50775C15.042 5.50533 14.6846 5.57535 14.3507 5.71378C14.0168 5.85221 13.713 6.05633 13.4568 6.31444C13.2009 6.57224 12.9977 6.87902 12.8589 7.21709C12.7201 7.55517 12.6484 7.91785 12.648 8.28424L12.6481 8.29178ZM6.76318 8.29178V11.48C6.76333 11.5658 6.78013 11.6508 6.81262 11.7301C6.84511 11.8093 6.89265 11.8813 6.95252 11.9418C7.01239 12.0023 7.08341 12.0502 7.16151 12.0828C7.23961 12.1153 7.32325 12.1319 7.40765 12.1315H9.5153C9.686 12.1323 9.85003 12.0641 9.97136 11.942C10.0927 11.8198 10.1614 11.6536 10.1624 11.48V9.35288C10.1624 9.26673 10.1456 9.18144 10.113 9.10193C10.0804 9.02242 10.0326 8.95028 9.97246 8.88967C9.91229 8.82906 9.84091 8.78119 9.76244 8.74882C9.68397 8.71645 9.59997 8.70023 9.5153 8.70109H8.05472V8.28424C8.06139 7.46976 8.71302 6.8127 9.5153 6.81132C9.68539 6.81149 9.84857 6.74291 9.96897 6.62068C10.0894 6.49845 10.1571 6.33258 10.1573 6.15954C10.1572 6.07385 10.1406 5.98902 10.1082 5.90989C10.0759 5.83076 10.0286 5.75887 9.969 5.69835C9.90939 5.63782 9.83863 5.58984 9.76079 5.55714C9.68294 5.52443 9.59953 5.50765 9.5153 5.50775C9.15495 5.50567 8.79772 5.57596 8.46411 5.71458C8.1305 5.8532 7.82705 6.05743 7.57115 6.31557C7.31552 6.57329 7.11253 6.87992 6.97386 7.21779C6.83519 7.55566 6.76359 7.9181 6.76318 8.28424V8.29178ZM7.53707 15.1129C7.48339 15.1143 7.43098 15.1298 7.38497 15.158C7.33896 15.1862 7.30093 15.226 7.27459 15.2736C7.24826 15.3212 7.23452 15.375 7.23473 15.4296C7.23493 15.4842 7.24908 15.5379 7.27577 15.5853C7.33307 15.6838 8.69919 18.0332 11.4213 18.0332C14.1435 18.0332 15.4873 15.6839 15.5494 15.5853C15.5762 15.5371 15.5903 15.4827 15.5903 15.4274C15.5903 15.372 15.5762 15.3176 15.5494 15.2694C15.5226 15.2217 15.4838 15.1821 15.4371 15.1546C15.3903 15.1271 15.3372 15.1127 15.2832 15.1129H7.53707Z" fill="white"/>
</g>
</g>
<g id="Mask group_3">
<mask id="mask2_2302_7860" style="mask-type:luminance" maskUnits="userSpaceOnUse" x="0" y="-1" width="132" height="24">
<g id="Group_4">
<path id="Vector_6" d="M0 -0.00964355H132V23H0V-0.00964355Z" fill="white"/>
</g>
</mask>
<g mask="url(#mask2_2302_7860)">
<path id="Vector_7" fill-rule="evenodd" clip-rule="evenodd" d="M7.02684 -0.00962092C3.15409 -0.0194203 0.00421856 3.15482 -0.0150452 7.08676V15.9037C0.00409508 19.8356 3.15409 23.0099 7.02684 23.0001H12.964L9.05237 20.1628H7.02684C4.70086 20.1713 2.80771 18.2652 2.79672 15.9037V7.08676C2.81586 4.72863 4.70432 2.82717 7.02684 2.82742H15.7782C18.101 2.82717 19.9892 4.72875 20.0084 7.08676V15.9037C19.9892 18.2618 18.1011 20.163 15.7782 20.1626H14.1161V23.0001H15.7782C19.6516 23.0099 22.8021 19.8359 22.8227 15.9037V7.08676C22.802 3.15457 19.6516 -0.0194203 15.7782 -0.00962092H7.02684Z" fill="white"/>
</g>
</g>
</g>
</g>
</svg>
