<svg width="178" height="40" viewBox="0 0 178 40" fill="none" xmlns="http://www.w3.org/2000/svg">
<path fill-rule="evenodd" clip-rule="evenodd" d="M0.126461 11.2757C1.2414 10.9309 2.39083 10.5746 3.54025 10.3447C5.35635 9.9769 7.19543 9.88495 9.03451 9.9769C10.2529 10.0574 11.4943 10.1723 12.6437 10.6206C12.954 10.747 13.2874 10.8849 13.5747 11.0574C13.7586 11.1493 13.8851 11.1493 14.069 11.0803C16.8966 9.74701 19.8276 9.62058 22.7931 10.4137C25.5862 11.1263 27.069 13.1608 27.6667 15.9079C27.8276 16.7355 27.8851 17.6206 27.8851 18.4826C27.8851 22.1608 27.8851 25.839 27.8851 29.4941C27.8851 29.8045 27.7586 29.8964 27.4713 29.9424C25.6092 30.2298 23.7471 30.2298 21.8621 29.9424C21.5288 29.8964 21.4598 29.77 21.4828 29.4597C21.4828 26.1033 21.4828 22.7355 21.4828 19.3907C21.4828 18.77 21.4598 18.1723 21.3104 17.5746C20.977 16.2183 20.2644 15.5976 18.8736 15.5171C18.2529 15.4712 17.6552 15.5976 17.0575 15.7355C16.8736 15.7815 16.8161 15.8735 16.8736 16.0459C17.1035 16.9999 17.1609 17.9539 17.1609 18.9079C17.1609 22.4252 17.1609 25.9539 17.1609 29.4597C17.1609 29.77 17.0575 29.8734 16.7701 29.9194C14.8851 30.203 13 30.203 11.115 29.9194C10.8736 29.8734 10.7816 29.8045 10.7816 29.5401C10.7816 26.1263 10.7816 22.7355 10.7816 19.3217C10.7816 18.701 10.7586 18.0803 10.5862 17.4826C10.2759 16.1608 9.54025 15.5631 8.17244 15.4941C7.72416 15.4712 7.28738 15.5401 6.8391 15.6206C6.55175 15.6666 6.4483 15.7815 6.4483 16.0918C6.4483 19.839 6.4483 23.5899 6.4483 27.3447C6.4483 28.0803 6.4483 28.839 6.4483 29.5861C6.4483 29.8045 6.37933 29.8964 6.17244 29.9194C4.11497 30.2528 2.08048 30.2528 0.0574951 29.8505V11.2757H0.126461Z" fill="white"/>
<path fill-rule="evenodd" clip-rule="evenodd" d="M176.989 29.8505C176.172 29.9425 175.356 30.0574 174.552 30.0919C173.046 30.1609 171.563 30.1149 170.08 29.8735C169.885 29.8505 169.816 29.7471 169.724 29.5862C168.402 26.7701 167.069 23.954 165.736 21.1264C165.632 20.9195 165.655 20.8505 165.851 20.7471C166.448 20.4137 167.069 20.0574 167.529 19.5517C168.287 18.6934 168.571 17.6934 168.379 16.5517C168.218 15.6206 167.494 15.0459 166.425 14.9425C166.046 14.9195 165.632 14.9425 165.253 14.9425C164.966 14.9425 164.874 15.0459 164.874 15.3793C164.897 19.6321 164.874 23.8735 164.874 28.1034C164.874 28.5862 164.874 29.0804 164.874 29.5632C164.874 29.8045 164.805 29.8965 164.586 29.9195C162.678 30.226 160.766 30.226 158.851 29.9195C158.609 29.8735 158.563 29.7701 158.563 29.5632C158.563 23.2758 158.563 17.0229 158.563 10.7471C158.563 10.5287 158.586 10.4137 158.851 10.3908C161.356 10.1034 163.874 9.86201 166.402 9.90799C168.092 9.93098 169.747 10.1494 171.322 10.816C174.241 12.0804 175.287 14.4942 175 17.3563C174.885 18.4137 174.552 19.3908 173.954 20.2758C173.644 20.7241 173.253 21.0574 172.851 21.4137C172.736 21.5402 172.655 21.6091 172.759 21.7816C174.115 24.3793 175.475 26.9808 176.839 29.5862C176.862 29.6321 176.885 29.7011 176.954 29.7011V29.8505H176.989Z" fill="white"/>
<path fill-rule="evenodd" clip-rule="evenodd" d="M58.1264 22.7815C58.1264 25.0038 58.1264 27.2222 58.1264 29.4367C58.1264 29.7471 58.046 29.8735 57.7126 29.9195C55.8276 30.2068 53.9425 30.2068 52.0575 29.8965C51.7931 29.8505 51.7241 29.7471 51.7241 29.5172C51.7241 23.5478 51.7241 17.5785 51.7241 11.6091C51.7241 11.3448 51.7931 11.2758 52.0345 11.1723C54.6322 10.2873 57.3103 9.862 60.0804 9.95395C61.6092 9.99993 63.1149 10.1034 64.5517 10.6781C67.0575 11.6551 68.3908 13.5861 68.8735 16.1838C69.0115 16.9999 69.0575 17.839 69.0575 18.6436C69.0575 22.2528 69.0575 25.8582 69.0575 29.4597C69.0575 29.77 68.9655 29.8735 68.6781 29.9195C66.7701 30.2298 64.885 30.2068 62.9655 29.9195C62.7126 29.8735 62.6552 29.77 62.6552 29.5172C62.6552 25.9999 62.6552 22.4712 62.6552 18.954C62.6552 18.5057 62.5862 18.0574 62.4942 17.5976C62.1839 16.2643 61.2758 15.5402 59.8391 15.4942C59.3908 15.4712 58.954 15.5402 58.5057 15.6206C58.2184 15.6666 58.1264 15.7815 58.1264 16.0689C58.1264 18.2873 58.1264 20.5402 58.1264 22.7815Z" fill="white"/>
<path fill-rule="evenodd" clip-rule="evenodd" d="M88.8391 28.7472C88.8391 28.9886 88.7701 29.1035 88.5288 29.1495C86.6667 29.6322 84.8276 30.092 82.8966 30.2299C80.5747 30.3679 78.2874 30.3449 76.0575 29.5173C73.5977 28.5633 72.1954 26.5748 72.1379 23.9311C72.115 23.2299 72.1379 22.5403 72.3104 21.8736C72.7931 20.0115 74.0575 18.8621 75.7471 18.1035C76.9196 17.5748 78.1609 17.3794 79.4023 17.2644C80.4828 17.1495 81.5747 17.1955 82.6782 17.1955C82.9425 17.1955 82.9885 17.1495 82.9425 16.8851C82.7931 16.161 82.3678 15.6897 81.7242 15.3794C80.8851 15 80 14.9196 79.115 14.9426C77.6667 14.9771 76.2529 15.2529 74.8621 15.7357C74.7012 15.8046 74.6092 15.7817 74.5058 15.6207C73.7471 14.2989 73.3908 12.8966 73.4138 11.3679C73.4138 11.1495 73.4598 11.0575 73.6667 10.9886C75.9655 10.2644 78.2874 9.81614 80.6897 9.86212C81.9081 9.88511 83.1265 10.0575 84.2759 10.4828C86.7586 11.3909 88.1494 13.184 88.6437 15.7357C88.7931 16.5518 88.8391 17.3334 88.8391 18.1495C88.8391 20.0345 88.8391 26.8391 88.8391 28.7472ZM82.9425 21.4713C82.9425 21.2759 82.8966 21.2069 82.6782 21.2069C82.0115 21.2299 81.3104 21.2069 80.6437 21.2299C79.8851 21.2529 79.1609 21.3909 78.5173 21.8276C78.069 22.115 77.7816 22.5173 77.6897 23.046C77.5173 24.138 78.023 24.9771 79.1379 25.3334C80.3563 25.7127 81.5747 25.6207 82.7931 25.4023C82.9885 25.3794 82.9655 25.2644 82.9655 25.138V23.3104C82.9655 22.7127 82.9655 22.092 82.9425 21.4713Z" fill="white"/>
<path fill-rule="evenodd" clip-rule="evenodd" d="M47.6552 28.7242C47.6552 28.9196 47.6782 29.0575 47.4253 29.1265C44.9081 29.8046 42.3793 30.3449 39.7471 30.2989C37.9655 30.2529 36.1724 30.115 34.4943 29.3449C32.2989 28.3449 31.1724 26.5977 31.0115 24.2069C30.9655 23.4713 30.9655 22.7587 31.1035 22.0345C31.4368 20.3909 32.4713 19.2414 33.8736 18.4368C35.023 17.7702 36.2874 17.4828 37.5977 17.3104C38.8966 17.1495 40.1839 17.1954 41.4713 17.1954C41.7816 17.1954 41.8276 17.092 41.7816 16.8391C41.6437 16.138 41.2069 15.6667 40.5862 15.3794C39.7242 14.9771 38.8161 14.9196 37.9081 14.9426C36.4598 14.9771 35.046 15.2529 33.6897 15.7357C33.5402 15.8046 33.4483 15.7817 33.3563 15.6207C32.5862 14.2989 32.2529 12.8966 32.2529 11.3909C32.2529 11.1725 32.2989 11.0575 32.5173 10.9886C34.8046 10.2874 37.1494 9.81614 39.5632 9.8851C41.3333 9.93108 43.046 10.2414 44.5747 11.2184C46.2759 12.3219 47.1609 13.9656 47.5173 15.9081C47.6552 16.6207 47.6782 17.3564 47.6782 18.0805C47.6782 19.6782 47.6782 21.2989 47.6782 22.8966C47.6782 24.8276 47.6782 26.7702 47.6552 28.7242ZM41.8506 21.5173C41.8506 21.2989 41.7816 21.2299 41.5632 21.2299C40.8966 21.2529 40.2069 21.2299 39.5402 21.2529C38.7931 21.2529 38.0805 21.4138 37.4368 21.8276C36.8621 22.184 36.5517 22.7127 36.5517 23.3794C36.5517 24.4253 37.1264 25.115 38.2759 25.4253C39.3908 25.7127 40.5402 25.6207 41.6667 25.4253C41.8506 25.3794 41.8506 25.2644 41.8506 25.115C41.8506 24.525 41.8506 23.9311 41.8506 23.3334C41.8506 22.7127 41.8276 22.115 41.8506 21.5173Z" fill="white"/>
<path fill-rule="evenodd" clip-rule="evenodd" d="M154.839 23.6207C154 26.6666 151.977 28.5632 149.035 29.5632C147.655 30.0115 146.218 30.2299 144.759 30.2988C142.299 30.4253 139.862 30.2299 137.425 29.8965C137.184 29.8506 137.115 29.7471 137.115 29.5172C137.115 26.3563 137.115 23.2299 137.115 20.0804C137.115 16.977 137.138 13.8965 137.115 10.7931C137.115 10.4827 137.184 10.3678 137.517 10.3448C139.172 10.1954 140.816 9.97699 142.471 9.90803C145.046 9.81607 147.575 9.93102 150.012 10.9655C152.977 12.2299 154.644 14.4942 155.126 17.6666C155.437 19.6781 155.368 21.6552 154.839 23.6207ZM148.701 18.2643C148.414 16.885 147.678 15.8735 146.264 15.4712C145.448 15.2299 144.667 15.2873 143.851 15.3563C143.586 15.3793 143.517 15.4712 143.517 15.7356C143.517 17.2145 143.517 18.6935 143.517 20.1724C143.517 21.659 143.517 23.1417 143.517 24.6207C143.517 24.8276 143.517 24.954 143.805 24.977C144.207 25 144.644 25.023 145.046 25C146.885 24.908 148.08 24.023 148.529 22.3448C148.92 20.9885 148.943 19.6092 148.701 18.2643Z" fill="white"/>
<path d="M132.885 17.885C132.885 17.6896 132.885 17.4827 132.885 17.2873C132.885 16.6666 132.885 16.0229 132.839 15.3792C132.552 12.4367 130.046 9.81601 127.127 9.4367C126.586 9.35624 125.989 9.33325 125.241 9.33325C124.885 9.33325 124.506 9.33325 124.15 9.35624C123.931 9.35624 123.713 9.35624 123.529 9.35624C123.529 9.52865 123.552 9.66659 123.552 9.839V9.86199C123.575 10.7241 123.575 12.0114 123.529 13.2528V13.2988C123.529 13.4482 123.529 13.5861 123.506 13.7585C125.035 13.7815 126.15 13.8735 126.299 13.8735C126.391 13.8735 126.46 13.8965 126.529 13.9195C127.678 14.2068 128.368 15.1149 128.368 16.3562C128.368 18.5516 128.368 20.9654 128.368 23.6666C128.368 25.1953 127.368 26.1723 125.839 26.1723H122.517C121.728 26.1723 120.943 26.1723 120.161 26.1723C119.368 26.1723 119.058 26.4827 119.035 27.2643C119.035 27.3447 119.035 27.4367 119.035 27.5057C119.035 27.5057 119.035 28.7241 119.035 29.2988C119.035 30.5631 119.035 31.8275 119.035 33.0919C119.035 34.3792 118.035 35.4597 116.816 35.4597C115.471 35.4827 114.138 35.4827 112.851 35.4827C111.529 35.4827 110.218 35.4827 108.954 35.4597C107.736 35.4367 106.736 34.4137 106.736 33.1378V31.8505C106.736 31.8505 106.713 31.2758 106.678 30.4712C106.678 30.3447 106.678 30.2068 106.678 30.0574V30.0344C106.678 29.1493 106.678 27.839 106.782 26.6666L106.713 26.5976H106.782C106.782 26.5516 106.782 26.5287 106.782 26.5057V26.4367C106.805 26.2873 106.805 26.1493 106.828 25.9769C106.828 25.885 106.851 25.793 106.874 25.6666L106.897 25.5287L106.92 25.4252C106.92 25.3792 106.943 25.3333 106.943 25.2643C107 24.9999 107.069 24.7356 107.138 24.4712C107.805 21.8965 109.092 19.6551 110.989 17.816C112.517 16.3333 114.276 15.2298 116.264 14.5401C116.287 14.5401 116.333 14.5172 116.379 14.5172L116.506 14.4942C116.506 14.4942 116.621 14.4482 116.644 14.4482L116.816 14.4022C117.506 14.1838 118.218 14.0344 118.92 13.9424C118.943 13.7815 118.943 13.6321 118.966 13.4942V13.4137C118.966 13.3907 118.966 13.3677 118.966 13.3218H119.035L118.966 13.2528C119.058 12.0804 119.058 10.77 119.058 9.88498V9.86199C119.058 9.71256 119.058 9.57463 119.058 9.45969C118.287 9.50567 117.552 9.57463 116.954 9.66659H116.931C115.356 9.99992 113.828 10.5516 112.414 11.2758C108.782 13.1034 105.989 15.931 104.104 19.6321C103.15 21.4942 102.552 23.5401 102.287 25.7356V25.7585C102.287 25.908 102.264 26.0689 102.264 26.2413C102.264 26.3907 102.241 26.5516 102.241 26.7011V26.747C102.195 27.9884 102.195 29.2758 102.218 30.1379V30.1608C102.241 30.3218 102.241 30.4712 102.241 30.6321C102.241 30.9195 102.241 31.2528 102.241 31.5861V31.8275C102.241 32.3333 102.241 32.8505 102.264 33.3792C102.402 36.2183 103.816 38.2758 106.471 39.4712C106.943 39.6896 107.425 39.8045 107.897 39.8735C108.046 39.8965 108.184 39.9424 108.333 39.9769L108.448 39.9999H117.437L117.667 39.9424C117.667 39.9424 117.701 39.9195 117.724 39.9195C121.253 39.3562 123.598 36.5861 123.621 32.9999V32.4022C123.621 31.8275 123.621 31.2528 123.621 30.6781C123.816 30.6781 124.023 30.6781 124.218 30.6781C124.483 30.6781 124.724 30.6781 124.977 30.6781H125.264H125.885C126.368 30.6781 126.874 30.6551 127.368 30.5631C130.69 29.8735 132.908 27.1264 132.931 23.7585C132.885 21.3907 132.885 19.5746 132.885 17.885Z" fill="white"/>
<path d="M123.552 9.86203V9.83904C123.552 9.68962 123.529 9.5287 123.529 9.35628C123.529 9.04594 123.529 8.73559 123.529 8.40226V8.16088C123.529 7.66663 123.529 7.13789 123.506 6.60916C123.356 3.77008 121.943 1.7241 119.299 0.528696C118.816 0.310306 118.345 0.218352 117.862 0.114903C117.724 0.0919147 117.575 0.0459377 117.437 0.0229492H117.31H108.333L108.092 0.0689262C108.069 0.0689262 108.069 0.0919147 108.046 0.0919147C104.529 0.666627 102.149 3.43674 102.149 7.02295V7.62065C102.149 8.1877 102.149 8.75858 102.149 9.33329C101.954 9.33329 101.736 9.33329 101.552 9.33329C101.287 9.33329 101.046 9.33329 100.782 9.33329H100.494H99.8736C99.4023 9.33329 98.8966 9.35628 98.3908 9.45973C95.069 10.1494 92.8506 12.8965 92.8506 16.2643C92.8506 18.6207 92.8506 20.4367 92.8506 22.1379C92.8506 22.3218 92.8506 22.5402 92.8506 22.7356C92.8506 23.3563 92.8506 24 92.8966 24.6436C93.1839 27.5977 95.7012 30.2069 98.6092 30.5862C99.1609 30.6551 99.7586 30.6781 100.471 30.6781C100.851 30.6781 101.218 30.6781 101.575 30.6551C101.759 30.6551 101.977 30.6551 102.195 30.6551C102.195 30.4942 102.172 30.3448 102.172 30.1839V30.1609C102.172 29.2988 102.149 28.0115 102.195 26.7701V26.7241C102.195 26.5747 102.195 26.4367 102.218 26.2643C100.667 26.2413 99.5402 26.1494 99.4253 26.1494C99.3219 26.1494 99.2529 26.1264 99.1839 26.1034C98.0345 25.8161 97.3448 24.908 97.3448 23.6666C97.3219 21.4712 97.3219 19.0574 97.3448 16.3563C97.3448 14.8275 98.3448 13.8505 99.8736 13.8505H103.195C103.989 13.8505 104.747 13.8505 105.54 13.8505C106.322 13.8505 106.632 13.5402 106.655 12.7471V12.5172C106.655 12.5172 106.655 11.2988 106.655 10.7241C106.655 9.45973 106.655 8.19153 106.655 6.9195C106.655 5.63214 107.667 4.56318 108.885 4.56318C110.218 4.54019 111.552 4.54019 112.851 4.54019C114.161 4.54019 115.471 4.54019 116.736 4.56318C117.954 4.58617 118.966 5.60916 118.966 6.87352V8.16088C118.966 8.16088 118.989 8.73559 119.012 9.55168C119.012 9.68962 119.012 9.81605 119.012 9.95398V9.97697C119.012 10.862 119.012 12.1724 118.92 13.3448L118.989 13.4138H118.92C118.92 13.4712 118.92 13.4942 118.92 13.5172V13.5862C118.885 13.7241 118.885 13.8735 118.862 14.0459C118.839 14.1379 118.839 14.2298 118.816 14.3563L118.793 14.4942L118.77 14.5862C118.77 14.6321 118.77 14.6896 118.747 14.7356C118.701 15 118.632 15.2873 118.552 15.5172C117.885 18.1034 116.598 20.3448 114.713 22.1839C113.207 23.6666 111.414 24.7586 109.425 25.4482C109.379 25.4827 109.356 25.4827 109.31 25.5057L109.195 25.5287C109.195 25.5287 109.069 25.5747 109.046 25.5747L108.885 25.6206C108.184 25.839 107.471 25.977 106.782 26.0804C106.759 26.2413 106.759 26.3908 106.736 26.5287L106.713 26.5977C106.713 26.6206 106.713 26.6436 106.713 26.7011H106.632L106.713 26.7701C106.609 27.9425 106.609 29.2528 106.609 30.1379V30.1609C106.609 30.2988 106.609 30.4482 106.609 30.5632C107.379 30.5172 108.115 30.4482 108.713 30.3448H108.736C110.31 30.0115 111.839 29.4597 113.253 28.7471C116.885 26.908 119.678 24.0919 121.563 20.3908C122.494 18.5287 123.115 16.4712 123.379 14.2758V14.2528C123.402 14.0919 123.402 13.9425 123.402 13.7816C123.402 13.6321 123.402 13.4942 123.425 13.3218V13.2758C123.575 12.0115 123.575 10.7241 123.552 9.86203Z" fill="white"/>
</svg>
