<svg width="204" height="24" viewBox="0 0 204 24" fill="none" xmlns="http://www.w3.org/2000/svg">
<g clip-path="url(#clip0_221_112)">
<path d="M0 18.8872H8.70882V9.99827H22.6429V18.8872H31.3518V1.10938H0V18.8872Z" fill="white"/>
<path d="M20.9011 11.7761H10.4504V22.4427H20.9011V11.7761Z" fill="white"/>
<path d="M43.5529 18.8773V6.36928C43.5355 6.20151 43.5225 6.05889 43.5138 5.94144C43.5051 5.824 43.4963 5.71075 43.4876 5.60169C43.4789 5.49264 43.4659 5.37519 43.4484 5.24935C43.431 5.12352 43.4136 4.96832 43.3962 4.78376C43.4484 4.96832 43.492 5.12352 43.5268 5.24935C43.5617 5.37519 43.6008 5.49683 43.6444 5.61428L43.775 5.96661C43.8186 6.08405 43.8752 6.22667 43.9448 6.39445L49.4575 18.8773H53.6639L59.1765 6.14279C59.3159 5.824 59.416 5.58491 59.477 5.42552C59.5379 5.26613 59.6119 5.05221 59.699 4.78376C59.6468 5.11932 59.6032 5.41293 59.5684 5.66461C59.5336 5.91628 59.5162 6.17633 59.5162 6.44479V18.8773H63.8793V1.10938H57.2693L52.4621 12.1829C52.3227 12.4849 52.2095 12.7491 52.1224 12.9756C52.0354 13.2021 51.9613 13.4035 51.9004 13.5796C51.8394 13.7559 51.7872 13.9277 51.7436 14.0956C51.7001 14.2633 51.6522 14.4395 51.5999 14.6241C51.5303 14.3724 51.4649 14.1459 51.4039 13.9445C51.3429 13.7432 51.2776 13.5461 51.2079 13.3532C51.1382 13.1602 51.0599 12.9547 50.9728 12.7365C50.8857 12.5184 50.7812 12.2668 50.6593 11.9815L45.852 1.10938H39.1898V18.8773H43.5529Z" fill="white"/>
<path fill-rule="evenodd" clip-rule="evenodd" d="M74.7783 19.4059C76.0149 19.4059 77.1819 19.2548 78.2793 18.9528C79.3766 18.6508 80.3345 18.1978 81.1531 17.5938C81.9717 16.9898 82.6206 16.2474 83.0996 15.3666C83.5786 14.4856 83.8181 13.4664 83.8181 12.3087C83.8181 11.4027 83.6265 10.5428 83.2433 9.7291C82.8601 8.91537 82.2939 8.2023 81.545 7.58991C80.796 6.97751 79.8686 6.48675 78.7626 6.11763C77.6565 5.74851 76.3807 5.56396 74.935 5.56396C73.6113 5.56396 72.3877 5.72335 71.2642 6.04214C70.1408 6.36091 69.1655 6.82231 68.338 7.42632C67.5107 8.03032 66.8619 8.76018 66.3917 9.61586C65.9214 10.4715 65.6863 11.4363 65.6863 12.5101C65.6863 13.5671 65.9083 14.5192 66.3525 15.3666C66.7966 16.2138 67.4149 16.9352 68.2074 17.531C68.9999 18.1266 69.9536 18.5879 71.0683 18.9151C72.183 19.2423 73.4196 19.4059 74.7783 19.4059ZM72.2309 15.8447C72.8492 16.1719 73.7071 16.3355 74.8044 16.3355C75.6927 16.3355 76.4286 16.2138 77.012 15.9706C77.5955 15.7272 78.0659 15.4127 78.423 15.0268C78.78 14.6408 79.0282 14.2131 79.1675 13.7432C79.3069 13.2735 79.3766 12.8205 79.3766 12.3842C79.3766 11.8138 79.2677 11.2895 79.05 10.8113C78.8323 10.3331 78.5144 9.92625 78.0963 9.59069C77.6782 9.25512 77.1688 8.99926 76.5679 8.82309C75.967 8.64693 75.2921 8.57562 74.5432 8.60917C73.7594 8.64273 73.0887 8.77695 72.5313 9.01185C71.974 9.24674 71.5212 9.54455 71.1728 9.90527C70.8245 10.266 70.5676 10.6771 70.4021 11.1385C70.2366 11.5999 70.1539 12.0738 70.1539 12.5604C70.1539 12.745 70.1931 13.0428 70.2715 13.4539C70.3498 13.865 70.5414 14.2843 70.8462 14.7122C71.151 15.14 71.6126 15.5175 72.2309 15.8447Z" fill="white"/>
<path d="M90.3016 18.9779C90.8241 18.9779 91.3466 18.9568 91.8691 18.915C92.3917 18.873 92.9143 18.8268 93.4368 18.7766V15.8068C93.2103 15.8404 93.0101 15.8614 92.8359 15.8698C92.6617 15.8782 92.4264 15.8823 92.1303 15.8823C91.5207 15.8823 91.0897 15.7859 90.8371 15.593C90.5846 15.3999 90.4583 14.9931 90.4583 14.3723V8.60904H93.4106V6.14268H90.4583V2.74512H86.1736V6.14268H84.0312V8.60904H86.1736V15.4294C86.1736 15.6642 86.1823 15.9243 86.1997 16.2095C86.2171 16.4947 86.2781 16.7758 86.3826 17.0526C86.4871 17.3294 86.6438 17.5936 86.8528 17.8454C87.0618 18.097 87.3579 18.3235 87.7411 18.5248C88.1069 18.7094 88.5119 18.8311 88.9561 18.8898C89.4002 18.9486 89.8487 18.9779 90.3016 18.9779Z" fill="white"/>
<path d="M99.3436 11.5537V18.8773H95.0327V1.10938H99.3436V7.75347C99.4307 7.66959 99.5526 7.55633 99.7094 7.41372C99.8661 7.27111 100.066 7.12429 100.31 6.97329C100.972 6.53707 101.695 6.23507 102.479 6.06728C103.262 5.89951 104.064 5.81561 104.882 5.81561C105.283 5.81561 105.718 5.84077 106.189 5.89111C106.659 5.94144 107.134 6.03372 107.613 6.16795C108.092 6.30217 108.549 6.48253 108.984 6.70904C109.42 6.93555 109.812 7.22496 110.16 7.57731C110.439 7.86253 110.656 8.15615 110.813 8.45815C110.97 8.76016 111.083 9.06216 111.153 9.36416C111.222 9.66617 111.266 9.96397 111.283 10.2576C111.301 10.5512 111.309 10.849 111.309 11.151V18.8773H106.972V11.9564C106.972 11.604 106.951 11.2349 106.907 10.849C106.864 10.4631 106.694 10.1024 106.398 9.76684L106.163 9.54033C106.041 9.42288 105.858 9.30124 105.614 9.17541C105.37 9.04957 105.061 8.93632 104.686 8.83565C104.312 8.73499 103.855 8.68465 103.315 8.68465C102.635 8.68465 102.039 8.76016 101.525 8.91116C101.011 9.06216 100.572 9.28028 100.206 9.56549C99.8051 9.90107 99.5613 10.2198 99.4742 10.5219C99.3871 10.8239 99.3436 11.1678 99.3436 11.5537Z" fill="white"/>
<path fill-rule="evenodd" clip-rule="evenodd" d="M121.357 19.3806C123.22 19.3806 124.923 19.045 126.464 18.374C128.006 17.7028 129.264 16.5954 130.24 15.0518L125.772 14.6241C125.668 14.7414 125.524 14.9009 125.341 15.1022C125.158 15.3036 124.901 15.4965 124.57 15.681C124.239 15.8656 123.83 16.0292 123.342 16.1718C122.855 16.3144 122.262 16.3857 121.566 16.3857C120.852 16.3857 120.155 16.2766 119.475 16.0585C118.796 15.8405 118.23 15.4629 117.777 14.9261C117.533 14.6576 117.351 14.3556 117.229 14.02C117.107 13.6845 117.02 13.416 116.967 13.2147H130.083C130.083 12.8959 130.07 12.531 130.044 12.1199C130.018 11.7089 129.948 11.2768 129.835 10.8238C129.721 10.3708 129.543 9.9136 129.299 9.45222C129.055 8.99082 128.716 8.53362 128.28 8.0806C127.775 7.56048 127.218 7.14104 126.608 6.82226C125.998 6.50347 125.384 6.256 124.766 6.07983C124.148 5.90366 123.547 5.78622 122.963 5.72748C122.38 5.66876 121.862 5.6394 121.409 5.6394C120.225 5.6394 119.101 5.76943 118.039 6.0295C116.976 6.28955 116.036 6.69642 115.217 7.2501C114.398 7.80378 113.749 8.50426 113.27 9.35155C112.791 10.1988 112.552 11.2097 112.552 12.3842C112.552 13.2902 112.744 14.213 113.127 15.1525C113.51 16.0921 114.146 16.9058 115.034 17.5937C115.922 18.2984 116.915 18.7724 118.012 19.0157C119.11 19.259 120.225 19.3806 121.357 19.3806ZM116.611 10.9245H124.841C124.806 10.6896 124.715 10.4086 124.567 10.0814C124.419 9.75422 124.118 9.46479 123.665 9.21312C123.352 9.02856 122.947 8.87336 122.45 8.74754C121.954 8.6217 121.418 8.55878 120.844 8.55878C120.339 8.55878 119.82 8.61751 119.289 8.73495C118.758 8.8524 118.292 9.03695 117.891 9.28863C117.508 9.52352 117.234 9.77938 117.068 10.0562C116.903 10.3331 116.75 10.6225 116.611 10.9245Z" fill="white"/>
<path d="M136.173 12.7364C136.173 12.1828 136.264 11.6668 136.447 11.1887C136.63 10.7105 137.052 10.3036 137.714 9.96807C137.975 9.83384 138.254 9.72898 138.551 9.65348C138.846 9.57798 139.129 9.52346 139.399 9.4899C139.67 9.45634 139.912 9.43536 140.13 9.42698C140.348 9.41859 140.501 9.41439 140.588 9.41439C140.815 9.41439 141.01 9.41859 141.175 9.42698C141.341 9.43536 141.52 9.44795 141.711 9.46472V5.71484C140.753 5.73162 139.956 5.83228 139.321 6.01684C138.685 6.2014 138.159 6.42791 137.741 6.69635C137.322 6.9648 136.995 7.24583 136.76 7.53944C136.525 7.83307 136.329 8.09732 136.173 8.33222V6.14268H131.836V18.8772H136.173V12.7364Z" fill="white"/>
<path d="M152.893 19.1794C152.188 19.2801 151.366 19.3303 150.425 19.3303C148.909 19.3303 147.646 19.2046 146.637 18.9529C145.626 18.7013 144.802 18.3698 144.168 17.9587C143.532 17.5477 143.053 17.0738 142.731 16.5369C142.408 15.9999 142.169 15.4462 142.012 14.8758L146.637 14.5486C146.758 14.9681 146.949 15.3037 147.21 15.5553C147.472 15.807 147.782 16.0042 148.138 16.1467C148.496 16.2894 148.884 16.3858 149.301 16.4362C149.719 16.4865 150.137 16.5117 150.555 16.5117C150.955 16.5117 151.343 16.4991 151.718 16.4739C152.093 16.4487 152.462 16.369 152.827 16.2349C152.88 16.2181 152.958 16.1887 153.064 16.1467C153.168 16.1049 153.276 16.0419 153.39 15.9579C153.503 15.8741 153.599 15.7734 153.677 15.6559C153.755 15.5386 153.795 15.3875 153.795 15.203C153.795 14.7667 153.537 14.4731 153.024 14.3222C152.511 14.1711 151.757 14.0285 150.764 13.8943C150.241 13.8271 149.719 13.7769 149.196 13.7433C148.674 13.7098 148.151 13.6594 147.629 13.5923C147.28 13.5587 146.832 13.4917 146.283 13.391C145.735 13.2903 145.2 13.1141 144.677 12.8624C144.155 12.6108 143.701 12.2542 143.318 11.7928C142.935 11.3314 142.743 10.7149 142.743 9.94306C142.743 9.18806 142.935 8.52951 143.318 7.96745C143.701 7.40539 144.236 6.94399 144.925 6.58326C145.613 6.22254 146.427 5.95408 147.367 5.77792C148.308 5.60175 149.336 5.51367 150.451 5.51367C150.781 5.51367 151.186 5.52624 151.665 5.55142C152.144 5.57658 152.653 5.6395 153.194 5.74017C153.734 5.84083 154.278 5.98764 154.827 6.18059C155.375 6.37354 155.894 6.63779 156.381 6.97335C157.043 7.44314 157.492 7.91711 157.727 8.39529C157.962 8.87346 158.123 9.26355 158.21 9.56555L153.743 9.84239C153.551 9.38939 153.172 9.01607 152.606 8.72246C152.04 8.42885 151.235 8.28205 150.19 8.28205C149.301 8.28205 148.579 8.3911 148.021 8.60921C147.464 8.82733 147.185 9.13773 147.185 9.54039C147.185 9.80885 147.298 10.0102 147.525 10.1444C147.751 10.2786 148.013 10.3793 148.308 10.4464C148.5 10.4967 148.691 10.5387 148.884 10.5722C149.075 10.6058 149.336 10.6436 149.667 10.6855C149.997 10.7274 150.442 10.7736 150.999 10.8239C151.557 10.8742 152.305 10.9414 153.246 11.0252C153.751 11.0756 154.266 11.1385 154.788 11.214C155.311 11.2895 155.798 11.4363 156.25 11.6544C156.895 11.9396 157.392 12.3549 157.74 12.9002C158.088 13.4455 158.262 14.0621 158.262 14.7499C158.262 15.2869 158.149 15.8027 157.923 16.2978C157.696 16.7927 157.382 17.2163 156.983 17.5687C156.738 17.7867 156.434 18.0007 156.068 18.2105C155.703 18.4202 155.258 18.6089 154.735 18.7767C154.213 18.9445 153.599 19.0787 152.893 19.1794Z" fill="white"/>
<path d="M164.133 18.8773V11.5537C164.133 11.1678 164.176 10.8239 164.263 10.5219C164.351 10.2198 164.593 9.90107 164.994 9.56549C165.36 9.28028 165.801 9.06216 166.314 8.91116C166.827 8.76016 167.424 8.68465 168.103 8.68465C168.643 8.68465 169.101 8.73499 169.475 8.83565C169.85 8.93632 170.159 9.04957 170.403 9.17541C170.647 9.30124 170.829 9.42288 170.952 9.54033L171.187 9.76684C171.482 10.1024 171.653 10.4631 171.696 10.849C171.74 11.2349 171.761 11.604 171.761 11.9564V18.8773H176.098V11.151C176.098 10.849 176.09 10.5512 176.072 10.2576C176.054 9.96397 176.011 9.66617 175.941 9.36416C175.872 9.06216 175.759 8.76016 175.602 8.45815C175.445 8.15615 175.227 7.86253 174.949 7.57731C174.6 7.22496 174.208 6.93555 173.773 6.70904C173.338 6.48253 172.88 6.30217 172.401 6.16795C171.922 6.03372 171.448 5.94144 170.977 5.89111C170.507 5.84077 170.072 5.81561 169.671 5.81561C168.853 5.81561 168.052 5.89951 167.268 6.06728C166.484 6.23507 165.761 6.53707 165.099 6.97329C164.855 7.12429 164.655 7.27111 164.498 7.41372C164.341 7.55633 164.22 7.66959 164.133 7.75347V1.10938H159.821V18.8773H164.133Z" fill="white"/>
<path d="M182.997 1.10938V3.92808H178.713V1.10938H182.997Z" fill="white"/>
<path d="M182.997 6.14282H178.713V18.8774H182.997V6.14282Z" fill="white"/>
<path fill-rule="evenodd" clip-rule="evenodd" d="M200.152 17.5687C198.847 18.6899 196.964 19.1915 195.015 19.1915C193.589 19.1915 192.259 18.8226 191.136 18.1852C190.693 17.9335 190.282 17.64 189.91 17.3108V23.776H185.586V6.14283H189.91V7.63202C191.223 6.39489 193.027 5.84082 195.015 5.84082C196.93 5.84082 198.854 6.47349 200.152 7.63202C201.575 8.90181 202.282 10.783 202.282 12.6672C202.282 14.5207 201.535 16.3808 200.152 17.5687ZM193.751 16.5887C193.18 16.5887 192.635 16.5086 192.118 16.3486C191.601 16.1884 191.144 15.9439 190.747 15.615C190.35 15.2859 190.032 14.868 189.792 14.3611C189.551 13.8543 189.431 13.254 189.431 12.5604C189.431 12.0624 189.515 11.5734 189.681 11.0932C189.847 10.613 190.096 10.1817 190.429 9.79935C190.761 9.41698 191.186 9.11019 191.702 8.87899C192.219 8.64779 192.829 8.53219 193.531 8.53219C194.472 8.53219 195.224 8.67446 195.787 8.95902C196.351 9.24358 196.789 9.59482 197.103 10.0128C197.417 10.4307 197.624 10.8709 197.726 11.3333C197.827 11.7957 197.879 12.1958 197.879 12.5338C197.879 13.0673 197.796 13.5786 197.629 14.0676C197.463 14.5567 197.214 14.988 196.881 15.3615C196.549 15.735 196.124 16.0328 195.608 16.2552C195.091 16.4775 194.472 16.5887 193.751 16.5887Z" fill="white"/>
</g>
<defs>
<clipPath id="clip0_221_112">
<rect width="203.2" height="24" fill="white"/>
</clipPath>
</defs>
</svg>
