<?xml version="1.0" encoding="UTF-8"?><svg id="Icons" xmlns="http://www.w3.org/2000/svg" viewBox="0 0 100 100"><defs><style>.cls-1{stroke:#161c2d;}.cls-1,.cls-2{fill:none;stroke-linecap:round;stroke-linejoin:round;stroke-width:2px;}.cls-2{stroke:#cd2026;}</style></defs><path class="cls-2" d="m38.32,43.66v-3.48s-.31-2.78,3.48-4.87c0,0,5.56-2.78,2.78-8.35,0,0-2.09-4.87-7.65-4.17,0,0-5.56.7-6.26,6.96"/><circle class="cls-2" cx="38.33" cy="49.15" r="1.65"/><path class="cls-1" d="m60.87,69.84c-2.13-2.13-2.13-5.58,0-7.71,2.13-2.13,5.58-2.13,7.71,0l16.91,16.91c2.13,2.13,2.13,5.58,0,7.71-2.13,2.13-5.58,2.13-7.71,0l-16.91-16.91Z"/><line class="cls-1" x1="54.92" y1="56.28" x2="60.42" y2="61.78"/><circle class="cls-1" cx="38.02" cy="36.76" r="25.11"/></svg>