<?xml version="1.0" encoding="UTF-8"?><svg id="Layer_1" xmlns="http://www.w3.org/2000/svg" viewBox="0 0 460.8 460.8"><defs><style>.cls-1{stroke:#161c2d;}.cls-1,.cls-2{fill:none;stroke-linecap:round;stroke-linejoin:round;stroke-width:8px;}.cls-2{stroke:#ce2128;}</style></defs><polyline class="cls-1" points="305.36 285.08 427.27 285.08 427.27 29 33.53 29 33.53 285.08 159.32 285.08"/><polygon class="cls-1" points="192.04 108.95 192.04 207.38 268.43 157.05 192.04 108.95"/><path class="cls-2" d="m231.12,378.79c23.24,0,42.08-19.46,42.08-43.47s-18.83-43.46-42.08-43.46-42.08,19.46-42.08,43.46,18.83,43.47,42.08,43.47Z"/><path class="cls-2" d="m175.41,257.22l-20.43,19.17,12.8,21.69c-3.24,5.88-5.75,12.24-7.38,18.97l-25.85,3.43v30.67l26.21,3.87c1.7,6.49,4.22,12.63,7.44,18.3l-13.21,19.99,18.57,21.08,20.83-14.08c5.88,3.56,12.29,6.28,19.08,8.02l2.82,23.46,29.71-.15,3.57-23.51c6.41-1.72,12.47-4.32,18.06-7.66l19.23,17.76,22.29-24.92-15.05-20.02c3.16-5.58,5.65-11.61,7.35-17.98l24.63-4.17-.21-28.76-24.02-5.49c-1.58-6.47-3.97-12.62-7.06-18.3l14.37-20.3-22.29-23-18.16,15.53c-6.09-3.79-12.76-6.69-19.84-8.51l-.99-26.19h-33.43l-1.61,26.36c-6.93,1.85-13.46,4.73-19.42,8.46l-17.97-13.73Z"/></svg>