<?xml version="1.0" encoding="UTF-8"?><svg id="Icons" xmlns="http://www.w3.org/2000/svg" viewBox="0 0 100 100"><defs><style>.cls-1{stroke:#161c2d;}.cls-1,.cls-2{fill:none;stroke-linecap:round;stroke-linejoin:round;stroke-width:2px;}.cls-2{stroke:#cd2026;}</style></defs><path class="cls-1" d="m32.94,38.38c-1.19,3.67-1.82,7.57-1.82,11.62s.65,8.05,1.87,11.76"/><path class="cls-1" d="m68.01,50.53c0-21.19-8.28-38.37-18.5-38.37-6.22,0-11.73,6.38-15.08,16.16"/><path class="cls-1" d="m34.59,72.15c3.37,9.51,8.8,15.68,14.92,15.68,10.22,0,18.5-17.18,18.5-38.37"/><polyline class="cls-1" points="73.19 45.9 68.03 51.83 62.5 45.9"/><path class="cls-2" d="m73.23,63.68c8.52-3.29,13.92-8.21,13.92-13.72,0-6-6.44-11.32-16.32-14.57"/><polyline class="cls-2" points="45.91 62.45 51.77 67.67 45.91 73.26"/><path class="cls-2" d="m60.98,32.89c-3.39-.48-6.98-.74-10.69-.74-20.68,0-37.44,7.97-37.44,17.79s16.76,17.79,37.44,17.79c3.31,0,6.52-.2,9.57-.59"/></svg>