<?xml version="1.0" encoding="UTF-8"?><svg id="Icons" xmlns="http://www.w3.org/2000/svg" viewBox="0 0 100 100"><defs><style>.cls-1{stroke:#161c2d;}.cls-1,.cls-2{fill:none;stroke-linecap:round;stroke-linejoin:round;stroke-width:2px;}.cls-2{stroke:#cd2026;}</style></defs><path class="cls-1" d="m25.26,78.72c6.61,5.77,15.22,9.26,24.65,9.29,20.86.05,37.8-16.93,37.85-37.92.05-20.99-16.83-38.04-37.68-38.09-20.86-.05-37.8,16.93-37.85,37.92-.02,9.64,3.52,18.44,9.38,25.15"/><path class="cls-2" d="m26.43,55.9c3.22,0,5.84-2.64,5.84-5.9s-2.61-5.9-5.84-5.9h-4.04v11.8h4.04Z"/><polyline class="cls-2" points="44.1 44.1 37.61 44.1 37.61 55.9 44.1 55.9"/><line class="cls-2" x1="38.14" y1="50" x2="42.96" y2="50"/><ellipse class="cls-2" cx="71.35" cy="49.85" rx="5.63" ry="5.9"/><polyline class="cls-2" points="49.68 55.9 49.68 44.1 54.98 52.26 60.29 44.1 60.29 55.9"/><polygon class="cls-2" points="31.77 78.77 35.48 64.84 21.37 68.66 24.67 71.87 17.33 79.51 20.92 83 28.26 75.35 31.77 78.77"/></svg>